SplineFontDB: 3.0
FontName: Meyrin
FullName: Meyrin
FamilyName: Meyrin
Weight: Book
Copyright: 
Version: 1.0
ItalicAngle: 0
UnderlinePosition: 0
UnderlineWidth: 0
Ascent: 480
Descent: 32
sfntRevision: 0x00010000
LayerCount: 2
Layer: 0 1 "Back"  1
Layer: 1 1 "Fore"  0
XUID: [1021 900 318449021 12537686]
FSType: 8
OS2Version: 1
OS2_WeightWidthSlopeOnly: 0
OS2_UseTypoMetrics: 1
CreationTime: 1380463657
ModificationTime: 1380912694
PfmFamily: 17
TTFWeight: 400
TTFWidth: 5
LineGap: 46
VLineGap: 0
Panose: 2 0 5 3 0 0 0 0 0 0
OS2TypoAscent: 480
OS2TypoAOffset: 0
OS2TypoDescent: -32
OS2TypoDOffset: 0
OS2TypoLinegap: 46
OS2WinAscent: 480
OS2WinAOffset: 0
OS2WinDescent: 32
OS2WinDOffset: 0
HheadAscent: 480
HheadAOffset: 0
HheadDescent: -32
HheadDOffset: 0
OS2SubXSize: 332
OS2SubYSize: 358
OS2SubXOff: 0
OS2SubYOff: 71
OS2SupXSize: 332
OS2SupYSize: 358
OS2SupXOff: 0
OS2SupYOff: 245
OS2StrikeYSize: 25
OS2StrikeYPos: 132
OS2Vendor: 'PfEd'
OS2CodePages: 80000001.00000000
OS2UnicodeRanges: a0000023.10000040.00000010.00000000
MarkAttachClasses: 1
DEI: 91125
ShortTable: maxp 16
  1
  0
  191
  136
  34
  0
  0
  2
  0
  1
  1
  0
  64
  0
  0
  0
EndShort
LangName: 1033 "" "" "Regular" "FontForge 2.0 : Meyrin : 4-10-2013" "" "Version 1.0" 
GaspTable: 1 65535 2 0
Encoding: UnicodeBmp
UnicodeInterp: none
NameList: Adobe Glyph List
DisplaySize: -24
AntiAlias: 1
FitToEm: 1
WinInfo: 41 41 15
BeginPrivate: 0
EndPrivate
BeginChars: 65538 191

StartChar: exclam
Encoding: 33 33 4
Width: 246
Flags: W
LayerCount: 2
Fore
SplineSet
109 359 m 1,0,-1
 137 359 l 1,1,-1
 137 348 l 1,2,-1
 109 348 l 1,3,-1
 109 359 l 1,0,-1
82 322 m 1,4,-1
 110 322 l 1,5,-1
 110 311 l 1,6,-1
 82 311 l 1,7,-1
 82 322 l 1,4,-1
137 322 m 1,8,-1
 164 322 l 1,9,-1
 164 311 l 1,10,-1
 137 311 l 1,11,-1
 137 322 l 1,8,-1
109 322 m 1,12,-1
 137 322 l 1,13,-1
 137 311 l 1,14,-1
 109 311 l 1,15,-1
 109 322 l 1,12,-1
82 285 m 1,16,-1
 110 285 l 1,17,-1
 110 274 l 1,18,-1
 82 274 l 1,19,-1
 82 285 l 1,16,-1
137 285 m 1,20,-1
 164 285 l 1,21,-1
 164 274 l 1,22,-1
 137 274 l 1,23,-1
 137 285 l 1,20,-1
109 285 m 1,24,-1
 137 285 l 1,25,-1
 137 274 l 1,26,-1
 109 274 l 1,27,-1
 109 285 l 1,24,-1
82 248 m 1,28,-1
 110 248 l 1,29,-1
 110 237 l 1,30,-1
 82 237 l 1,31,-1
 82 248 l 1,28,-1
137 248 m 1,32,-1
 164 248 l 1,33,-1
 164 237 l 1,34,-1
 137 237 l 1,35,-1
 137 248 l 1,32,-1
109 248 m 1,36,-1
 137 248 l 1,37,-1
 137 237 l 1,38,-1
 109 237 l 1,39,-1
 109 248 l 1,36,-1
109 212 m 1,40,-1
 137 212 l 1,41,-1
 137 201 l 1,42,-1
 109 201 l 1,43,-1
 109 212 l 1,40,-1
109 175 m 1,44,-1
 137 175 l 1,45,-1
 137 164 l 1,46,-1
 109 164 l 1,47,-1
 109 175 l 1,44,-1
109 101 m 1,48,-1
 137 101 l 1,49,-1
 137 90 l 1,50,-1
 109 90 l 1,51,-1
 109 101 l 1,48,-1
109 65 m 1,52,-1
 137 65 l 1,53,-1
 137 54 l 1,54,-1
 109 54 l 1,55,-1
 109 65 l 1,52,-1
EndSplineSet
EndChar

StartChar: quotedbl
Encoding: 34 34 5
Width: 246
Flags: W
LayerCount: 2
Fore
SplineSet
82 358 m 1,0,-1
 110 358 l 1,1,-1
 110 347 l 1,2,-1
 82 347 l 1,3,-1
 82 358 l 1,0,-1
137 358 m 1,4,-1
 164 358 l 1,5,-1
 164 347 l 1,6,-1
 137 347 l 1,7,-1
 137 358 l 1,4,-1
82 321 m 1,8,-1
 110 321 l 1,9,-1
 110 310 l 1,10,-1
 82 310 l 1,11,-1
 82 321 l 1,8,-1
137 321 m 1,12,-1
 164 321 l 1,13,-1
 164 310 l 1,14,-1
 137 310 l 1,15,-1
 137 321 l 1,12,-1
82 284 m 1,16,-1
 110 284 l 1,17,-1
 110 273 l 1,18,-1
 82 273 l 1,19,-1
 82 284 l 1,16,-1
137 284 m 1,20,-1
 164 284 l 1,21,-1
 164 273 l 1,22,-1
 137 273 l 1,23,-1
 137 284 l 1,20,-1
82 248 m 1,24,-1
 110 248 l 1,25,-1
 110 237 l 1,26,-1
 82 237 l 1,27,-1
 82 248 l 1,24,-1
137 248 m 1,28,-1
 164 248 l 1,29,-1
 164 237 l 1,30,-1
 137 237 l 1,31,-1
 137 248 l 1,28,-1
EndSplineSet
EndChar

StartChar: numbersign
Encoding: 35 35 6
Width: 246
Flags: W
LayerCount: 2
Fore
SplineSet
82 321 m 1,0,-1
 109 321 l 1,1,-1
 109 310 l 1,2,-1
 82 310 l 1,3,-1
 82 321 l 1,0,-1
137 321 m 1,4,-1
 164 321 l 1,5,-1
 164 310 l 1,6,-1
 137 310 l 1,7,-1
 137 321 l 1,4,-1
82 284 m 1,8,-1
 109 284 l 1,9,-1
 109 273 l 1,10,-1
 82 273 l 1,11,-1
 82 284 l 1,8,-1
137 284 m 1,12,-1
 164 284 l 1,13,-1
 164 273 l 1,14,-1
 137 273 l 1,15,-1
 137 284 l 1,12,-1
82 248 m 1,16,-1
 109 248 l 1,17,-1
 109 237 l 1,18,-1
 82 237 l 1,19,-1
 82 248 l 1,16,-1
55 248 m 1,20,-1
 82 248 l 1,21,-1
 82 237 l 1,22,-1
 55 237 l 1,23,-1
 55 248 l 1,20,-1
137 248 m 1,24,-1
 164 248 l 1,25,-1
 164 237 l 1,26,-1
 137 237 l 1,27,-1
 137 248 l 1,24,-1
109 248 m 1,28,-1
 137 248 l 1,29,-1
 137 237 l 1,30,-1
 109 237 l 1,31,-1
 109 248 l 1,28,-1
164 248 m 1,32,-1
 191 248 l 1,33,-1
 191 237 l 1,34,-1
 164 237 l 1,35,-1
 164 248 l 1,32,-1
82 211 m 1,36,-1
 109 211 l 1,37,-1
 109 200 l 1,38,-1
 82 200 l 1,39,-1
 82 211 l 1,36,-1
137 211 m 1,40,-1
 164 211 l 1,41,-1
 164 200 l 1,42,-1
 137 200 l 1,43,-1
 137 211 l 1,40,-1
82 174 m 1,44,-1
 109 174 l 1,45,-1
 109 163 l 1,46,-1
 82 163 l 1,47,-1
 82 174 l 1,44,-1
137 174 m 1,48,-1
 164 174 l 1,49,-1
 164 163 l 1,50,-1
 137 163 l 1,51,-1
 137 174 l 1,48,-1
82 138 m 1,52,-1
 109 138 l 1,53,-1
 109 127 l 1,54,-1
 82 127 l 1,55,-1
 82 138 l 1,52,-1
55 138 m 1,56,-1
 82 138 l 1,57,-1
 82 127 l 1,58,-1
 55 127 l 1,59,-1
 55 138 l 1,56,-1
137 138 m 1,60,-1
 164 138 l 1,61,-1
 164 127 l 1,62,-1
 137 127 l 1,63,-1
 137 138 l 1,60,-1
109 138 m 1,64,-1
 137 138 l 1,65,-1
 137 127 l 1,66,-1
 109 127 l 1,67,-1
 109 138 l 1,64,-1
164 138 m 1,68,-1
 191 138 l 1,69,-1
 191 127 l 1,70,-1
 164 127 l 1,71,-1
 164 138 l 1,68,-1
82 101 m 1,72,-1
 109 101 l 1,73,-1
 109 90 l 1,74,-1
 82 90 l 1,75,-1
 82 101 l 1,72,-1
137 101 m 1,76,-1
 164 101 l 1,77,-1
 164 90 l 1,78,-1
 137 90 l 1,79,-1
 137 101 l 1,76,-1
82 64 m 1,80,-1
 109 64 l 1,81,-1
 109 53 l 1,82,-1
 82 53 l 1,83,-1
 82 64 l 1,80,-1
137 64 m 1,84,-1
 164 64 l 1,85,-1
 164 53 l 1,86,-1
 137 53 l 1,87,-1
 137 64 l 1,84,-1
EndSplineSet
EndChar

StartChar: dollar
Encoding: 36 36 7
Width: 246
Flags: W
LayerCount: 2
Fore
SplineSet
109 396 m 1,0,-1
 137 396 l 1,1,-1
 137 385 l 1,2,-1
 109 385 l 1,3,-1
 109 396 l 1,0,-1
82 359 m 1,4,-1
 109 359 l 1,5,-1
 109 348 l 1,6,-1
 82 348 l 1,7,-1
 82 359 l 1,4,-1
55 359 m 1,8,-1
 82 359 l 1,9,-1
 82 348 l 1,10,-1
 55 348 l 1,11,-1
 55 359 l 1,8,-1
137 359 m 1,12,-1
 164 359 l 1,13,-1
 164 348 l 1,14,-1
 137 348 l 1,15,-1
 137 359 l 1,12,-1
109 359 m 1,16,-1
 137 359 l 1,17,-1
 137 348 l 1,18,-1
 109 348 l 1,19,-1
 109 359 l 1,16,-1
164 359 m 1,20,-1
 192 359 l 1,21,-1
 192 348 l 1,22,-1
 164 348 l 1,23,-1
 164 359 l 1,20,-1
27 322 m 1,24,-1
 55 322 l 1,25,-1
 55 311 l 1,26,-1
 27 311 l 1,27,-1
 27 322 l 1,24,-1
109 322 m 1,28,-1
 137 322 l 1,29,-1
 137 311 l 1,30,-1
 109 311 l 1,31,-1
 109 322 l 1,28,-1
192 322 m 1,32,-1
 219 322 l 1,33,-1
 219 311 l 1,34,-1
 192 311 l 1,35,-1
 192 322 l 1,32,-1
27 285 m 1,36,-1
 55 285 l 1,37,-1
 55 274 l 1,38,-1
 27 274 l 1,39,-1
 27 285 l 1,36,-1
109 285 m 1,40,-1
 137 285 l 1,41,-1
 137 274 l 1,42,-1
 109 274 l 1,43,-1
 109 285 l 1,40,-1
27 249 m 1,44,-1
 55 249 l 1,45,-1
 55 238 l 1,46,-1
 27 238 l 1,47,-1
 27 249 l 1,44,-1
109 249 m 1,48,-1
 137 249 l 1,49,-1
 137 238 l 1,50,-1
 109 238 l 1,51,-1
 109 249 l 1,48,-1
82 212 m 1,52,-1
 109 212 l 1,53,-1
 109 201 l 1,54,-1
 82 201 l 1,55,-1
 82 212 l 1,52,-1
55 212 m 1,56,-1
 82 212 l 1,57,-1
 82 201 l 1,58,-1
 55 201 l 1,59,-1
 55 212 l 1,56,-1
137 212 m 1,60,-1
 164 212 l 1,61,-1
 164 201 l 1,62,-1
 137 201 l 1,63,-1
 137 212 l 1,60,-1
109 212 m 1,64,-1
 137 212 l 1,65,-1
 137 201 l 1,66,-1
 109 201 l 1,67,-1
 109 212 l 1,64,-1
164 212 m 1,68,-1
 192 212 l 1,69,-1
 192 201 l 1,70,-1
 164 201 l 1,71,-1
 164 212 l 1,68,-1
109 175 m 1,72,-1
 137 175 l 1,73,-1
 137 164 l 1,74,-1
 109 164 l 1,75,-1
 109 175 l 1,72,-1
192 175 m 1,76,-1
 219 175 l 1,77,-1
 219 164 l 1,78,-1
 192 164 l 1,79,-1
 192 175 l 1,76,-1
109 138 m 1,80,-1
 137 138 l 1,81,-1
 137 127 l 1,82,-1
 109 127 l 1,83,-1
 109 138 l 1,80,-1
192 138 m 1,84,-1
 219 138 l 1,85,-1
 219 127 l 1,86,-1
 192 127 l 1,87,-1
 192 138 l 1,84,-1
27 102 m 1,88,-1
 55 102 l 1,89,-1
 55 91 l 1,90,-1
 27 91 l 1,91,-1
 27 102 l 1,88,-1
109 102 m 1,92,-1
 137 102 l 1,93,-1
 137 91 l 1,94,-1
 109 91 l 1,95,-1
 109 102 l 1,92,-1
192 102 m 1,96,-1
 219 102 l 1,97,-1
 219 91 l 1,98,-1
 192 91 l 1,99,-1
 192 102 l 1,96,-1
82 65 m 1,100,-1
 109 65 l 1,101,-1
 109 54 l 1,102,-1
 82 54 l 1,103,-1
 82 65 l 1,100,-1
55 65 m 1,104,-1
 82 65 l 1,105,-1
 82 54 l 1,106,-1
 55 54 l 1,107,-1
 55 65 l 1,104,-1
137 65 m 1,108,-1
 164 65 l 1,109,-1
 164 54 l 1,110,-1
 137 54 l 1,111,-1
 137 65 l 1,108,-1
109 65 m 1,112,-1
 137 65 l 1,113,-1
 137 54 l 1,114,-1
 109 54 l 1,115,-1
 109 65 l 1,112,-1
164 65 m 1,116,-1
 192 65 l 1,117,-1
 192 54 l 1,118,-1
 164 54 l 1,119,-1
 164 65 l 1,116,-1
109 28 m 1,120,-1
 137 28 l 1,121,-1
 137 17 l 1,122,-1
 109 17 l 1,123,-1
 109 28 l 1,120,-1
EndSplineSet
EndChar

StartChar: percent
Encoding: 37 37 8
Width: 246
Flags: W
LayerCount: 2
Fore
SplineSet
82 359 m 1,0,-1
 109 359 l 1,1,-1
 109 348 l 1,2,-1
 82 348 l 1,3,-1
 82 359 l 1,0,-1
54 359 m 1,4,-1
 82 359 l 1,5,-1
 82 348 l 1,6,-1
 54 348 l 1,7,-1
 54 359 l 1,4,-1
27 322 m 1,8,-1
 54 322 l 1,9,-1
 54 311 l 1,10,-1
 27 311 l 1,11,-1
 27 322 l 1,8,-1
109 322 m 1,12,-1
 136 322 l 1,13,-1
 136 311 l 1,14,-1
 109 311 l 1,15,-1
 109 322 l 1,12,-1
191 322 m 1,16,-1
 219 322 l 1,17,-1
 219 311 l 1,18,-1
 191 311 l 1,19,-1
 191 322 l 1,16,-1
27 285 m 1,20,-1
 54 285 l 1,21,-1
 54 274 l 1,22,-1
 27 274 l 1,23,-1
 27 285 l 1,20,-1
109 285 m 1,24,-1
 136 285 l 1,25,-1
 136 274 l 1,26,-1
 109 274 l 1,27,-1
 109 285 l 1,24,-1
164 285 m 1,28,-1
 191 285 l 1,29,-1
 191 274 l 1,30,-1
 164 274 l 1,31,-1
 164 285 l 1,28,-1
82 248 m 1,32,-1
 109 248 l 1,33,-1
 109 237 l 1,34,-1
 82 237 l 1,35,-1
 82 248 l 1,32,-1
54 248 m 1,36,-1
 82 248 l 1,37,-1
 82 237 l 1,38,-1
 54 237 l 1,39,-1
 54 248 l 1,36,-1
136 248 m 1,40,-1
 164 248 l 1,41,-1
 164 237 l 1,42,-1
 136 237 l 1,43,-1
 136 248 l 1,40,-1
109 212 m 1,44,-1
 136 212 l 1,45,-1
 136 201 l 1,46,-1
 109 201 l 1,47,-1
 109 212 l 1,44,-1
82 175 m 1,48,-1
 109 175 l 1,49,-1
 109 164 l 1,50,-1
 82 164 l 1,51,-1
 82 175 l 1,48,-1
136 175 m 1,52,-1
 164 175 l 1,53,-1
 164 164 l 1,54,-1
 136 164 l 1,55,-1
 136 175 l 1,52,-1
164 175 m 1,56,-1
 191 175 l 1,57,-1
 191 164 l 1,58,-1
 164 164 l 1,59,-1
 164 175 l 1,56,-1
54 138 m 1,60,-1
 82 138 l 1,61,-1
 82 127 l 1,62,-1
 54 127 l 1,63,-1
 54 138 l 1,60,-1
109 138 m 1,64,-1
 136 138 l 1,65,-1
 136 127 l 1,66,-1
 109 127 l 1,67,-1
 109 138 l 1,64,-1
191 138 m 1,68,-1
 219 138 l 1,69,-1
 219 127 l 1,70,-1
 191 127 l 1,71,-1
 191 138 l 1,68,-1
27 101 m 1,72,-1
 54 101 l 1,73,-1
 54 90 l 1,74,-1
 27 90 l 1,75,-1
 27 101 l 1,72,-1
109 101 m 1,76,-1
 136 101 l 1,77,-1
 136 90 l 1,78,-1
 109 90 l 1,79,-1
 109 101 l 1,76,-1
191 101 m 1,80,-1
 219 101 l 1,81,-1
 219 90 l 1,82,-1
 191 90 l 1,83,-1
 191 101 l 1,80,-1
136 65 m 1,84,-1
 164 65 l 1,85,-1
 164 54 l 1,86,-1
 136 54 l 1,87,-1
 136 65 l 1,84,-1
164 65 m 1,88,-1
 191 65 l 1,89,-1
 191 54 l 1,90,-1
 164 54 l 1,91,-1
 164 65 l 1,88,-1
EndSplineSet
EndChar

StartChar: ampersand
Encoding: 38 38 9
Width: 246
Flags: W
LayerCount: 2
Fore
SplineSet
82 358 m 1,0,-1
 110 358 l 1,1,-1
 110 347 l 1,2,-1
 82 347 l 1,3,-1
 82 358 l 1,0,-1
109 358 m 1,4,-1
 137 358 l 1,5,-1
 137 347 l 1,6,-1
 109 347 l 1,7,-1
 109 358 l 1,4,-1
55 321 m 1,8,-1
 82 321 l 1,9,-1
 82 310 l 1,10,-1
 55 310 l 1,11,-1
 55 321 l 1,8,-1
137 321 m 1,12,-1
 164 321 l 1,13,-1
 164 310 l 1,14,-1
 137 310 l 1,15,-1
 137 321 l 1,12,-1
55 284 m 1,16,-1
 82 284 l 1,17,-1
 82 273 l 1,18,-1
 55 273 l 1,19,-1
 55 284 l 1,16,-1
137 284 m 1,20,-1
 164 284 l 1,21,-1
 164 273 l 1,22,-1
 137 273 l 1,23,-1
 137 284 l 1,20,-1
82 248 m 1,24,-1
 110 248 l 1,25,-1
 110 237 l 1,26,-1
 82 237 l 1,27,-1
 82 248 l 1,24,-1
109 248 m 1,28,-1
 137 248 l 1,29,-1
 137 237 l 1,30,-1
 109 237 l 1,31,-1
 109 248 l 1,28,-1
82 211 m 1,32,-1
 110 211 l 1,33,-1
 110 200 l 1,34,-1
 82 200 l 1,35,-1
 82 211 l 1,32,-1
55 211 m 1,36,-1
 82 211 l 1,37,-1
 82 200 l 1,38,-1
 55 200 l 1,39,-1
 55 211 l 1,36,-1
109 211 m 1,40,-1
 137 211 l 1,41,-1
 137 200 l 1,42,-1
 109 200 l 1,43,-1
 109 211 l 1,40,-1
27 174 m 1,44,-1
 55 174 l 1,45,-1
 55 163 l 1,46,-1
 27 163 l 1,47,-1
 27 174 l 1,44,-1
137 174 m 1,48,-1
 164 174 l 1,49,-1
 164 163 l 1,50,-1
 137 163 l 1,51,-1
 137 174 l 1,48,-1
192 174 m 1,52,-1
 219 174 l 1,53,-1
 219 163 l 1,54,-1
 192 163 l 1,55,-1
 192 174 l 1,52,-1
164 174 m 1,56,-1
 192 174 l 1,57,-1
 192 163 l 1,58,-1
 164 163 l 1,59,-1
 164 174 l 1,56,-1
27 138 m 1,60,-1
 55 138 l 1,61,-1
 55 127 l 1,62,-1
 27 127 l 1,63,-1
 27 138 l 1,60,-1
164 138 m 1,64,-1
 192 138 l 1,65,-1
 192 127 l 1,66,-1
 164 127 l 1,67,-1
 164 138 l 1,64,-1
27 101 m 1,68,-1
 55 101 l 1,69,-1
 55 90 l 1,70,-1
 27 90 l 1,71,-1
 27 101 l 1,68,-1
164 101 m 1,72,-1
 192 101 l 1,73,-1
 192 90 l 1,74,-1
 164 90 l 1,75,-1
 164 101 l 1,72,-1
82 64 m 1,76,-1
 110 64 l 1,77,-1
 110 53 l 1,78,-1
 82 53 l 1,79,-1
 82 64 l 1,76,-1
55 64 m 1,80,-1
 82 64 l 1,81,-1
 82 53 l 1,82,-1
 55 53 l 1,83,-1
 55 64 l 1,80,-1
137 64 m 1,84,-1
 164 64 l 1,85,-1
 164 53 l 1,86,-1
 137 53 l 1,87,-1
 137 64 l 1,84,-1
109 64 m 1,88,-1
 137 64 l 1,89,-1
 137 53 l 1,90,-1
 109 53 l 1,91,-1
 109 64 l 1,88,-1
192 64 m 1,92,-1
 219 64 l 1,93,-1
 219 53 l 1,94,-1
 192 53 l 1,95,-1
 192 64 l 1,92,-1
164 64 m 1,96,-1
 192 64 l 1,97,-1
 192 53 l 1,98,-1
 164 53 l 1,99,-1
 164 64 l 1,96,-1
EndSplineSet
EndChar

StartChar: quotesingle
Encoding: 39 39 10
Width: 246
Flags: W
LayerCount: 2
Fore
SplineSet
137 395 m 1,0,-1
 164 395 l 1,1,-1
 164 384 l 1,2,-1
 137 384 l 1,3,-1
 137 395 l 1,0,-1
110 395 m 1,4,-1
 137 395 l 1,5,-1
 137 384 l 1,6,-1
 110 384 l 1,7,-1
 110 395 l 1,4,-1
137 358 m 1,8,-1
 164 358 l 1,9,-1
 164 347 l 1,10,-1
 137 347 l 1,11,-1
 137 358 l 1,8,-1
110 358 m 1,12,-1
 137 358 l 1,13,-1
 137 347 l 1,14,-1
 110 347 l 1,15,-1
 110 358 l 1,12,-1
137 321 m 1,16,-1
 164 321 l 1,17,-1
 164 311 l 1,18,-1
 137 311 l 1,19,-1
 137 321 l 1,16,-1
110 321 m 1,20,-1
 137 321 l 1,21,-1
 137 311 l 1,22,-1
 110 311 l 1,23,-1
 110 321 l 1,20,-1
110 285 m 1,24,-1
 137 285 l 1,25,-1
 137 274 l 1,26,-1
 110 274 l 1,27,-1
 110 285 l 1,24,-1
82 248 m 1,28,-1
 110 248 l 1,29,-1
 110 237 l 1,30,-1
 82 237 l 1,31,-1
 82 248 l 1,28,-1
EndSplineSet
EndChar

StartChar: parenleft
Encoding: 40 40 11
Width: 246
Flags: W
LayerCount: 2
Fore
SplineSet
137 358 m 1,0,-1
 164 358 l 1,1,-1
 164 347 l 1,2,-1
 137 347 l 1,3,-1
 137 358 l 1,0,-1
110 358 m 1,4,-1
 137 358 l 1,5,-1
 137 347 l 1,6,-1
 110 347 l 1,7,-1
 110 358 l 1,4,-1
82 321 m 1,8,-1
 110 321 l 1,9,-1
 110 310 l 1,10,-1
 82 310 l 1,11,-1
 82 321 l 1,8,-1
55 284 m 1,12,-1
 82 284 l 1,13,-1
 82 273 l 1,14,-1
 55 273 l 1,15,-1
 55 284 l 1,12,-1
55 248 m 1,16,-1
 82 248 l 1,17,-1
 82 237 l 1,18,-1
 55 237 l 1,19,-1
 55 248 l 1,16,-1
55 211 m 1,20,-1
 82 211 l 1,21,-1
 82 200 l 1,22,-1
 55 200 l 1,23,-1
 55 211 l 1,20,-1
55 174 m 1,24,-1
 82 174 l 1,25,-1
 82 163 l 1,26,-1
 55 163 l 1,27,-1
 55 174 l 1,24,-1
55 138 m 1,28,-1
 82 138 l 1,29,-1
 82 127 l 1,30,-1
 55 127 l 1,31,-1
 55 138 l 1,28,-1
82 101 m 1,32,-1
 110 101 l 1,33,-1
 110 90 l 1,34,-1
 82 90 l 1,35,-1
 82 101 l 1,32,-1
137 64 m 1,36,-1
 164 64 l 1,37,-1
 164 53 l 1,38,-1
 137 53 l 1,39,-1
 137 64 l 1,36,-1
110 64 m 1,40,-1
 137 64 l 1,41,-1
 137 53 l 1,42,-1
 110 53 l 1,43,-1
 110 64 l 1,40,-1
EndSplineSet
EndChar

StartChar: parenright
Encoding: 41 41 12
Width: 246
Flags: W
LayerCount: 2
Fore
SplineSet
82 358 m 1,0,-1
 110 358 l 1,1,-1
 110 347 l 1,2,-1
 82 347 l 1,3,-1
 82 358 l 1,0,-1
110 358 m 1,4,-1
 137 358 l 1,5,-1
 137 347 l 1,6,-1
 110 347 l 1,7,-1
 110 358 l 1,4,-1
137 321 m 1,8,-1
 164 321 l 1,9,-1
 164 310 l 1,10,-1
 137 310 l 1,11,-1
 137 321 l 1,8,-1
164 284 m 1,12,-1
 192 284 l 1,13,-1
 192 273 l 1,14,-1
 164 273 l 1,15,-1
 164 284 l 1,12,-1
164 248 m 1,16,-1
 192 248 l 1,17,-1
 192 237 l 1,18,-1
 164 237 l 1,19,-1
 164 248 l 1,16,-1
164 211 m 1,20,-1
 192 211 l 1,21,-1
 192 200 l 1,22,-1
 164 200 l 1,23,-1
 164 211 l 1,20,-1
164 174 m 1,24,-1
 192 174 l 1,25,-1
 192 163 l 1,26,-1
 164 163 l 1,27,-1
 164 174 l 1,24,-1
164 138 m 1,28,-1
 192 138 l 1,29,-1
 192 127 l 1,30,-1
 164 127 l 1,31,-1
 164 138 l 1,28,-1
137 101 m 1,32,-1
 164 101 l 1,33,-1
 164 90 l 1,34,-1
 137 90 l 1,35,-1
 137 101 l 1,32,-1
82 64 m 1,36,-1
 110 64 l 1,37,-1
 110 53 l 1,38,-1
 82 53 l 1,39,-1
 82 64 l 1,36,-1
110 64 m 1,40,-1
 137 64 l 1,41,-1
 137 53 l 1,42,-1
 110 53 l 1,43,-1
 110 64 l 1,40,-1
EndSplineSet
EndChar

StartChar: asterisk
Encoding: 42 42 13
Width: 246
Flags: W
LayerCount: 2
Fore
SplineSet
55 284 m 1,0,-1
 82 284 l 1,1,-1
 82 273 l 1,2,-1
 55 273 l 1,3,-1
 55 284 l 1,0,-1
109 284 m 1,4,-1
 137 284 l 1,5,-1
 137 273 l 1,6,-1
 109 273 l 1,7,-1
 109 284 l 1,4,-1
164 284 m 1,8,-1
 191 284 l 1,9,-1
 191 273 l 1,10,-1
 164 273 l 1,11,-1
 164 284 l 1,8,-1
82 247 m 1,12,-1
 109 247 l 1,13,-1
 109 236 l 1,14,-1
 82 236 l 1,15,-1
 82 247 l 1,12,-1
137 247 m 1,16,-1
 164 247 l 1,17,-1
 164 236 l 1,18,-1
 137 236 l 1,19,-1
 137 247 l 1,16,-1
109 247 m 1,20,-1
 137 247 l 1,21,-1
 137 236 l 1,22,-1
 109 236 l 1,23,-1
 109 247 l 1,20,-1
27 211 m 1,24,-1
 55 211 l 1,25,-1
 55 200 l 1,26,-1
 27 200 l 1,27,-1
 27 211 l 1,24,-1
82 211 m 1,28,-1
 109 211 l 1,29,-1
 109 200 l 1,30,-1
 82 200 l 1,31,-1
 82 211 l 1,28,-1
55 211 m 1,32,-1
 82 211 l 1,33,-1
 82 200 l 1,34,-1
 55 200 l 1,35,-1
 55 211 l 1,32,-1
137 211 m 1,36,-1
 164 211 l 1,37,-1
 164 200 l 1,38,-1
 137 200 l 1,39,-1
 137 211 l 1,36,-1
109 211 m 1,40,-1
 137 211 l 1,41,-1
 137 200 l 1,42,-1
 109 200 l 1,43,-1
 109 211 l 1,40,-1
191 211 m 1,44,-1
 219 211 l 1,45,-1
 219 200 l 1,46,-1
 191 200 l 1,47,-1
 191 211 l 1,44,-1
164 211 m 1,48,-1
 191 211 l 1,49,-1
 191 200 l 1,50,-1
 164 200 l 1,51,-1
 164 211 l 1,48,-1
82 174 m 1,52,-1
 109 174 l 1,53,-1
 109 163 l 1,54,-1
 82 163 l 1,55,-1
 82 174 l 1,52,-1
137 174 m 1,56,-1
 164 174 l 1,57,-1
 164 163 l 1,58,-1
 137 163 l 1,59,-1
 137 174 l 1,56,-1
109 174 m 1,60,-1
 137 174 l 1,61,-1
 137 163 l 1,62,-1
 109 163 l 1,63,-1
 109 174 l 1,60,-1
55 137 m 1,64,-1
 82 137 l 1,65,-1
 82 126 l 1,66,-1
 55 126 l 1,67,-1
 55 137 l 1,64,-1
109 137 m 1,68,-1
 137 137 l 1,69,-1
 137 126 l 1,70,-1
 109 126 l 1,71,-1
 109 137 l 1,68,-1
164 137 m 1,72,-1
 191 137 l 1,73,-1
 191 126 l 1,74,-1
 164 126 l 1,75,-1
 164 137 l 1,72,-1
EndSplineSet
EndChar

StartChar: plus
Encoding: 43 43 14
Width: 246
Flags: W
LayerCount: 2
Fore
SplineSet
110 322 m 1,0,-1
 137 322 l 1,1,-1
 137 311 l 1,2,-1
 110 311 l 1,3,-1
 110 322 l 1,0,-1
110 285 m 1,4,-1
 137 285 l 1,5,-1
 137 274 l 1,6,-1
 110 274 l 1,7,-1
 110 285 l 1,4,-1
110 248 m 1,8,-1
 137 248 l 1,9,-1
 137 237 l 1,10,-1
 110 237 l 1,11,-1
 110 248 l 1,8,-1
82 212 m 1,12,-1
 110 212 l 1,13,-1
 110 201 l 1,14,-1
 82 201 l 1,15,-1
 82 212 l 1,12,-1
55 212 m 1,16,-1
 82 212 l 1,17,-1
 82 201 l 1,18,-1
 55 201 l 1,19,-1
 55 212 l 1,16,-1
137 212 m 1,20,-1
 164 212 l 1,21,-1
 164 201 l 1,22,-1
 137 201 l 1,23,-1
 137 212 l 1,20,-1
110 212 m 1,24,-1
 137 212 l 1,25,-1
 137 201 l 1,26,-1
 110 201 l 1,27,-1
 110 212 l 1,24,-1
164 212 m 1,28,-1
 192 212 l 1,29,-1
 192 201 l 1,30,-1
 164 201 l 1,31,-1
 164 212 l 1,28,-1
110 175 m 1,32,-1
 137 175 l 1,33,-1
 137 164 l 1,34,-1
 110 164 l 1,35,-1
 110 175 l 1,32,-1
110 138 m 1,36,-1
 137 138 l 1,37,-1
 137 127 l 1,38,-1
 110 127 l 1,39,-1
 110 138 l 1,36,-1
110 101 m 1,40,-1
 137 101 l 1,41,-1
 137 90 l 1,42,-1
 110 90 l 1,43,-1
 110 101 l 1,40,-1
EndSplineSet
EndChar

StartChar: comma
Encoding: 44 44 15
Width: 246
Flags: W
LayerCount: 2
Fore
SplineSet
137 89 m 1,0,-1
 164 89 l 1,1,-1
 164 78 l 1,2,-1
 137 78 l 1,3,-1
 137 89 l 1,0,-1
110 89 m 1,4,-1
 137 89 l 1,5,-1
 137 78 l 1,6,-1
 110 78 l 1,7,-1
 110 89 l 1,4,-1
137 52 m 1,8,-1
 164 52 l 1,9,-1
 164 41 l 1,10,-1
 137 41 l 1,11,-1
 137 52 l 1,8,-1
110 52 m 1,12,-1
 137 52 l 1,13,-1
 137 41 l 1,14,-1
 110 41 l 1,15,-1
 110 52 l 1,12,-1
110 16 m 1,16,-1
 137 16 l 1,17,-1
 137 5 l 1,18,-1
 110 5 l 1,19,-1
 110 16 l 1,16,-1
82 -21 m 1,20,-1
 110 -21 l 1,21,-1
 110 -32 l 1,22,-1
 82 -32 l 1,23,-1
 82 -21 l 1,20,-1
EndSplineSet
EndChar

StartChar: hyphen
Encoding: 45 45 16
Width: 246
Flags: W
LayerCount: 2
Fore
SplineSet
82 211 m 1,0,-1
 109 211 l 1,1,-1
 109 200 l 1,2,-1
 82 200 l 1,3,-1
 82 211 l 1,0,-1
55 211 m 1,4,-1
 82 211 l 1,5,-1
 82 200 l 1,6,-1
 55 200 l 1,7,-1
 55 211 l 1,4,-1
137 211 m 1,8,-1
 164 211 l 1,9,-1
 164 200 l 1,10,-1
 137 200 l 1,11,-1
 137 211 l 1,8,-1
109 211 m 1,12,-1
 137 211 l 1,13,-1
 137 200 l 1,14,-1
 109 200 l 1,15,-1
 109 211 l 1,12,-1
164 211 m 1,16,-1
 191 211 l 1,17,-1
 191 200 l 1,18,-1
 164 200 l 1,19,-1
 164 211 l 1,16,-1
EndSplineSet
EndChar

StartChar: period
Encoding: 46 46 17
Width: 246
Flags: W
LayerCount: 2
Fore
SplineSet
137 101 m 1,0,-1
 164 101 l 1,1,-1
 164 90 l 1,2,-1
 137 90 l 1,3,-1
 137 101 l 1,0,-1
109 101 m 1,4,-1
 137 101 l 1,5,-1
 137 90 l 1,6,-1
 109 90 l 1,7,-1
 109 101 l 1,4,-1
137 65 m 1,8,-1
 164 65 l 1,9,-1
 164 54 l 1,10,-1
 137 54 l 1,11,-1
 137 65 l 1,8,-1
109 65 m 1,12,-1
 137 65 l 1,13,-1
 137 54 l 1,14,-1
 109 54 l 1,15,-1
 109 65 l 1,12,-1
EndSplineSet
EndChar

StartChar: slash
Encoding: 47 47 18
Width: 246
Flags: W
LayerCount: 2
Fore
SplineSet
192 321 m 1,0,-1
 219 321 l 1,1,-1
 219 310 l 1,2,-1
 192 310 l 1,3,-1
 192 321 l 1,0,-1
164 284 m 1,4,-1
 192 284 l 1,5,-1
 192 273 l 1,6,-1
 164 273 l 1,7,-1
 164 284 l 1,4,-1
137 248 m 1,8,-1
 164 248 l 1,9,-1
 164 237 l 1,10,-1
 137 237 l 1,11,-1
 137 248 l 1,8,-1
110 211 m 1,12,-1
 137 211 l 1,13,-1
 137 200 l 1,14,-1
 110 200 l 1,15,-1
 110 211 l 1,12,-1
82 174 m 1,16,-1
 110 174 l 1,17,-1
 110 163 l 1,18,-1
 82 163 l 1,19,-1
 82 174 l 1,16,-1
55 138 m 1,20,-1
 82 138 l 1,21,-1
 82 127 l 1,22,-1
 55 127 l 1,23,-1
 55 138 l 1,20,-1
28 101 m 1,24,-1
 55 101 l 1,25,-1
 55 90 l 1,26,-1
 28 90 l 1,27,-1
 28 101 l 1,24,-1
EndSplineSet
EndChar

StartChar: zero
Encoding: 48 48 19
Width: 246
Flags: W
LayerCount: 2
Fore
SplineSet
82 358 m 1,0,-1
 110 358 l 1,1,-1
 110 347 l 1,2,-1
 82 347 l 1,3,-1
 82 358 l 1,0,-1
137 358 m 1,4,-1
 164 358 l 1,5,-1
 164 347 l 1,6,-1
 137 347 l 1,7,-1
 137 358 l 1,4,-1
109 358 m 1,8,-1
 137 358 l 1,9,-1
 137 347 l 1,10,-1
 109 347 l 1,11,-1
 109 358 l 1,8,-1
55 321 m 1,12,-1
 82 321 l 1,13,-1
 82 310 l 1,14,-1
 55 310 l 1,15,-1
 55 321 l 1,12,-1
164 321 m 1,16,-1
 192 321 l 1,17,-1
 192 310 l 1,18,-1
 164 310 l 1,19,-1
 164 321 l 1,16,-1
55 101 m 1,20,-1
 82 101 l 1,21,-1
 82 90 l 1,22,-1
 55 90 l 1,23,-1
 55 101 l 1,20,-1
164 101 m 1,24,-1
 192 101 l 1,25,-1
 192 90 l 1,26,-1
 164 90 l 1,27,-1
 164 101 l 1,24,-1
82 64 m 1,28,-1
 110 64 l 1,29,-1
 110 53 l 1,30,-1
 82 53 l 1,31,-1
 82 64 l 1,28,-1
137 64 m 1,32,-1
 164 64 l 1,33,-1
 164 53 l 1,34,-1
 137 53 l 1,35,-1
 137 64 l 1,32,-1
109 64 m 1,36,-1
 137 64 l 1,37,-1
 137 53 l 1,38,-1
 109 53 l 1,39,-1
 109 64 l 1,36,-1
27 285 m 1,40,-1
 55 285 l 1,41,-1
 55 274 l 1,42,-1
 27 274 l 1,43,-1
 27 285 l 1,40,-1
192 285 m 1,44,-1
 219 285 l 1,45,-1
 219 274 l 1,46,-1
 192 274 l 1,47,-1
 192 285 l 1,44,-1
27 248 m 1,48,-1
 55 248 l 1,49,-1
 55 237 l 1,50,-1
 27 237 l 1,51,-1
 27 248 l 1,48,-1
192 248 m 1,52,-1
 219 248 l 1,53,-1
 219 237 l 1,54,-1
 192 237 l 1,55,-1
 192 248 l 1,52,-1
27 211 m 1,56,-1
 55 211 l 1,57,-1
 55 200 l 1,58,-1
 27 200 l 1,59,-1
 27 211 l 1,56,-1
109 211 m 1,60,-1
 137 211 l 1,61,-1
 137 200 l 1,62,-1
 109 200 l 1,63,-1
 109 211 l 1,60,-1
192 211 m 1,64,-1
 219 211 l 1,65,-1
 219 200 l 1,66,-1
 192 200 l 1,67,-1
 192 211 l 1,64,-1
27 174 m 1,68,-1
 55 174 l 1,69,-1
 55 163 l 1,70,-1
 27 163 l 1,71,-1
 27 174 l 1,68,-1
192 174 m 1,72,-1
 219 174 l 1,73,-1
 219 163 l 1,74,-1
 192 163 l 1,75,-1
 192 174 l 1,72,-1
27 138 m 1,76,-1
 55 138 l 1,77,-1
 55 127 l 1,78,-1
 27 127 l 1,79,-1
 27 138 l 1,76,-1
192 138 m 1,80,-1
 219 138 l 1,81,-1
 219 127 l 1,82,-1
 192 127 l 1,83,-1
 192 138 l 1,80,-1
EndSplineSet
EndChar

StartChar: one
Encoding: 49 49 20
Width: 246
Flags: W
LayerCount: 2
Fore
SplineSet
109 358 m 1,0,-1
 137 358 l 1,1,-1
 137 347 l 1,2,-1
 109 347 l 1,3,-1
 109 358 l 1,0,-1
82 321 m 1,4,-1
 110 321 l 1,5,-1
 110 310 l 1,6,-1
 82 310 l 1,7,-1
 82 321 l 1,4,-1
109 321 m 1,8,-1
 137 321 l 1,9,-1
 137 310 l 1,10,-1
 109 310 l 1,11,-1
 109 321 l 1,8,-1
82 285 m 1,12,-1
 110 285 l 1,13,-1
 110 274 l 1,14,-1
 82 274 l 1,15,-1
 82 285 l 1,12,-1
55 285 m 1,16,-1
 82 285 l 1,17,-1
 82 274 l 1,18,-1
 55 274 l 1,19,-1
 55 285 l 1,16,-1
109 285 m 1,20,-1
 137 285 l 1,21,-1
 137 274 l 1,22,-1
 109 274 l 1,23,-1
 109 285 l 1,20,-1
109 248 m 1,24,-1
 137 248 l 1,25,-1
 137 237 l 1,26,-1
 109 237 l 1,27,-1
 109 248 l 1,24,-1
109 211 m 1,28,-1
 137 211 l 1,29,-1
 137 200 l 1,30,-1
 109 200 l 1,31,-1
 109 211 l 1,28,-1
109 174 m 1,32,-1
 137 174 l 1,33,-1
 137 163 l 1,34,-1
 109 163 l 1,35,-1
 109 174 l 1,32,-1
109 138 m 1,36,-1
 137 138 l 1,37,-1
 137 127 l 1,38,-1
 109 127 l 1,39,-1
 109 138 l 1,36,-1
109 101 m 1,40,-1
 137 101 l 1,41,-1
 137 90 l 1,42,-1
 109 90 l 1,43,-1
 109 101 l 1,40,-1
82 64 m 1,44,-1
 110 64 l 1,45,-1
 110 53 l 1,46,-1
 82 53 l 1,47,-1
 82 64 l 1,44,-1
137 64 m 1,48,-1
 164 64 l 1,49,-1
 164 53 l 1,50,-1
 137 53 l 1,51,-1
 137 64 l 1,48,-1
109 64 m 1,52,-1
 137 64 l 1,53,-1
 137 53 l 1,54,-1
 109 53 l 1,55,-1
 109 64 l 1,52,-1
EndSplineSet
EndChar

StartChar: two
Encoding: 50 50 21
Width: 246
Flags: W
LayerCount: 2
Fore
SplineSet
82 358 m 1,0,-1
 110 358 l 1,1,-1
 110 347 l 1,2,-1
 82 347 l 1,3,-1
 82 358 l 1,0,-1
55 358 m 1,4,-1
 82 358 l 1,5,-1
 82 347 l 1,6,-1
 55 347 l 1,7,-1
 55 358 l 1,4,-1
137 358 m 1,8,-1
 164 358 l 1,9,-1
 164 347 l 1,10,-1
 137 347 l 1,11,-1
 137 358 l 1,8,-1
109 358 m 1,12,-1
 137 358 l 1,13,-1
 137 347 l 1,14,-1
 109 347 l 1,15,-1
 109 358 l 1,12,-1
164 358 m 1,16,-1
 192 358 l 1,17,-1
 192 347 l 1,18,-1
 164 347 l 1,19,-1
 164 358 l 1,16,-1
27 321 m 1,20,-1
 55 321 l 1,21,-1
 55 310 l 1,22,-1
 27 310 l 1,23,-1
 27 321 l 1,20,-1
192 321 m 1,24,-1
 219 321 l 1,25,-1
 219 310 l 1,26,-1
 192 310 l 1,27,-1
 192 321 l 1,24,-1
192 285 m 1,28,-1
 219 285 l 1,29,-1
 219 274 l 1,30,-1
 192 274 l 1,31,-1
 192 285 l 1,28,-1
164 248 m 1,32,-1
 192 248 l 1,33,-1
 192 237 l 1,34,-1
 164 237 l 1,35,-1
 164 248 l 1,32,-1
137 211 m 1,36,-1
 164 211 l 1,37,-1
 164 200 l 1,38,-1
 137 200 l 1,39,-1
 137 211 l 1,36,-1
109 174 m 1,40,-1
 137 174 l 1,41,-1
 137 163 l 1,42,-1
 109 163 l 1,43,-1
 109 174 l 1,40,-1
82 138 m 1,44,-1
 109 138 l 1,45,-1
 109 127 l 1,46,-1
 82 127 l 1,47,-1
 82 138 l 1,44,-1
55 101 m 1,48,-1
 82 101 l 1,49,-1
 82 90 l 1,50,-1
 55 90 l 1,51,-1
 55 101 l 1,48,-1
27 64 m 1,52,-1
 55 64 l 1,53,-1
 55 53 l 1,54,-1
 27 53 l 1,55,-1
 27 64 l 1,52,-1
82 64 m 1,56,-1
 110 64 l 1,57,-1
 110 53 l 1,58,-1
 82 53 l 1,59,-1
 82 64 l 1,56,-1
55 64 m 1,60,-1
 82 64 l 1,61,-1
 82 53 l 1,62,-1
 55 53 l 1,63,-1
 55 64 l 1,60,-1
137 64 m 1,64,-1
 164 64 l 1,65,-1
 164 53 l 1,66,-1
 137 53 l 1,67,-1
 137 64 l 1,64,-1
109 64 m 1,68,-1
 137 64 l 1,69,-1
 137 53 l 1,70,-1
 109 53 l 1,71,-1
 109 64 l 1,68,-1
192 64 m 1,72,-1
 219 64 l 1,73,-1
 219 53 l 1,74,-1
 192 53 l 1,75,-1
 192 64 l 1,72,-1
164 64 m 1,76,-1
 192 64 l 1,77,-1
 192 53 l 1,78,-1
 164 53 l 1,79,-1
 164 64 l 1,76,-1
EndSplineSet
EndChar

StartChar: three
Encoding: 51 51 22
Width: 246
Flags: W
LayerCount: 2
Fore
SplineSet
82 358 m 1,0,-1
 110 358 l 1,1,-1
 110 347 l 1,2,-1
 82 347 l 1,3,-1
 82 358 l 1,0,-1
55 358 m 1,4,-1
 82 358 l 1,5,-1
 82 347 l 1,6,-1
 55 347 l 1,7,-1
 55 358 l 1,4,-1
137 358 m 1,8,-1
 164 358 l 1,9,-1
 164 347 l 1,10,-1
 137 347 l 1,11,-1
 137 358 l 1,8,-1
109 358 m 1,12,-1
 137 358 l 1,13,-1
 137 347 l 1,14,-1
 109 347 l 1,15,-1
 109 358 l 1,12,-1
164 358 m 1,16,-1
 192 358 l 1,17,-1
 192 347 l 1,18,-1
 164 347 l 1,19,-1
 164 358 l 1,16,-1
27 321 m 1,20,-1
 55 321 l 1,21,-1
 55 310 l 1,22,-1
 27 310 l 1,23,-1
 27 321 l 1,20,-1
192 321 m 1,24,-1
 219 321 l 1,25,-1
 219 310 l 1,26,-1
 192 310 l 1,27,-1
 192 321 l 1,24,-1
192 285 m 1,28,-1
 219 285 l 1,29,-1
 219 274 l 1,30,-1
 192 274 l 1,31,-1
 192 285 l 1,28,-1
192 248 m 1,32,-1
 219 248 l 1,33,-1
 219 237 l 1,34,-1
 192 237 l 1,35,-1
 192 248 l 1,32,-1
82 211 m 1,36,-1
 110 211 l 1,37,-1
 110 200 l 1,38,-1
 82 200 l 1,39,-1
 82 211 l 1,36,-1
137 211 m 1,40,-1
 164 211 l 1,41,-1
 164 200 l 1,42,-1
 137 200 l 1,43,-1
 137 211 l 1,40,-1
109 211 m 1,44,-1
 137 211 l 1,45,-1
 137 200 l 1,46,-1
 109 200 l 1,47,-1
 109 211 l 1,44,-1
164 211 m 1,48,-1
 192 211 l 1,49,-1
 192 200 l 1,50,-1
 164 200 l 1,51,-1
 164 211 l 1,48,-1
192 174 m 1,52,-1
 219 174 l 1,53,-1
 219 163 l 1,54,-1
 192 163 l 1,55,-1
 192 174 l 1,52,-1
192 138 m 1,56,-1
 219 138 l 1,57,-1
 219 127 l 1,58,-1
 192 127 l 1,59,-1
 192 138 l 1,56,-1
27 101 m 1,60,-1
 55 101 l 1,61,-1
 55 90 l 1,62,-1
 27 90 l 1,63,-1
 27 101 l 1,60,-1
192 101 m 1,64,-1
 219 101 l 1,65,-1
 219 90 l 1,66,-1
 192 90 l 1,67,-1
 192 101 l 1,64,-1
82 64 m 1,68,-1
 110 64 l 1,69,-1
 110 53 l 1,70,-1
 82 53 l 1,71,-1
 82 64 l 1,68,-1
55 64 m 1,72,-1
 82 64 l 1,73,-1
 82 53 l 1,74,-1
 55 53 l 1,75,-1
 55 64 l 1,72,-1
137 64 m 1,76,-1
 164 64 l 1,77,-1
 164 53 l 1,78,-1
 137 53 l 1,79,-1
 137 64 l 1,76,-1
109 64 m 1,80,-1
 137 64 l 1,81,-1
 137 53 l 1,82,-1
 109 53 l 1,83,-1
 109 64 l 1,80,-1
164 64 m 1,84,-1
 192 64 l 1,85,-1
 192 53 l 1,86,-1
 164 53 l 1,87,-1
 164 64 l 1,84,-1
EndSplineSet
EndChar

StartChar: four
Encoding: 52 52 23
Width: 246
Flags: W
LayerCount: 2
Fore
SplineSet
164 358 m 1,0,-1
 192 358 l 1,1,-1
 192 347 l 1,2,-1
 164 347 l 1,3,-1
 164 358 l 1,0,-1
137 321 m 1,4,-1
 164 321 l 1,5,-1
 164 310 l 1,6,-1
 137 310 l 1,7,-1
 137 321 l 1,4,-1
109 285 m 1,8,-1
 137 285 l 1,9,-1
 137 274 l 1,10,-1
 109 274 l 1,11,-1
 109 285 l 1,8,-1
82 248 m 1,12,-1
 110 248 l 1,13,-1
 110 237 l 1,14,-1
 82 237 l 1,15,-1
 82 248 l 1,12,-1
164 248 m 1,16,-1
 192 248 l 1,17,-1
 192 237 l 1,18,-1
 164 237 l 1,19,-1
 164 248 l 1,16,-1
55 211 m 1,20,-1
 82 211 l 1,21,-1
 82 200 l 1,22,-1
 55 200 l 1,23,-1
 55 211 l 1,20,-1
164 211 m 1,24,-1
 192 211 l 1,25,-1
 192 200 l 1,26,-1
 164 200 l 1,27,-1
 164 211 l 1,24,-1
27 174 m 1,28,-1
 55 174 l 1,29,-1
 55 163 l 1,30,-1
 27 163 l 1,31,-1
 27 174 l 1,28,-1
82 174 m 1,32,-1
 110 174 l 1,33,-1
 110 163 l 1,34,-1
 82 163 l 1,35,-1
 82 174 l 1,32,-1
55 174 m 1,36,-1
 82 174 l 1,37,-1
 82 163 l 1,38,-1
 55 163 l 1,39,-1
 55 174 l 1,36,-1
137 174 m 1,40,-1
 164 174 l 1,41,-1
 164 163 l 1,42,-1
 137 163 l 1,43,-1
 137 174 l 1,40,-1
109 174 m 1,44,-1
 137 174 l 1,45,-1
 137 163 l 1,46,-1
 109 163 l 1,47,-1
 109 174 l 1,44,-1
192 174 m 1,48,-1
 219 174 l 1,49,-1
 219 163 l 1,50,-1
 192 163 l 1,51,-1
 192 174 l 1,48,-1
164 174 m 1,52,-1
 192 174 l 1,53,-1
 192 163 l 1,54,-1
 164 163 l 1,55,-1
 164 174 l 1,52,-1
164 138 m 1,56,-1
 192 138 l 1,57,-1
 192 127 l 1,58,-1
 164 127 l 1,59,-1
 164 138 l 1,56,-1
164 101 m 1,60,-1
 192 101 l 1,61,-1
 192 90 l 1,62,-1
 164 90 l 1,63,-1
 164 101 l 1,60,-1
164 64 m 1,64,-1
 192 64 l 1,65,-1
 192 53 l 1,66,-1
 164 53 l 1,67,-1
 164 64 l 1,64,-1
EndSplineSet
EndChar

StartChar: five
Encoding: 53 53 24
Width: 246
Flags: W
LayerCount: 2
Fore
SplineSet
27 358 m 1,0,-1
 55 358 l 1,1,-1
 55 347 l 1,2,-1
 27 347 l 1,3,-1
 27 358 l 1,0,-1
82 358 m 1,4,-1
 110 358 l 1,5,-1
 110 347 l 1,6,-1
 82 347 l 1,7,-1
 82 358 l 1,4,-1
55 358 m 1,8,-1
 82 358 l 1,9,-1
 82 347 l 1,10,-1
 55 347 l 1,11,-1
 55 358 l 1,8,-1
137 358 m 1,12,-1
 164 358 l 1,13,-1
 164 347 l 1,14,-1
 137 347 l 1,15,-1
 137 358 l 1,12,-1
109 358 m 1,16,-1
 137 358 l 1,17,-1
 137 347 l 1,18,-1
 109 347 l 1,19,-1
 109 358 l 1,16,-1
192 358 m 1,20,-1
 219 358 l 1,21,-1
 219 347 l 1,22,-1
 192 347 l 1,23,-1
 192 358 l 1,20,-1
164 358 m 1,24,-1
 192 358 l 1,25,-1
 192 347 l 1,26,-1
 164 347 l 1,27,-1
 164 358 l 1,24,-1
27 321 m 1,28,-1
 55 321 l 1,29,-1
 55 310 l 1,30,-1
 27 310 l 1,31,-1
 27 321 l 1,28,-1
27 285 m 1,32,-1
 55 285 l 1,33,-1
 55 274 l 1,34,-1
 27 274 l 1,35,-1
 27 285 l 1,32,-1
27 248 m 1,36,-1
 55 248 l 1,37,-1
 55 237 l 1,38,-1
 27 237 l 1,39,-1
 27 248 l 1,36,-1
82 248 m 1,40,-1
 110 248 l 1,41,-1
 110 237 l 1,42,-1
 82 237 l 1,43,-1
 82 248 l 1,40,-1
55 248 m 1,44,-1
 82 248 l 1,45,-1
 82 237 l 1,46,-1
 55 237 l 1,47,-1
 55 248 l 1,44,-1
137 248 m 1,48,-1
 164 248 l 1,49,-1
 164 237 l 1,50,-1
 137 237 l 1,51,-1
 137 248 l 1,48,-1
109 248 m 1,52,-1
 137 248 l 1,53,-1
 137 237 l 1,54,-1
 109 237 l 1,55,-1
 109 248 l 1,52,-1
164 248 m 1,56,-1
 192 248 l 1,57,-1
 192 237 l 1,58,-1
 164 237 l 1,59,-1
 164 248 l 1,56,-1
192 211 m 1,60,-1
 219 211 l 1,61,-1
 219 200 l 1,62,-1
 192 200 l 1,63,-1
 192 211 l 1,60,-1
192 174 m 1,64,-1
 219 174 l 1,65,-1
 219 163 l 1,66,-1
 192 163 l 1,67,-1
 192 174 l 1,64,-1
192 138 m 1,68,-1
 219 138 l 1,69,-1
 219 127 l 1,70,-1
 192 127 l 1,71,-1
 192 138 l 1,68,-1
27 101 m 1,72,-1
 55 101 l 1,73,-1
 55 90 l 1,74,-1
 27 90 l 1,75,-1
 27 101 l 1,72,-1
192 101 m 1,76,-1
 219 101 l 1,77,-1
 219 90 l 1,78,-1
 192 90 l 1,79,-1
 192 101 l 1,76,-1
82 64 m 1,80,-1
 110 64 l 1,81,-1
 110 53 l 1,82,-1
 82 53 l 1,83,-1
 82 64 l 1,80,-1
55 64 m 1,84,-1
 82 64 l 1,85,-1
 82 53 l 1,86,-1
 55 53 l 1,87,-1
 55 64 l 1,84,-1
137 64 m 1,88,-1
 164 64 l 1,89,-1
 164 53 l 1,90,-1
 137 53 l 1,91,-1
 137 64 l 1,88,-1
109 64 m 1,92,-1
 137 64 l 1,93,-1
 137 53 l 1,94,-1
 109 53 l 1,95,-1
 109 64 l 1,92,-1
164 64 m 1,96,-1
 192 64 l 1,97,-1
 192 53 l 1,98,-1
 164 53 l 1,99,-1
 164 64 l 1,96,-1
EndSplineSet
EndChar

StartChar: six
Encoding: 54 54 25
Width: 246
Flags: W
LayerCount: 2
Fore
SplineSet
82 358 m 1,0,-1
 110 358 l 1,1,-1
 110 347 l 1,2,-1
 82 347 l 1,3,-1
 82 358 l 1,0,-1
55 358 m 1,4,-1
 82 358 l 1,5,-1
 82 347 l 1,6,-1
 55 347 l 1,7,-1
 55 358 l 1,4,-1
137 358 m 1,8,-1
 164 358 l 1,9,-1
 164 347 l 1,10,-1
 137 347 l 1,11,-1
 137 358 l 1,8,-1
109 358 m 1,12,-1
 137 358 l 1,13,-1
 137 347 l 1,14,-1
 109 347 l 1,15,-1
 109 358 l 1,12,-1
164 358 m 1,16,-1
 192 358 l 1,17,-1
 192 347 l 1,18,-1
 164 347 l 1,19,-1
 164 358 l 1,16,-1
27 321 m 1,20,-1
 55 321 l 1,21,-1
 55 310 l 1,22,-1
 27 310 l 1,23,-1
 27 321 l 1,20,-1
27 285 m 1,24,-1
 55 285 l 1,25,-1
 55 274 l 1,26,-1
 27 274 l 1,27,-1
 27 285 l 1,24,-1
27 248 m 1,28,-1
 55 248 l 1,29,-1
 55 237 l 1,30,-1
 27 237 l 1,31,-1
 27 248 l 1,28,-1
27 211 m 1,32,-1
 55 211 l 1,33,-1
 55 200 l 1,34,-1
 27 200 l 1,35,-1
 27 211 l 1,32,-1
82 211 m 1,36,-1
 110 211 l 1,37,-1
 110 200 l 1,38,-1
 82 200 l 1,39,-1
 82 211 l 1,36,-1
55 211 m 1,40,-1
 82 211 l 1,41,-1
 82 200 l 1,42,-1
 55 200 l 1,43,-1
 55 211 l 1,40,-1
137 211 m 1,44,-1
 164 211 l 1,45,-1
 164 200 l 1,46,-1
 137 200 l 1,47,-1
 137 211 l 1,44,-1
109 211 m 1,48,-1
 137 211 l 1,49,-1
 137 200 l 1,50,-1
 109 200 l 1,51,-1
 109 211 l 1,48,-1
164 211 m 1,52,-1
 192 211 l 1,53,-1
 192 200 l 1,54,-1
 164 200 l 1,55,-1
 164 211 l 1,52,-1
28 174 m 1,56,-1
 55 174 l 1,57,-1
 55 163 l 1,58,-1
 28 163 l 1,59,-1
 28 174 l 1,56,-1
191 174 m 1,60,-1
 219 174 l 1,61,-1
 219 163 l 1,62,-1
 191 163 l 1,63,-1
 191 174 l 1,60,-1
27 138 m 1,64,-1
 55 138 l 1,65,-1
 55 127 l 1,66,-1
 27 127 l 1,67,-1
 27 138 l 1,64,-1
192 138 m 1,68,-1
 219 138 l 1,69,-1
 219 127 l 1,70,-1
 192 127 l 1,71,-1
 192 138 l 1,68,-1
27 101 m 1,72,-1
 55 101 l 1,73,-1
 55 90 l 1,74,-1
 27 90 l 1,75,-1
 27 101 l 1,72,-1
192 101 m 1,76,-1
 219 101 l 1,77,-1
 219 90 l 1,78,-1
 192 90 l 1,79,-1
 192 101 l 1,76,-1
82 64 m 1,80,-1
 110 64 l 1,81,-1
 110 53 l 1,82,-1
 82 53 l 1,83,-1
 82 64 l 1,80,-1
55 64 m 1,84,-1
 82 64 l 1,85,-1
 82 53 l 1,86,-1
 55 53 l 1,87,-1
 55 64 l 1,84,-1
137 64 m 1,88,-1
 164 64 l 1,89,-1
 164 53 l 1,90,-1
 137 53 l 1,91,-1
 137 64 l 1,88,-1
109 64 m 1,92,-1
 137 64 l 1,93,-1
 137 53 l 1,94,-1
 109 53 l 1,95,-1
 109 64 l 1,92,-1
164 64 m 1,96,-1
 192 64 l 1,97,-1
 192 53 l 1,98,-1
 164 53 l 1,99,-1
 164 64 l 1,96,-1
EndSplineSet
EndChar

StartChar: seven
Encoding: 55 55 26
Width: 246
Flags: W
LayerCount: 2
Fore
SplineSet
27 358 m 1,0,-1
 55 358 l 1,1,-1
 55 347 l 1,2,-1
 27 347 l 1,3,-1
 27 358 l 1,0,-1
82 358 m 1,4,-1
 110 358 l 1,5,-1
 110 347 l 1,6,-1
 82 347 l 1,7,-1
 82 358 l 1,4,-1
55 358 m 1,8,-1
 82 358 l 1,9,-1
 82 347 l 1,10,-1
 55 347 l 1,11,-1
 55 358 l 1,8,-1
137 358 m 1,12,-1
 164 358 l 1,13,-1
 164 347 l 1,14,-1
 137 347 l 1,15,-1
 137 358 l 1,12,-1
109 358 m 1,16,-1
 137 358 l 1,17,-1
 137 347 l 1,18,-1
 109 347 l 1,19,-1
 109 358 l 1,16,-1
192 358 m 1,20,-1
 219 358 l 1,21,-1
 219 347 l 1,22,-1
 192 347 l 1,23,-1
 192 358 l 1,20,-1
164 358 m 1,24,-1
 192 358 l 1,25,-1
 192 347 l 1,26,-1
 164 347 l 1,27,-1
 164 358 l 1,24,-1
192 321 m 1,28,-1
 219 321 l 1,29,-1
 219 310 l 1,30,-1
 192 310 l 1,31,-1
 192 321 l 1,28,-1
192 285 m 1,32,-1
 219 285 l 1,33,-1
 219 274 l 1,34,-1
 192 274 l 1,35,-1
 192 285 l 1,32,-1
164 248 m 1,36,-1
 192 248 l 1,37,-1
 192 237 l 1,38,-1
 164 237 l 1,39,-1
 164 248 l 1,36,-1
137 211 m 1,40,-1
 164 211 l 1,41,-1
 164 200 l 1,42,-1
 137 200 l 1,43,-1
 137 211 l 1,40,-1
109 174 m 1,44,-1
 137 174 l 1,45,-1
 137 163 l 1,46,-1
 109 163 l 1,47,-1
 109 174 l 1,44,-1
109 138 m 1,48,-1
 137 138 l 1,49,-1
 137 127 l 1,50,-1
 109 127 l 1,51,-1
 109 138 l 1,48,-1
109 101 m 1,52,-1
 137 101 l 1,53,-1
 137 90 l 1,54,-1
 109 90 l 1,55,-1
 109 101 l 1,52,-1
109 64 m 1,56,-1
 137 64 l 1,57,-1
 137 53 l 1,58,-1
 109 53 l 1,59,-1
 109 64 l 1,56,-1
EndSplineSet
EndChar

StartChar: eight
Encoding: 56 56 27
Width: 246
Flags: W
LayerCount: 2
Fore
SplineSet
82 358 m 1,0,-1
 109 358 l 1,1,-1
 109 347 l 1,2,-1
 82 347 l 1,3,-1
 82 358 l 1,0,-1
55 358 m 1,4,-1
 82 358 l 1,5,-1
 82 347 l 1,6,-1
 55 347 l 1,7,-1
 55 358 l 1,4,-1
137 358 m 1,8,-1
 164 358 l 1,9,-1
 164 347 l 1,10,-1
 137 347 l 1,11,-1
 137 358 l 1,8,-1
109 358 m 1,12,-1
 137 358 l 1,13,-1
 137 347 l 1,14,-1
 109 347 l 1,15,-1
 109 358 l 1,12,-1
164 358 m 1,16,-1
 192 358 l 1,17,-1
 192 347 l 1,18,-1
 164 347 l 1,19,-1
 164 358 l 1,16,-1
27 321 m 1,20,-1
 55 321 l 1,21,-1
 55 310 l 1,22,-1
 27 310 l 1,23,-1
 27 321 l 1,20,-1
191 321 m 1,24,-1
 219 321 l 1,25,-1
 219 310 l 1,26,-1
 191 310 l 1,27,-1
 191 321 l 1,24,-1
27 285 m 1,28,-1
 55 285 l 1,29,-1
 55 274 l 1,30,-1
 27 274 l 1,31,-1
 27 285 l 1,28,-1
191 285 m 1,32,-1
 219 285 l 1,33,-1
 219 274 l 1,34,-1
 191 274 l 1,35,-1
 191 285 l 1,32,-1
27 248 m 1,36,-1
 55 248 l 1,37,-1
 55 237 l 1,38,-1
 27 237 l 1,39,-1
 27 248 l 1,36,-1
191 248 m 1,40,-1
 219 248 l 1,41,-1
 219 237 l 1,42,-1
 191 237 l 1,43,-1
 191 248 l 1,40,-1
82 211 m 1,44,-1
 109 211 l 1,45,-1
 109 200 l 1,46,-1
 82 200 l 1,47,-1
 82 211 l 1,44,-1
55 211 m 1,48,-1
 82 211 l 1,49,-1
 82 200 l 1,50,-1
 55 200 l 1,51,-1
 55 211 l 1,48,-1
137 211 m 1,52,-1
 164 211 l 1,53,-1
 164 200 l 1,54,-1
 137 200 l 1,55,-1
 137 211 l 1,52,-1
109 211 m 1,56,-1
 137 211 l 1,57,-1
 137 200 l 1,58,-1
 109 200 l 1,59,-1
 109 211 l 1,56,-1
164 211 m 1,60,-1
 192 211 l 1,61,-1
 192 200 l 1,62,-1
 164 200 l 1,63,-1
 164 211 l 1,60,-1
27 174 m 1,64,-1
 55 174 l 1,65,-1
 55 163 l 1,66,-1
 27 163 l 1,67,-1
 27 174 l 1,64,-1
191 174 m 1,68,-1
 219 174 l 1,69,-1
 219 163 l 1,70,-1
 191 163 l 1,71,-1
 191 174 l 1,68,-1
27 138 m 1,72,-1
 55 138 l 1,73,-1
 55 127 l 1,74,-1
 27 127 l 1,75,-1
 27 138 l 1,72,-1
191 138 m 1,76,-1
 219 138 l 1,77,-1
 219 127 l 1,78,-1
 191 127 l 1,79,-1
 191 138 l 1,76,-1
27 101 m 1,80,-1
 55 101 l 1,81,-1
 55 90 l 1,82,-1
 27 90 l 1,83,-1
 27 101 l 1,80,-1
191 101 m 1,84,-1
 219 101 l 1,85,-1
 219 90 l 1,86,-1
 191 90 l 1,87,-1
 191 101 l 1,84,-1
82 64 m 1,88,-1
 109 64 l 1,89,-1
 109 53 l 1,90,-1
 82 53 l 1,91,-1
 82 64 l 1,88,-1
55 64 m 1,92,-1
 82 64 l 1,93,-1
 82 53 l 1,94,-1
 55 53 l 1,95,-1
 55 64 l 1,92,-1
137 64 m 1,96,-1
 164 64 l 1,97,-1
 164 53 l 1,98,-1
 137 53 l 1,99,-1
 137 64 l 1,96,-1
109 64 m 1,100,-1
 137 64 l 1,101,-1
 137 53 l 1,102,-1
 109 53 l 1,103,-1
 109 64 l 1,100,-1
164 64 m 1,104,-1
 192 64 l 1,105,-1
 192 53 l 1,106,-1
 164 53 l 1,107,-1
 164 64 l 1,104,-1
EndSplineSet
EndChar

StartChar: nine
Encoding: 57 57 28
Width: 246
Flags: W
LayerCount: 2
Fore
SplineSet
82 358 m 1,0,-1
 110 358 l 1,1,-1
 110 347 l 1,2,-1
 82 347 l 1,3,-1
 82 358 l 1,0,-1
55 358 m 1,4,-1
 82 358 l 1,5,-1
 82 347 l 1,6,-1
 55 347 l 1,7,-1
 55 358 l 1,4,-1
137 358 m 1,8,-1
 164 358 l 1,9,-1
 164 347 l 1,10,-1
 137 347 l 1,11,-1
 137 358 l 1,8,-1
109 358 m 1,12,-1
 137 358 l 1,13,-1
 137 347 l 1,14,-1
 109 347 l 1,15,-1
 109 358 l 1,12,-1
164 358 m 1,16,-1
 192 358 l 1,17,-1
 192 347 l 1,18,-1
 164 347 l 1,19,-1
 164 358 l 1,16,-1
27 321 m 1,20,-1
 55 321 l 1,21,-1
 55 310 l 1,22,-1
 27 310 l 1,23,-1
 27 321 l 1,20,-1
192 321 m 1,24,-1
 219 321 l 1,25,-1
 219 310 l 1,26,-1
 192 310 l 1,27,-1
 192 321 l 1,24,-1
27 285 m 1,28,-1
 55 285 l 1,29,-1
 55 274 l 1,30,-1
 27 274 l 1,31,-1
 27 285 l 1,28,-1
192 285 m 1,32,-1
 219 285 l 1,33,-1
 219 274 l 1,34,-1
 192 274 l 1,35,-1
 192 285 l 1,32,-1
27 248 m 1,36,-1
 55 248 l 1,37,-1
 55 237 l 1,38,-1
 27 237 l 1,39,-1
 27 248 l 1,36,-1
192 248 m 1,40,-1
 219 248 l 1,41,-1
 219 237 l 1,42,-1
 192 237 l 1,43,-1
 192 248 l 1,40,-1
82 211 m 1,44,-1
 110 211 l 1,45,-1
 110 200 l 1,46,-1
 82 200 l 1,47,-1
 82 211 l 1,44,-1
55 211 m 1,48,-1
 82 211 l 1,49,-1
 82 200 l 1,50,-1
 55 200 l 1,51,-1
 55 211 l 1,48,-1
137 211 m 1,52,-1
 164 211 l 1,53,-1
 164 200 l 1,54,-1
 137 200 l 1,55,-1
 137 211 l 1,52,-1
109 211 m 1,56,-1
 137 211 l 1,57,-1
 137 200 l 1,58,-1
 109 200 l 1,59,-1
 109 211 l 1,56,-1
192 211 m 1,60,-1
 219 211 l 1,61,-1
 219 200 l 1,62,-1
 192 200 l 1,63,-1
 192 211 l 1,60,-1
164 211 m 1,64,-1
 192 211 l 1,65,-1
 192 200 l 1,66,-1
 164 200 l 1,67,-1
 164 211 l 1,64,-1
192 174 m 1,68,-1
 219 174 l 1,69,-1
 219 163 l 1,70,-1
 192 163 l 1,71,-1
 192 174 l 1,68,-1
192 138 m 1,72,-1
 219 138 l 1,73,-1
 219 127 l 1,74,-1
 192 127 l 1,75,-1
 192 138 l 1,72,-1
27 101 m 1,76,-1
 55 101 l 1,77,-1
 55 90 l 1,78,-1
 27 90 l 1,79,-1
 27 101 l 1,76,-1
192 101 m 1,80,-1
 219 101 l 1,81,-1
 219 90 l 1,82,-1
 192 90 l 1,83,-1
 192 101 l 1,80,-1
82 64 m 1,84,-1
 110 64 l 1,85,-1
 110 53 l 1,86,-1
 82 53 l 1,87,-1
 82 64 l 1,84,-1
55 64 m 1,88,-1
 82 64 l 1,89,-1
 82 53 l 1,90,-1
 55 53 l 1,91,-1
 55 64 l 1,88,-1
137 64 m 1,92,-1
 164 64 l 1,93,-1
 164 53 l 1,94,-1
 137 53 l 1,95,-1
 137 64 l 1,92,-1
109 64 m 1,96,-1
 137 64 l 1,97,-1
 137 53 l 1,98,-1
 109 53 l 1,99,-1
 109 64 l 1,96,-1
164 64 m 1,100,-1
 192 64 l 1,101,-1
 192 53 l 1,102,-1
 164 53 l 1,103,-1
 164 64 l 1,100,-1
EndSplineSet
EndChar

StartChar: colon
Encoding: 58 58 29
Width: 246
Flags: W
LayerCount: 2
Fore
SplineSet
137 286 m 1,0,-1
 164 286 l 1,1,-1
 164 275 l 1,2,-1
 137 275 l 1,3,-1
 137 286 l 1,0,-1
109 286 m 1,4,-1
 137 286 l 1,5,-1
 137 275 l 1,6,-1
 109 275 l 1,7,-1
 109 286 l 1,4,-1
137 249 m 1,8,-1
 164 249 l 1,9,-1
 164 238 l 1,10,-1
 137 238 l 1,11,-1
 137 249 l 1,8,-1
109 249 m 1,12,-1
 137 249 l 1,13,-1
 137 238 l 1,14,-1
 109 238 l 1,15,-1
 109 249 l 1,12,-1
137 102 m 1,16,-1
 164 102 l 1,17,-1
 164 91 l 1,18,-1
 137 91 l 1,19,-1
 137 102 l 1,16,-1
109 102 m 1,20,-1
 137 102 l 1,21,-1
 137 91 l 1,22,-1
 109 91 l 1,23,-1
 109 102 l 1,20,-1
137 66 m 1,24,-1
 164 66 l 1,25,-1
 164 55 l 1,26,-1
 137 55 l 1,27,-1
 137 66 l 1,24,-1
109 66 m 1,28,-1
 137 66 l 1,29,-1
 137 55 l 1,30,-1
 109 55 l 1,31,-1
 109 66 l 1,28,-1
EndSplineSet
EndChar

StartChar: semicolon
Encoding: 59 59 30
Width: 246
Flags: W
LayerCount: 2
Fore
SplineSet
137 358 m 1,0,-1
 164 358 l 1,1,-1
 164 347 l 1,2,-1
 137 347 l 1,3,-1
 137 358 l 1,0,-1
109 358 m 1,4,-1
 137 358 l 1,5,-1
 137 347 l 1,6,-1
 109 347 l 1,7,-1
 109 358 l 1,4,-1
137 321 m 1,8,-1
 164 321 l 1,9,-1
 164 311 l 1,10,-1
 137 311 l 1,11,-1
 137 321 l 1,8,-1
109 321 m 1,12,-1
 137 321 l 1,13,-1
 137 311 l 1,14,-1
 109 311 l 1,15,-1
 109 321 l 1,12,-1
137 175 m 1,16,-1
 164 175 l 1,17,-1
 164 164 l 1,18,-1
 137 164 l 1,19,-1
 137 175 l 1,16,-1
109 175 m 1,20,-1
 137 175 l 1,21,-1
 137 164 l 1,22,-1
 109 164 l 1,23,-1
 109 175 l 1,20,-1
137 138 m 1,24,-1
 164 138 l 1,25,-1
 164 127 l 1,26,-1
 137 127 l 1,27,-1
 137 138 l 1,24,-1
109 138 m 1,28,-1
 137 138 l 1,29,-1
 137 127 l 1,30,-1
 109 127 l 1,31,-1
 109 138 l 1,28,-1
109 101 m 1,32,-1
 137 101 l 1,33,-1
 137 90 l 1,34,-1
 109 90 l 1,35,-1
 109 101 l 1,32,-1
82 64 m 1,36,-1
 110 64 l 1,37,-1
 110 53 l 1,38,-1
 82 53 l 1,39,-1
 82 64 l 1,36,-1
EndSplineSet
EndChar

StartChar: less
Encoding: 60 60 31
Width: 246
Flags: W
LayerCount: 2
Fore
SplineSet
164 358 m 1,0,-1
 192 358 l 1,1,-1
 192 347 l 1,2,-1
 164 347 l 1,3,-1
 164 358 l 1,0,-1
137 321 m 1,4,-1
 164 321 l 1,5,-1
 164 310 l 1,6,-1
 137 310 l 1,7,-1
 137 321 l 1,4,-1
109 284 m 1,8,-1
 137 284 l 1,9,-1
 137 273 l 1,10,-1
 109 273 l 1,11,-1
 109 284 l 1,8,-1
82 248 m 1,12,-1
 109 248 l 1,13,-1
 109 237 l 1,14,-1
 82 237 l 1,15,-1
 82 248 l 1,12,-1
55 211 m 1,16,-1
 82 211 l 1,17,-1
 82 200 l 1,18,-1
 55 200 l 1,19,-1
 55 211 l 1,16,-1
82 174 m 1,20,-1
 109 174 l 1,21,-1
 109 163 l 1,22,-1
 82 163 l 1,23,-1
 82 174 l 1,20,-1
109 138 m 1,24,-1
 137 138 l 1,25,-1
 137 127 l 1,26,-1
 109 127 l 1,27,-1
 109 138 l 1,24,-1
137 101 m 1,28,-1
 164 101 l 1,29,-1
 164 90 l 1,30,-1
 137 90 l 1,31,-1
 137 101 l 1,28,-1
164 64 m 1,32,-1
 192 64 l 1,33,-1
 192 53 l 1,34,-1
 164 53 l 1,35,-1
 164 64 l 1,32,-1
EndSplineSet
EndChar

StartChar: equal
Encoding: 61 61 32
Width: 246
Flags: W
LayerCount: 2
Fore
SplineSet
27 250 m 1,0,-1
 55 250 l 1,1,-1
 55 239 l 1,2,-1
 27 239 l 1,3,-1
 27 250 l 1,0,-1
82 250 m 1,4,-1
 110 250 l 1,5,-1
 110 239 l 1,6,-1
 82 239 l 1,7,-1
 82 250 l 1,4,-1
55 250 m 1,8,-1
 82 250 l 1,9,-1
 82 239 l 1,10,-1
 55 239 l 1,11,-1
 55 250 l 1,8,-1
137 250 m 1,12,-1
 164 250 l 1,13,-1
 164 239 l 1,14,-1
 137 239 l 1,15,-1
 137 250 l 1,12,-1
109 250 m 1,16,-1
 137 250 l 1,17,-1
 137 239 l 1,18,-1
 109 239 l 1,19,-1
 109 250 l 1,16,-1
192 250 m 1,20,-1
 219 250 l 1,21,-1
 219 239 l 1,22,-1
 192 239 l 1,23,-1
 192 250 l 1,20,-1
164 250 m 1,24,-1
 192 250 l 1,25,-1
 192 239 l 1,26,-1
 164 239 l 1,27,-1
 164 250 l 1,24,-1
27 176 m 1,28,-1
 55 176 l 1,29,-1
 55 165 l 1,30,-1
 27 165 l 1,31,-1
 27 176 l 1,28,-1
82 176 m 1,32,-1
 110 176 l 1,33,-1
 110 165 l 1,34,-1
 82 165 l 1,35,-1
 82 176 l 1,32,-1
55 176 m 1,36,-1
 82 176 l 1,37,-1
 82 165 l 1,38,-1
 55 165 l 1,39,-1
 55 176 l 1,36,-1
137 176 m 1,40,-1
 164 176 l 1,41,-1
 164 165 l 1,42,-1
 137 165 l 1,43,-1
 137 176 l 1,40,-1
109 176 m 1,44,-1
 137 176 l 1,45,-1
 137 165 l 1,46,-1
 109 165 l 1,47,-1
 109 176 l 1,44,-1
192 176 m 1,48,-1
 219 176 l 1,49,-1
 219 165 l 1,50,-1
 192 165 l 1,51,-1
 192 176 l 1,48,-1
164 176 m 1,52,-1
 192 176 l 1,53,-1
 192 165 l 1,54,-1
 164 165 l 1,55,-1
 164 176 l 1,52,-1
EndSplineSet
EndChar

StartChar: greater
Encoding: 62 62 33
Width: 246
Flags: W
LayerCount: 2
Fore
SplineSet
55 358 m 1,0,-1
 82 358 l 1,1,-1
 82 347 l 1,2,-1
 55 347 l 1,3,-1
 55 358 l 1,0,-1
82 321 m 1,4,-1
 110 321 l 1,5,-1
 110 310 l 1,6,-1
 82 310 l 1,7,-1
 82 321 l 1,4,-1
109 284 m 1,8,-1
 137 284 l 1,9,-1
 137 273 l 1,10,-1
 109 273 l 1,11,-1
 109 284 l 1,8,-1
137 248 m 1,12,-1
 164 248 l 1,13,-1
 164 237 l 1,14,-1
 137 237 l 1,15,-1
 137 248 l 1,12,-1
164 211 m 1,16,-1
 192 211 l 1,17,-1
 192 200 l 1,18,-1
 164 200 l 1,19,-1
 164 211 l 1,16,-1
137 174 m 1,20,-1
 164 174 l 1,21,-1
 164 163 l 1,22,-1
 137 163 l 1,23,-1
 137 174 l 1,20,-1
109 138 m 1,24,-1
 137 138 l 1,25,-1
 137 127 l 1,26,-1
 109 127 l 1,27,-1
 109 138 l 1,24,-1
82 101 m 1,28,-1
 110 101 l 1,29,-1
 110 90 l 1,30,-1
 82 90 l 1,31,-1
 82 101 l 1,28,-1
55 64 m 1,32,-1
 82 64 l 1,33,-1
 82 53 l 1,34,-1
 55 53 l 1,35,-1
 55 64 l 1,32,-1
EndSplineSet
EndChar

StartChar: question
Encoding: 63 63 34
Width: 246
Flags: W
LayerCount: 2
Fore
SplineSet
82 359 m 1,0,-1
 110 359 l 1,1,-1
 110 348 l 1,2,-1
 82 348 l 1,3,-1
 82 359 l 1,0,-1
55 359 m 1,4,-1
 82 359 l 1,5,-1
 82 348 l 1,6,-1
 55 348 l 1,7,-1
 55 359 l 1,4,-1
137 359 m 1,8,-1
 164 359 l 1,9,-1
 164 348 l 1,10,-1
 137 348 l 1,11,-1
 137 359 l 1,8,-1
109 359 m 1,12,-1
 137 359 l 1,13,-1
 137 348 l 1,14,-1
 109 348 l 1,15,-1
 109 359 l 1,12,-1
164 359 m 1,16,-1
 192 359 l 1,17,-1
 192 348 l 1,18,-1
 164 348 l 1,19,-1
 164 359 l 1,16,-1
27 322 m 1,20,-1
 55 322 l 1,21,-1
 55 311 l 1,22,-1
 27 311 l 1,23,-1
 27 322 l 1,20,-1
192 322 m 1,24,-1
 219 322 l 1,25,-1
 219 311 l 1,26,-1
 192 311 l 1,27,-1
 192 322 l 1,24,-1
27 285 m 1,28,-1
 55 285 l 1,29,-1
 55 274 l 1,30,-1
 27 274 l 1,31,-1
 27 285 l 1,28,-1
192 285 m 1,32,-1
 219 285 l 1,33,-1
 219 274 l 1,34,-1
 192 274 l 1,35,-1
 192 285 l 1,32,-1
164 249 m 1,36,-1
 192 249 l 1,37,-1
 192 238 l 1,38,-1
 164 238 l 1,39,-1
 164 249 l 1,36,-1
137 212 m 1,40,-1
 164 212 l 1,41,-1
 164 201 l 1,42,-1
 137 201 l 1,43,-1
 137 212 l 1,40,-1
109 175 m 1,44,-1
 137 175 l 1,45,-1
 137 164 l 1,46,-1
 109 164 l 1,47,-1
 109 175 l 1,44,-1
109 138 m 1,48,-1
 137 138 l 1,49,-1
 137 127 l 1,50,-1
 109 127 l 1,51,-1
 109 138 l 1,48,-1
109 65 m 1,52,-1
 137 65 l 1,53,-1
 137 54 l 1,54,-1
 109 54 l 1,55,-1
 109 65 l 1,52,-1
109 28 m 1,56,-1
 137 28 l 1,57,-1
 137 17 l 1,58,-1
 109 17 l 1,59,-1
 109 28 l 1,56,-1
EndSplineSet
EndChar

StartChar: at
Encoding: 64 64 35
Width: 246
Flags: W
LayerCount: 2
Fore
SplineSet
82 395 m 1,0,-1
 109 395 l 1,1,-1
 109 384 l 1,2,-1
 82 384 l 1,3,-1
 82 395 l 1,0,-1
137 395 m 1,4,-1
 164 395 l 1,5,-1
 164 384 l 1,6,-1
 137 384 l 1,7,-1
 137 395 l 1,4,-1
109 395 m 1,8,-1
 137 395 l 1,9,-1
 137 384 l 1,10,-1
 109 384 l 1,11,-1
 109 395 l 1,8,-1
164 395 m 1,12,-1
 191 395 l 1,13,-1
 191 384 l 1,14,-1
 164 384 l 1,15,-1
 164 395 l 1,12,-1
55 358 m 1,16,-1
 82 358 l 1,17,-1
 82 347 l 1,18,-1
 55 347 l 1,19,-1
 55 358 l 1,16,-1
191 358 m 1,20,-1
 219 358 l 1,21,-1
 219 347 l 1,22,-1
 191 347 l 1,23,-1
 191 358 l 1,20,-1
27 321 m 1,24,-1
 55 321 l 1,25,-1
 55 311 l 1,26,-1
 27 311 l 1,27,-1
 27 321 l 1,24,-1
137 321 m 1,28,-1
 164 321 l 1,29,-1
 164 311 l 1,30,-1
 137 311 l 1,31,-1
 137 321 l 1,28,-1
109 321 m 1,32,-1
 137 321 l 1,33,-1
 137 311 l 1,34,-1
 109 311 l 1,35,-1
 109 321 l 1,32,-1
191 321 m 1,36,-1
 219 321 l 1,37,-1
 219 311 l 1,38,-1
 191 311 l 1,39,-1
 191 321 l 1,36,-1
164 321 m 1,40,-1
 191 321 l 1,41,-1
 191 311 l 1,42,-1
 164 311 l 1,43,-1
 164 321 l 1,40,-1
27 285 m 1,44,-1
 55 285 l 1,45,-1
 55 274 l 1,46,-1
 27 274 l 1,47,-1
 27 285 l 1,44,-1
82 285 m 1,48,-1
 109 285 l 1,49,-1
 109 274 l 1,50,-1
 82 274 l 1,51,-1
 82 285 l 1,48,-1
191 285 m 1,52,-1
 219 285 l 1,53,-1
 219 274 l 1,54,-1
 191 274 l 1,55,-1
 191 285 l 1,52,-1
27 248 m 1,56,-1
 55 248 l 1,57,-1
 55 237 l 1,58,-1
 27 237 l 1,59,-1
 27 248 l 1,56,-1
55 248 m 1,60,-1
 82 248 l 1,61,-1
 82 237 l 1,62,-1
 55 237 l 1,63,-1
 55 248 l 1,60,-1
191 248 m 1,64,-1
 219 248 l 1,65,-1
 219 237 l 1,66,-1
 191 237 l 1,67,-1
 191 248 l 1,64,-1
27 211 m 1,68,-1
 55 211 l 1,69,-1
 55 200 l 1,70,-1
 27 200 l 1,71,-1
 27 211 l 1,68,-1
55 211 m 1,72,-1
 82 211 l 1,73,-1
 82 200 l 1,74,-1
 55 200 l 1,75,-1
 55 211 l 1,72,-1
191 211 m 1,76,-1
 219 211 l 1,77,-1
 219 200 l 1,78,-1
 191 200 l 1,79,-1
 191 211 l 1,76,-1
27 175 m 1,80,-1
 55 175 l 1,81,-1
 55 164 l 1,82,-1
 27 164 l 1,83,-1
 27 175 l 1,80,-1
82 175 m 1,84,-1
 109 175 l 1,85,-1
 109 164 l 1,86,-1
 82 164 l 1,87,-1
 82 175 l 1,84,-1
137 175 m 1,88,-1
 164 175 l 1,89,-1
 164 164 l 1,90,-1
 137 164 l 1,91,-1
 137 175 l 1,88,-1
109 175 m 1,92,-1
 137 175 l 1,93,-1
 137 164 l 1,94,-1
 109 164 l 1,95,-1
 109 175 l 1,92,-1
164 175 m 1,96,-1
 191 175 l 1,97,-1
 191 164 l 1,98,-1
 164 164 l 1,99,-1
 164 175 l 1,96,-1
27 138 m 1,100,-1
 55 138 l 1,101,-1
 55 127 l 1,102,-1
 27 127 l 1,103,-1
 27 138 l 1,100,-1
55 101 m 1,104,-1
 82 101 l 1,105,-1
 82 90 l 1,106,-1
 55 90 l 1,107,-1
 55 101 l 1,104,-1
82 64 m 1,108,-1
 109 64 l 1,109,-1
 109 53 l 1,110,-1
 82 53 l 1,111,-1
 82 64 l 1,108,-1
137 64 m 1,112,-1
 164 64 l 1,113,-1
 164 53 l 1,114,-1
 137 53 l 1,115,-1
 137 64 l 1,112,-1
109 64 m 1,116,-1
 137 64 l 1,117,-1
 137 53 l 1,118,-1
 109 53 l 1,119,-1
 109 64 l 1,116,-1
164 64 m 1,120,-1
 191 64 l 1,121,-1
 191 53 l 1,122,-1
 164 53 l 1,123,-1
 164 64 l 1,120,-1
EndSplineSet
EndChar

StartChar: A
Encoding: 65 65 36
Width: 246
Flags: W
LayerCount: 2
Fore
SplineSet
82 358 m 1,0,-1
 109 358 l 1,1,-1
 109 347 l 1,2,-1
 82 347 l 1,3,-1
 82 358 l 1,0,-1
136 358 m 1,4,-1
 164 358 l 1,5,-1
 164 347 l 1,6,-1
 136 347 l 1,7,-1
 136 358 l 1,4,-1
109 358 m 1,8,-1
 136 358 l 1,9,-1
 136 347 l 1,10,-1
 109 347 l 1,11,-1
 109 358 l 1,8,-1
54 321 m 1,12,-1
 82 321 l 1,13,-1
 82 310 l 1,14,-1
 54 310 l 1,15,-1
 54 321 l 1,12,-1
164 321 m 1,16,-1
 191 321 l 1,17,-1
 191 310 l 1,18,-1
 164 310 l 1,19,-1
 164 321 l 1,16,-1
27 285 m 1,20,-1
 54 285 l 1,21,-1
 54 274 l 1,22,-1
 27 274 l 1,23,-1
 27 285 l 1,20,-1
191 285 m 1,24,-1
 219 285 l 1,25,-1
 219 274 l 1,26,-1
 191 274 l 1,27,-1
 191 285 l 1,24,-1
27 248 m 1,28,-1
 54 248 l 1,29,-1
 54 237 l 1,30,-1
 27 237 l 1,31,-1
 27 248 l 1,28,-1
191 248 m 1,32,-1
 219 248 l 1,33,-1
 219 237 l 1,34,-1
 191 237 l 1,35,-1
 191 248 l 1,32,-1
27 211 m 1,36,-1
 54 211 l 1,37,-1
 54 200 l 1,38,-1
 27 200 l 1,39,-1
 27 211 l 1,36,-1
82 211 m 1,40,-1
 109 211 l 1,41,-1
 109 200 l 1,42,-1
 82 200 l 1,43,-1
 82 211 l 1,40,-1
54 211 m 1,44,-1
 82 211 l 1,45,-1
 82 200 l 1,46,-1
 54 200 l 1,47,-1
 54 211 l 1,44,-1
136 211 m 1,48,-1
 164 211 l 1,49,-1
 164 200 l 1,50,-1
 136 200 l 1,51,-1
 136 211 l 1,48,-1
109 211 m 1,52,-1
 136 211 l 1,53,-1
 136 200 l 1,54,-1
 109 200 l 1,55,-1
 109 211 l 1,52,-1
191 211 m 1,56,-1
 219 211 l 1,57,-1
 219 200 l 1,58,-1
 191 200 l 1,59,-1
 191 211 l 1,56,-1
164 211 m 1,60,-1
 191 211 l 1,61,-1
 191 200 l 1,62,-1
 164 200 l 1,63,-1
 164 211 l 1,60,-1
27 174 m 1,64,-1
 54 174 l 1,65,-1
 54 163 l 1,66,-1
 27 163 l 1,67,-1
 27 174 l 1,64,-1
191 174 m 1,68,-1
 219 174 l 1,69,-1
 219 163 l 1,70,-1
 191 163 l 1,71,-1
 191 174 l 1,68,-1
27 138 m 1,72,-1
 54 138 l 1,73,-1
 54 127 l 1,74,-1
 27 127 l 1,75,-1
 27 138 l 1,72,-1
191 138 m 1,76,-1
 219 138 l 1,77,-1
 219 127 l 1,78,-1
 191 127 l 1,79,-1
 191 138 l 1,76,-1
27 101 m 1,80,-1
 54 101 l 1,81,-1
 54 90 l 1,82,-1
 27 90 l 1,83,-1
 27 101 l 1,80,-1
191 101 m 1,84,-1
 219 101 l 1,85,-1
 219 90 l 1,86,-1
 191 90 l 1,87,-1
 191 101 l 1,84,-1
27 64 m 1,88,-1
 54 64 l 1,89,-1
 54 53 l 1,90,-1
 27 53 l 1,91,-1
 27 64 l 1,88,-1
191 64 m 1,92,-1
 219 64 l 1,93,-1
 219 53 l 1,94,-1
 191 53 l 1,95,-1
 191 64 l 1,92,-1
EndSplineSet
EndChar

StartChar: B
Encoding: 66 66 37
Width: 246
Flags: W
LayerCount: 2
Fore
SplineSet
27 358 m 1,0,-1
 55 358 l 1,1,-1
 55 347 l 1,2,-1
 27 347 l 1,3,-1
 27 358 l 1,0,-1
82 358 m 1,4,-1
 110 358 l 1,5,-1
 110 347 l 1,6,-1
 82 347 l 1,7,-1
 82 358 l 1,4,-1
55 358 m 1,8,-1
 82 358 l 1,9,-1
 82 347 l 1,10,-1
 55 347 l 1,11,-1
 55 358 l 1,8,-1
137 358 m 1,12,-1
 164 358 l 1,13,-1
 164 347 l 1,14,-1
 137 347 l 1,15,-1
 137 358 l 1,12,-1
109 358 m 1,16,-1
 137 358 l 1,17,-1
 137 347 l 1,18,-1
 109 347 l 1,19,-1
 109 358 l 1,16,-1
164 358 m 1,20,-1
 192 358 l 1,21,-1
 192 347 l 1,22,-1
 164 347 l 1,23,-1
 164 358 l 1,20,-1
27 321 m 1,24,-1
 55 321 l 1,25,-1
 55 310 l 1,26,-1
 27 310 l 1,27,-1
 27 321 l 1,24,-1
192 321 m 1,28,-1
 219 321 l 1,29,-1
 219 310 l 1,30,-1
 192 310 l 1,31,-1
 192 321 l 1,28,-1
27 284 m 1,32,-1
 55 284 l 1,33,-1
 55 273 l 1,34,-1
 27 273 l 1,35,-1
 27 284 l 1,32,-1
192 284 m 1,36,-1
 219 284 l 1,37,-1
 219 273 l 1,38,-1
 192 273 l 1,39,-1
 192 284 l 1,36,-1
27 248 m 1,40,-1
 55 248 l 1,41,-1
 55 237 l 1,42,-1
 27 237 l 1,43,-1
 27 248 l 1,40,-1
192 248 m 1,44,-1
 219 248 l 1,45,-1
 219 237 l 1,46,-1
 192 237 l 1,47,-1
 192 248 l 1,44,-1
27 211 m 1,48,-1
 55 211 l 1,49,-1
 55 200 l 1,50,-1
 27 200 l 1,51,-1
 27 211 l 1,48,-1
82 211 m 1,52,-1
 110 211 l 1,53,-1
 110 200 l 1,54,-1
 82 200 l 1,55,-1
 82 211 l 1,52,-1
55 211 m 1,56,-1
 82 211 l 1,57,-1
 82 200 l 1,58,-1
 55 200 l 1,59,-1
 55 211 l 1,56,-1
137 211 m 1,60,-1
 164 211 l 1,61,-1
 164 200 l 1,62,-1
 137 200 l 1,63,-1
 137 211 l 1,60,-1
109 211 m 1,64,-1
 137 211 l 1,65,-1
 137 200 l 1,66,-1
 109 200 l 1,67,-1
 109 211 l 1,64,-1
164 211 m 1,68,-1
 192 211 l 1,69,-1
 192 200 l 1,70,-1
 164 200 l 1,71,-1
 164 211 l 1,68,-1
27 174 m 1,72,-1
 55 174 l 1,73,-1
 55 163 l 1,74,-1
 27 163 l 1,75,-1
 27 174 l 1,72,-1
192 174 m 1,76,-1
 219 174 l 1,77,-1
 219 163 l 1,78,-1
 192 163 l 1,79,-1
 192 174 l 1,76,-1
27 138 m 1,80,-1
 55 138 l 1,81,-1
 55 127 l 1,82,-1
 27 127 l 1,83,-1
 27 138 l 1,80,-1
192 138 m 1,84,-1
 219 138 l 1,85,-1
 219 127 l 1,86,-1
 192 127 l 1,87,-1
 192 138 l 1,84,-1
27 101 m 1,88,-1
 55 101 l 1,89,-1
 55 90 l 1,90,-1
 27 90 l 1,91,-1
 27 101 l 1,88,-1
192 101 m 1,92,-1
 219 101 l 1,93,-1
 219 90 l 1,94,-1
 192 90 l 1,95,-1
 192 101 l 1,92,-1
27 64 m 1,96,-1
 55 64 l 1,97,-1
 55 53 l 1,98,-1
 27 53 l 1,99,-1
 27 64 l 1,96,-1
82 64 m 1,100,-1
 110 64 l 1,101,-1
 110 53 l 1,102,-1
 82 53 l 1,103,-1
 82 64 l 1,100,-1
55 64 m 1,104,-1
 82 64 l 1,105,-1
 82 53 l 1,106,-1
 55 53 l 1,107,-1
 55 64 l 1,104,-1
137 64 m 1,108,-1
 164 64 l 1,109,-1
 164 53 l 1,110,-1
 137 53 l 1,111,-1
 137 64 l 1,108,-1
109 64 m 1,112,-1
 137 64 l 1,113,-1
 137 53 l 1,114,-1
 109 53 l 1,115,-1
 109 64 l 1,112,-1
164 64 m 1,116,-1
 192 64 l 1,117,-1
 192 53 l 1,118,-1
 164 53 l 1,119,-1
 164 64 l 1,116,-1
EndSplineSet
EndChar

StartChar: C
Encoding: 67 67 38
Width: 246
Flags: W
LayerCount: 2
Fore
SplineSet
82 358 m 1,0,-1
 109 358 l 1,1,-1
 109 347 l 1,2,-1
 82 347 l 1,3,-1
 82 358 l 1,0,-1
137 358 m 1,4,-1
 164 358 l 1,5,-1
 164 347 l 1,6,-1
 137 347 l 1,7,-1
 137 358 l 1,4,-1
109 358 m 1,8,-1
 137 358 l 1,9,-1
 137 347 l 1,10,-1
 109 347 l 1,11,-1
 109 358 l 1,8,-1
164 358 m 1,12,-1
 191 358 l 1,13,-1
 191 347 l 1,14,-1
 164 347 l 1,15,-1
 164 358 l 1,12,-1
55 321 m 1,16,-1
 82 321 l 1,17,-1
 82 310 l 1,18,-1
 55 310 l 1,19,-1
 55 321 l 1,16,-1
191 321 m 1,20,-1
 219 321 l 1,21,-1
 219 310 l 1,22,-1
 191 310 l 1,23,-1
 191 321 l 1,20,-1
27 284 m 1,24,-1
 55 284 l 1,25,-1
 55 273 l 1,26,-1
 27 273 l 1,27,-1
 27 284 l 1,24,-1
27 248 m 1,28,-1
 55 248 l 1,29,-1
 55 237 l 1,30,-1
 27 237 l 1,31,-1
 27 248 l 1,28,-1
27 211 m 1,32,-1
 55 211 l 1,33,-1
 55 200 l 1,34,-1
 27 200 l 1,35,-1
 27 211 l 1,32,-1
27 174 m 1,36,-1
 55 174 l 1,37,-1
 55 163 l 1,38,-1
 27 163 l 1,39,-1
 27 174 l 1,36,-1
27 138 m 1,40,-1
 55 138 l 1,41,-1
 55 127 l 1,42,-1
 27 127 l 1,43,-1
 27 138 l 1,40,-1
55 101 m 1,44,-1
 82 101 l 1,45,-1
 82 90 l 1,46,-1
 55 90 l 1,47,-1
 55 101 l 1,44,-1
191 101 m 1,48,-1
 219 101 l 1,49,-1
 219 90 l 1,50,-1
 191 90 l 1,51,-1
 191 101 l 1,48,-1
82 64 m 1,52,-1
 109 64 l 1,53,-1
 109 53 l 1,54,-1
 82 53 l 1,55,-1
 82 64 l 1,52,-1
137 64 m 1,56,-1
 164 64 l 1,57,-1
 164 53 l 1,58,-1
 137 53 l 1,59,-1
 137 64 l 1,56,-1
109 64 m 1,60,-1
 137 64 l 1,61,-1
 137 53 l 1,62,-1
 109 53 l 1,63,-1
 109 64 l 1,60,-1
164 64 m 1,64,-1
 191 64 l 1,65,-1
 191 53 l 1,66,-1
 164 53 l 1,67,-1
 164 64 l 1,64,-1
EndSplineSet
EndChar

StartChar: D
Encoding: 68 68 39
Width: 246
Flags: W
LayerCount: 2
Fore
SplineSet
27 358 m 1,0,-1
 55 358 l 1,1,-1
 55 347 l 1,2,-1
 27 347 l 1,3,-1
 27 358 l 1,0,-1
82 358 m 1,4,-1
 109 358 l 1,5,-1
 109 347 l 1,6,-1
 82 347 l 1,7,-1
 82 358 l 1,4,-1
55 358 m 1,8,-1
 82 358 l 1,9,-1
 82 347 l 1,10,-1
 55 347 l 1,11,-1
 55 358 l 1,8,-1
137 358 m 1,12,-1
 164 358 l 1,13,-1
 164 347 l 1,14,-1
 137 347 l 1,15,-1
 137 358 l 1,12,-1
109 358 m 1,16,-1
 137 358 l 1,17,-1
 137 347 l 1,18,-1
 109 347 l 1,19,-1
 109 358 l 1,16,-1
55 321 m 1,20,-1
 82 321 l 1,21,-1
 82 310 l 1,22,-1
 55 310 l 1,23,-1
 55 321 l 1,20,-1
164 321 m 1,24,-1
 191 321 l 1,25,-1
 191 310 l 1,26,-1
 164 310 l 1,27,-1
 164 321 l 1,24,-1
55 284 m 1,28,-1
 82 284 l 1,29,-1
 82 273 l 1,30,-1
 55 273 l 1,31,-1
 55 284 l 1,28,-1
191 284 m 1,32,-1
 219 284 l 1,33,-1
 219 273 l 1,34,-1
 191 273 l 1,35,-1
 191 284 l 1,32,-1
55 248 m 1,36,-1
 82 248 l 1,37,-1
 82 237 l 1,38,-1
 55 237 l 1,39,-1
 55 248 l 1,36,-1
191 248 m 1,40,-1
 219 248 l 1,41,-1
 219 237 l 1,42,-1
 191 237 l 1,43,-1
 191 248 l 1,40,-1
55 211 m 1,44,-1
 82 211 l 1,45,-1
 82 200 l 1,46,-1
 55 200 l 1,47,-1
 55 211 l 1,44,-1
191 211 m 1,48,-1
 219 211 l 1,49,-1
 219 200 l 1,50,-1
 191 200 l 1,51,-1
 191 211 l 1,48,-1
55 174 m 1,52,-1
 82 174 l 1,53,-1
 82 163 l 1,54,-1
 55 163 l 1,55,-1
 55 174 l 1,52,-1
191 174 m 1,56,-1
 219 174 l 1,57,-1
 219 163 l 1,58,-1
 191 163 l 1,59,-1
 191 174 l 1,56,-1
55 138 m 1,60,-1
 82 138 l 1,61,-1
 82 127 l 1,62,-1
 55 127 l 1,63,-1
 55 138 l 1,60,-1
191 138 m 1,64,-1
 219 138 l 1,65,-1
 219 127 l 1,66,-1
 191 127 l 1,67,-1
 191 138 l 1,64,-1
55 101 m 1,68,-1
 82 101 l 1,69,-1
 82 90 l 1,70,-1
 55 90 l 1,71,-1
 55 101 l 1,68,-1
164 101 m 1,72,-1
 191 101 l 1,73,-1
 191 90 l 1,74,-1
 164 90 l 1,75,-1
 164 101 l 1,72,-1
27 64 m 1,76,-1
 55 64 l 1,77,-1
 55 53 l 1,78,-1
 27 53 l 1,79,-1
 27 64 l 1,76,-1
82 64 m 1,80,-1
 109 64 l 1,81,-1
 109 53 l 1,82,-1
 82 53 l 1,83,-1
 82 64 l 1,80,-1
55 64 m 1,84,-1
 82 64 l 1,85,-1
 82 53 l 1,86,-1
 55 53 l 1,87,-1
 55 64 l 1,84,-1
137 64 m 1,88,-1
 164 64 l 1,89,-1
 164 53 l 1,90,-1
 137 53 l 1,91,-1
 137 64 l 1,88,-1
109 64 m 1,92,-1
 137 64 l 1,93,-1
 137 53 l 1,94,-1
 109 53 l 1,95,-1
 109 64 l 1,92,-1
EndSplineSet
EndChar

StartChar: E
Encoding: 69 69 40
Width: 246
Flags: W
LayerCount: 2
Fore
SplineSet
27 358 m 1,0,-1
 55 358 l 1,1,-1
 55 347 l 1,2,-1
 27 347 l 1,3,-1
 27 358 l 1,0,-1
82 358 m 1,4,-1
 109 358 l 1,5,-1
 109 347 l 1,6,-1
 82 347 l 1,7,-1
 82 358 l 1,4,-1
55 358 m 1,8,-1
 82 358 l 1,9,-1
 82 347 l 1,10,-1
 55 347 l 1,11,-1
 55 358 l 1,8,-1
137 358 m 1,12,-1
 164 358 l 1,13,-1
 164 347 l 1,14,-1
 137 347 l 1,15,-1
 137 358 l 1,12,-1
109 358 m 1,16,-1
 137 358 l 1,17,-1
 137 347 l 1,18,-1
 109 347 l 1,19,-1
 109 358 l 1,16,-1
191 358 m 1,20,-1
 219 358 l 1,21,-1
 219 347 l 1,22,-1
 191 347 l 1,23,-1
 191 358 l 1,20,-1
164 358 m 1,24,-1
 191 358 l 1,25,-1
 191 347 l 1,26,-1
 164 347 l 1,27,-1
 164 358 l 1,24,-1
27 321 m 1,28,-1
 55 321 l 1,29,-1
 55 310 l 1,30,-1
 27 310 l 1,31,-1
 27 321 l 1,28,-1
27 284 m 1,32,-1
 55 284 l 1,33,-1
 55 273 l 1,34,-1
 27 273 l 1,35,-1
 27 284 l 1,32,-1
27 248 m 1,36,-1
 55 248 l 1,37,-1
 55 237 l 1,38,-1
 27 237 l 1,39,-1
 27 248 l 1,36,-1
27 211 m 1,40,-1
 55 211 l 1,41,-1
 55 200 l 1,42,-1
 27 200 l 1,43,-1
 27 211 l 1,40,-1
82 211 m 1,44,-1
 109 211 l 1,45,-1
 109 200 l 1,46,-1
 82 200 l 1,47,-1
 82 211 l 1,44,-1
55 211 m 1,48,-1
 82 211 l 1,49,-1
 82 200 l 1,50,-1
 55 200 l 1,51,-1
 55 211 l 1,48,-1
137 211 m 1,52,-1
 164 211 l 1,53,-1
 164 200 l 1,54,-1
 137 200 l 1,55,-1
 137 211 l 1,52,-1
109 211 m 1,56,-1
 137 211 l 1,57,-1
 137 200 l 1,58,-1
 109 200 l 1,59,-1
 109 211 l 1,56,-1
27 174 m 1,60,-1
 55 174 l 1,61,-1
 55 163 l 1,62,-1
 27 163 l 1,63,-1
 27 174 l 1,60,-1
27 138 m 1,64,-1
 55 138 l 1,65,-1
 55 127 l 1,66,-1
 27 127 l 1,67,-1
 27 138 l 1,64,-1
27 101 m 1,68,-1
 55 101 l 1,69,-1
 55 90 l 1,70,-1
 27 90 l 1,71,-1
 27 101 l 1,68,-1
27 64 m 1,72,-1
 55 64 l 1,73,-1
 55 53 l 1,74,-1
 27 53 l 1,75,-1
 27 64 l 1,72,-1
82 64 m 1,76,-1
 109 64 l 1,77,-1
 109 53 l 1,78,-1
 82 53 l 1,79,-1
 82 64 l 1,76,-1
55 64 m 1,80,-1
 82 64 l 1,81,-1
 82 53 l 1,82,-1
 55 53 l 1,83,-1
 55 64 l 1,80,-1
137 64 m 1,84,-1
 164 64 l 1,85,-1
 164 53 l 1,86,-1
 137 53 l 1,87,-1
 137 64 l 1,84,-1
109 64 m 1,88,-1
 137 64 l 1,89,-1
 137 53 l 1,90,-1
 109 53 l 1,91,-1
 109 64 l 1,88,-1
191 64 m 1,92,-1
 219 64 l 1,93,-1
 219 53 l 1,94,-1
 191 53 l 1,95,-1
 191 64 l 1,92,-1
164 64 m 1,96,-1
 191 64 l 1,97,-1
 191 53 l 1,98,-1
 164 53 l 1,99,-1
 164 64 l 1,96,-1
EndSplineSet
EndChar

StartChar: F
Encoding: 70 70 41
Width: 246
Flags: W
LayerCount: 2
Fore
SplineSet
27 358 m 1,0,-1
 54 358 l 1,1,-1
 54 347 l 1,2,-1
 27 347 l 1,3,-1
 27 358 l 1,0,-1
82 358 m 1,4,-1
 109 358 l 1,5,-1
 109 347 l 1,6,-1
 82 347 l 1,7,-1
 82 358 l 1,4,-1
54 358 m 1,8,-1
 82 358 l 1,9,-1
 82 347 l 1,10,-1
 54 347 l 1,11,-1
 54 358 l 1,8,-1
136 358 m 1,12,-1
 164 358 l 1,13,-1
 164 347 l 1,14,-1
 136 347 l 1,15,-1
 136 358 l 1,12,-1
109 358 m 1,16,-1
 136 358 l 1,17,-1
 136 347 l 1,18,-1
 109 347 l 1,19,-1
 109 358 l 1,16,-1
191 358 m 1,20,-1
 219 358 l 1,21,-1
 219 347 l 1,22,-1
 191 347 l 1,23,-1
 191 358 l 1,20,-1
164 358 m 1,24,-1
 191 358 l 1,25,-1
 191 347 l 1,26,-1
 164 347 l 1,27,-1
 164 358 l 1,24,-1
27 321 m 1,28,-1
 54 321 l 1,29,-1
 54 310 l 1,30,-1
 27 310 l 1,31,-1
 27 321 l 1,28,-1
27 284 m 1,32,-1
 54 284 l 1,33,-1
 54 273 l 1,34,-1
 27 273 l 1,35,-1
 27 284 l 1,32,-1
27 248 m 1,36,-1
 54 248 l 1,37,-1
 54 237 l 1,38,-1
 27 237 l 1,39,-1
 27 248 l 1,36,-1
27 211 m 1,40,-1
 54 211 l 1,41,-1
 54 200 l 1,42,-1
 27 200 l 1,43,-1
 27 211 l 1,40,-1
82 211 m 1,44,-1
 109 211 l 1,45,-1
 109 200 l 1,46,-1
 82 200 l 1,47,-1
 82 211 l 1,44,-1
54 211 m 1,48,-1
 82 211 l 1,49,-1
 82 200 l 1,50,-1
 54 200 l 1,51,-1
 54 211 l 1,48,-1
109 211 m 1,52,-1
 136 211 l 1,53,-1
 136 200 l 1,54,-1
 109 200 l 1,55,-1
 109 211 l 1,52,-1
27 174 m 1,56,-1
 54 174 l 1,57,-1
 54 163 l 1,58,-1
 27 163 l 1,59,-1
 27 174 l 1,56,-1
27 138 m 1,60,-1
 54 138 l 1,61,-1
 54 127 l 1,62,-1
 27 127 l 1,63,-1
 27 138 l 1,60,-1
27 101 m 1,64,-1
 54 101 l 1,65,-1
 54 90 l 1,66,-1
 27 90 l 1,67,-1
 27 101 l 1,64,-1
27 64 m 1,68,-1
 54 64 l 1,69,-1
 54 53 l 1,70,-1
 27 53 l 1,71,-1
 27 64 l 1,68,-1
EndSplineSet
EndChar

StartChar: G
Encoding: 71 71 42
Width: 246
Flags: W
LayerCount: 2
Fore
SplineSet
82 358 m 1,0,-1
 110 358 l 1,1,-1
 110 347 l 1,2,-1
 82 347 l 1,3,-1
 82 358 l 1,0,-1
137 358 m 1,4,-1
 164 358 l 1,5,-1
 164 347 l 1,6,-1
 137 347 l 1,7,-1
 137 358 l 1,4,-1
109 358 m 1,8,-1
 137 358 l 1,9,-1
 137 347 l 1,10,-1
 109 347 l 1,11,-1
 109 358 l 1,8,-1
164 358 m 1,12,-1
 192 358 l 1,13,-1
 192 347 l 1,14,-1
 164 347 l 1,15,-1
 164 358 l 1,12,-1
55 321 m 1,16,-1
 82 321 l 1,17,-1
 82 310 l 1,18,-1
 55 310 l 1,19,-1
 55 321 l 1,16,-1
192 321 m 1,20,-1
 219 321 l 1,21,-1
 219 310 l 1,22,-1
 192 310 l 1,23,-1
 192 321 l 1,20,-1
27 284 m 1,24,-1
 55 284 l 1,25,-1
 55 273 l 1,26,-1
 27 273 l 1,27,-1
 27 284 l 1,24,-1
27 248 m 1,28,-1
 55 248 l 1,29,-1
 55 237 l 1,30,-1
 27 237 l 1,31,-1
 27 248 l 1,28,-1
27 211 m 1,32,-1
 55 211 l 1,33,-1
 55 200 l 1,34,-1
 27 200 l 1,35,-1
 27 211 l 1,32,-1
137 211 m 1,36,-1
 164 211 l 1,37,-1
 164 200 l 1,38,-1
 137 200 l 1,39,-1
 137 211 l 1,36,-1
192 211 m 1,40,-1
 219 211 l 1,41,-1
 219 200 l 1,42,-1
 192 200 l 1,43,-1
 192 211 l 1,40,-1
164 211 m 1,44,-1
 192 211 l 1,45,-1
 192 200 l 1,46,-1
 164 200 l 1,47,-1
 164 211 l 1,44,-1
27 174 m 1,48,-1
 55 174 l 1,49,-1
 55 163 l 1,50,-1
 27 163 l 1,51,-1
 27 174 l 1,48,-1
192 174 m 1,52,-1
 219 174 l 1,53,-1
 219 163 l 1,54,-1
 192 163 l 1,55,-1
 192 174 l 1,52,-1
27 138 m 1,56,-1
 55 138 l 1,57,-1
 55 127 l 1,58,-1
 27 127 l 1,59,-1
 27 138 l 1,56,-1
192 138 m 1,60,-1
 219 138 l 1,61,-1
 219 127 l 1,62,-1
 192 127 l 1,63,-1
 192 138 l 1,60,-1
55 101 m 1,64,-1
 82 101 l 1,65,-1
 82 90 l 1,66,-1
 55 90 l 1,67,-1
 55 101 l 1,64,-1
192 101 m 1,68,-1
 219 101 l 1,69,-1
 219 90 l 1,70,-1
 192 90 l 1,71,-1
 192 101 l 1,68,-1
82 64 m 1,72,-1
 110 64 l 1,73,-1
 110 53 l 1,74,-1
 82 53 l 1,75,-1
 82 64 l 1,72,-1
137 64 m 1,76,-1
 164 64 l 1,77,-1
 164 53 l 1,78,-1
 137 53 l 1,79,-1
 137 64 l 1,76,-1
109 64 m 1,80,-1
 137 64 l 1,81,-1
 137 53 l 1,82,-1
 109 53 l 1,83,-1
 109 64 l 1,80,-1
164 64 m 1,84,-1
 192 64 l 1,85,-1
 192 53 l 1,86,-1
 164 53 l 1,87,-1
 164 64 l 1,84,-1
EndSplineSet
EndChar

StartChar: H
Encoding: 72 72 43
Width: 246
Flags: W
LayerCount: 2
Fore
SplineSet
27 358 m 1,0,-1
 55 358 l 1,1,-1
 55 347 l 1,2,-1
 27 347 l 1,3,-1
 27 358 l 1,0,-1
191 358 m 1,4,-1
 219 358 l 1,5,-1
 219 347 l 1,6,-1
 191 347 l 1,7,-1
 191 358 l 1,4,-1
27 321 m 1,8,-1
 55 321 l 1,9,-1
 55 310 l 1,10,-1
 27 310 l 1,11,-1
 27 321 l 1,8,-1
191 321 m 1,12,-1
 219 321 l 1,13,-1
 219 310 l 1,14,-1
 191 310 l 1,15,-1
 191 321 l 1,12,-1
27 284 m 1,16,-1
 55 284 l 1,17,-1
 55 273 l 1,18,-1
 27 273 l 1,19,-1
 27 284 l 1,16,-1
191 284 m 1,20,-1
 219 284 l 1,21,-1
 219 273 l 1,22,-1
 191 273 l 1,23,-1
 191 284 l 1,20,-1
27 248 m 1,24,-1
 55 248 l 1,25,-1
 55 237 l 1,26,-1
 27 237 l 1,27,-1
 27 248 l 1,24,-1
191 248 m 1,28,-1
 219 248 l 1,29,-1
 219 237 l 1,30,-1
 191 237 l 1,31,-1
 191 248 l 1,28,-1
27 211 m 1,32,-1
 55 211 l 1,33,-1
 55 200 l 1,34,-1
 27 200 l 1,35,-1
 27 211 l 1,32,-1
82 211 m 1,36,-1
 109 211 l 1,37,-1
 109 200 l 1,38,-1
 82 200 l 1,39,-1
 82 211 l 1,36,-1
55 211 m 1,40,-1
 82 211 l 1,41,-1
 82 200 l 1,42,-1
 55 200 l 1,43,-1
 55 211 l 1,40,-1
137 211 m 1,44,-1
 164 211 l 1,45,-1
 164 200 l 1,46,-1
 137 200 l 1,47,-1
 137 211 l 1,44,-1
109 211 m 1,48,-1
 137 211 l 1,49,-1
 137 200 l 1,50,-1
 109 200 l 1,51,-1
 109 211 l 1,48,-1
191 211 m 1,52,-1
 219 211 l 1,53,-1
 219 200 l 1,54,-1
 191 200 l 1,55,-1
 191 211 l 1,52,-1
164 211 m 1,56,-1
 191 211 l 1,57,-1
 191 200 l 1,58,-1
 164 200 l 1,59,-1
 164 211 l 1,56,-1
27 174 m 1,60,-1
 55 174 l 1,61,-1
 55 163 l 1,62,-1
 27 163 l 1,63,-1
 27 174 l 1,60,-1
191 174 m 1,64,-1
 219 174 l 1,65,-1
 219 163 l 1,66,-1
 191 163 l 1,67,-1
 191 174 l 1,64,-1
27 138 m 1,68,-1
 55 138 l 1,69,-1
 55 127 l 1,70,-1
 27 127 l 1,71,-1
 27 138 l 1,68,-1
191 138 m 1,72,-1
 219 138 l 1,73,-1
 219 127 l 1,74,-1
 191 127 l 1,75,-1
 191 138 l 1,72,-1
27 101 m 1,76,-1
 55 101 l 1,77,-1
 55 90 l 1,78,-1
 27 90 l 1,79,-1
 27 101 l 1,76,-1
191 101 m 1,80,-1
 219 101 l 1,81,-1
 219 90 l 1,82,-1
 191 90 l 1,83,-1
 191 101 l 1,80,-1
27 64 m 1,84,-1
 55 64 l 1,85,-1
 55 53 l 1,86,-1
 27 53 l 1,87,-1
 27 64 l 1,84,-1
191 64 m 1,88,-1
 219 64 l 1,89,-1
 219 53 l 1,90,-1
 191 53 l 1,91,-1
 191 64 l 1,88,-1
EndSplineSet
EndChar

StartChar: I
Encoding: 73 73 44
Width: 246
Flags: W
LayerCount: 2
Fore
SplineSet
82 358 m 1,0,-1
 109 358 l 1,1,-1
 109 347 l 1,2,-1
 82 347 l 1,3,-1
 82 358 l 1,0,-1
54 358 m 1,4,-1
 82 358 l 1,5,-1
 82 347 l 1,6,-1
 54 347 l 1,7,-1
 54 358 l 1,4,-1
136 358 m 1,8,-1
 164 358 l 1,9,-1
 164 347 l 1,10,-1
 136 347 l 1,11,-1
 136 358 l 1,8,-1
109 358 m 1,12,-1
 136 358 l 1,13,-1
 136 347 l 1,14,-1
 109 347 l 1,15,-1
 109 358 l 1,12,-1
164 358 m 1,16,-1
 191 358 l 1,17,-1
 191 347 l 1,18,-1
 164 347 l 1,19,-1
 164 358 l 1,16,-1
109 321 m 1,20,-1
 136 321 l 1,21,-1
 136 310 l 1,22,-1
 109 310 l 1,23,-1
 109 321 l 1,20,-1
109 284 m 1,24,-1
 136 284 l 1,25,-1
 136 273 l 1,26,-1
 109 273 l 1,27,-1
 109 284 l 1,24,-1
109 248 m 1,28,-1
 136 248 l 1,29,-1
 136 237 l 1,30,-1
 109 237 l 1,31,-1
 109 248 l 1,28,-1
109 211 m 1,32,-1
 136 211 l 1,33,-1
 136 200 l 1,34,-1
 109 200 l 1,35,-1
 109 211 l 1,32,-1
109 174 m 1,36,-1
 136 174 l 1,37,-1
 136 163 l 1,38,-1
 109 163 l 1,39,-1
 109 174 l 1,36,-1
109 138 m 1,40,-1
 136 138 l 1,41,-1
 136 127 l 1,42,-1
 109 127 l 1,43,-1
 109 138 l 1,40,-1
109 101 m 1,44,-1
 136 101 l 1,45,-1
 136 90 l 1,46,-1
 109 90 l 1,47,-1
 109 101 l 1,44,-1
82 64 m 1,48,-1
 109 64 l 1,49,-1
 109 53 l 1,50,-1
 82 53 l 1,51,-1
 82 64 l 1,48,-1
54 64 m 1,52,-1
 82 64 l 1,53,-1
 82 53 l 1,54,-1
 54 53 l 1,55,-1
 54 64 l 1,52,-1
136 64 m 1,56,-1
 164 64 l 1,57,-1
 164 53 l 1,58,-1
 136 53 l 1,59,-1
 136 64 l 1,56,-1
109 64 m 1,60,-1
 136 64 l 1,61,-1
 136 53 l 1,62,-1
 109 53 l 1,63,-1
 109 64 l 1,60,-1
164 64 m 1,64,-1
 191 64 l 1,65,-1
 191 53 l 1,66,-1
 164 53 l 1,67,-1
 164 64 l 1,64,-1
EndSplineSet
EndChar

StartChar: J
Encoding: 74 74 45
Width: 246
Flags: W
LayerCount: 2
Fore
SplineSet
27 358 m 1,0,-1
 54 358 l 1,1,-1
 54 347 l 1,2,-1
 27 347 l 1,3,-1
 27 358 l 1,0,-1
82 358 m 1,4,-1
 109 358 l 1,5,-1
 109 347 l 1,6,-1
 82 347 l 1,7,-1
 82 358 l 1,4,-1
54 358 m 1,8,-1
 82 358 l 1,9,-1
 82 347 l 1,10,-1
 54 347 l 1,11,-1
 54 358 l 1,8,-1
136 358 m 1,12,-1
 164 358 l 1,13,-1
 164 347 l 1,14,-1
 136 347 l 1,15,-1
 136 358 l 1,12,-1
109 358 m 1,16,-1
 136 358 l 1,17,-1
 136 347 l 1,18,-1
 109 347 l 1,19,-1
 109 358 l 1,16,-1
191 358 m 1,20,-1
 219 358 l 1,21,-1
 219 347 l 1,22,-1
 191 347 l 1,23,-1
 191 358 l 1,20,-1
164 358 m 1,24,-1
 191 358 l 1,25,-1
 191 347 l 1,26,-1
 164 347 l 1,27,-1
 164 358 l 1,24,-1
136 321 m 1,28,-1
 164 321 l 1,29,-1
 164 310 l 1,30,-1
 136 310 l 1,31,-1
 136 321 l 1,28,-1
136 284 m 1,32,-1
 164 284 l 1,33,-1
 164 273 l 1,34,-1
 136 273 l 1,35,-1
 136 284 l 1,32,-1
136 248 m 1,36,-1
 164 248 l 1,37,-1
 164 237 l 1,38,-1
 136 237 l 1,39,-1
 136 248 l 1,36,-1
136 211 m 1,40,-1
 164 211 l 1,41,-1
 164 200 l 1,42,-1
 136 200 l 1,43,-1
 136 211 l 1,40,-1
136 174 m 1,44,-1
 164 174 l 1,45,-1
 164 163 l 1,46,-1
 136 163 l 1,47,-1
 136 174 l 1,44,-1
27 138 m 1,48,-1
 54 138 l 1,49,-1
 54 127 l 1,50,-1
 27 127 l 1,51,-1
 27 138 l 1,48,-1
136 138 m 1,52,-1
 164 138 l 1,53,-1
 164 127 l 1,54,-1
 136 127 l 1,55,-1
 136 138 l 1,52,-1
27 101 m 1,56,-1
 54 101 l 1,57,-1
 54 90 l 1,58,-1
 27 90 l 1,59,-1
 27 101 l 1,56,-1
136 101 m 1,60,-1
 164 101 l 1,61,-1
 164 90 l 1,62,-1
 136 90 l 1,63,-1
 136 101 l 1,60,-1
82 64 m 1,64,-1
 109 64 l 1,65,-1
 109 53 l 1,66,-1
 82 53 l 1,67,-1
 82 64 l 1,64,-1
54 64 m 1,68,-1
 82 64 l 1,69,-1
 82 53 l 1,70,-1
 54 53 l 1,71,-1
 54 64 l 1,68,-1
109 64 m 1,72,-1
 136 64 l 1,73,-1
 136 53 l 1,74,-1
 109 53 l 1,75,-1
 109 64 l 1,72,-1
EndSplineSet
EndChar

StartChar: K
Encoding: 75 75 46
Width: 246
Flags: W
LayerCount: 2
Fore
SplineSet
27 358 m 1,0,-1
 55 358 l 1,1,-1
 55 347 l 1,2,-1
 27 347 l 1,3,-1
 27 358 l 1,0,-1
55 358 m 1,4,-1
 82 358 l 1,5,-1
 82 347 l 1,6,-1
 55 347 l 1,7,-1
 55 358 l 1,4,-1
192 358 m 1,8,-1
 219 358 l 1,9,-1
 219 347 l 1,10,-1
 192 347 l 1,11,-1
 192 358 l 1,8,-1
55 321 m 1,12,-1
 82 321 l 1,13,-1
 82 310 l 1,14,-1
 55 310 l 1,15,-1
 55 321 l 1,12,-1
192 321 m 1,16,-1
 219 321 l 1,17,-1
 219 310 l 1,18,-1
 192 310 l 1,19,-1
 192 321 l 1,16,-1
55 284 m 1,20,-1
 82 284 l 1,21,-1
 82 273 l 1,22,-1
 55 273 l 1,23,-1
 55 284 l 1,20,-1
164 284 m 1,24,-1
 192 284 l 1,25,-1
 192 273 l 1,26,-1
 164 273 l 1,27,-1
 164 284 l 1,24,-1
55 248 m 1,28,-1
 82 248 l 1,29,-1
 82 237 l 1,30,-1
 55 237 l 1,31,-1
 55 248 l 1,28,-1
137 248 m 1,32,-1
 164 248 l 1,33,-1
 164 237 l 1,34,-1
 137 237 l 1,35,-1
 137 248 l 1,32,-1
82 211 m 1,36,-1
 110 211 l 1,37,-1
 110 200 l 1,38,-1
 82 200 l 1,39,-1
 82 211 l 1,36,-1
55 211 m 1,40,-1
 82 211 l 1,41,-1
 82 200 l 1,42,-1
 55 200 l 1,43,-1
 55 211 l 1,40,-1
110 211 m 1,44,-1
 137 211 l 1,45,-1
 137 200 l 1,46,-1
 110 200 l 1,47,-1
 110 211 l 1,44,-1
55 174 m 1,48,-1
 82 174 l 1,49,-1
 82 163 l 1,50,-1
 55 163 l 1,51,-1
 55 174 l 1,48,-1
137 174 m 1,52,-1
 164 174 l 1,53,-1
 164 163 l 1,54,-1
 137 163 l 1,55,-1
 137 174 l 1,52,-1
55 138 m 1,56,-1
 82 138 l 1,57,-1
 82 127 l 1,58,-1
 55 127 l 1,59,-1
 55 138 l 1,56,-1
164 138 m 1,60,-1
 192 138 l 1,61,-1
 192 127 l 1,62,-1
 164 127 l 1,63,-1
 164 138 l 1,60,-1
55 101 m 1,64,-1
 82 101 l 1,65,-1
 82 90 l 1,66,-1
 55 90 l 1,67,-1
 55 101 l 1,64,-1
192 101 m 1,68,-1
 219 101 l 1,69,-1
 219 90 l 1,70,-1
 192 90 l 1,71,-1
 192 101 l 1,68,-1
27 64 m 1,72,-1
 55 64 l 1,73,-1
 55 53 l 1,74,-1
 27 53 l 1,75,-1
 27 64 l 1,72,-1
55 64 m 1,76,-1
 82 64 l 1,77,-1
 82 53 l 1,78,-1
 55 53 l 1,79,-1
 55 64 l 1,76,-1
192 64 m 1,80,-1
 219 64 l 1,81,-1
 219 53 l 1,82,-1
 192 53 l 1,83,-1
 192 64 l 1,80,-1
EndSplineSet
EndChar

StartChar: L
Encoding: 76 76 47
Width: 246
Flags: W
LayerCount: 2
Fore
SplineSet
27 358 m 1,0,-1
 55 358 l 1,1,-1
 55 347 l 1,2,-1
 27 347 l 1,3,-1
 27 358 l 1,0,-1
82 358 m 1,4,-1
 109 358 l 1,5,-1
 109 347 l 1,6,-1
 82 347 l 1,7,-1
 82 358 l 1,4,-1
55 358 m 1,8,-1
 82 358 l 1,9,-1
 82 347 l 1,10,-1
 55 347 l 1,11,-1
 55 358 l 1,8,-1
55 321 m 1,12,-1
 82 321 l 1,13,-1
 82 310 l 1,14,-1
 55 310 l 1,15,-1
 55 321 l 1,12,-1
55 284 m 1,16,-1
 82 284 l 1,17,-1
 82 273 l 1,18,-1
 55 273 l 1,19,-1
 55 284 l 1,16,-1
55 248 m 1,20,-1
 82 248 l 1,21,-1
 82 237 l 1,22,-1
 55 237 l 1,23,-1
 55 248 l 1,20,-1
55 211 m 1,24,-1
 82 211 l 1,25,-1
 82 200 l 1,26,-1
 55 200 l 1,27,-1
 55 211 l 1,24,-1
55 174 m 1,28,-1
 82 174 l 1,29,-1
 82 163 l 1,30,-1
 55 163 l 1,31,-1
 55 174 l 1,28,-1
55 138 m 1,32,-1
 82 138 l 1,33,-1
 82 127 l 1,34,-1
 55 127 l 1,35,-1
 55 138 l 1,32,-1
55 101 m 1,36,-1
 82 101 l 1,37,-1
 82 90 l 1,38,-1
 55 90 l 1,39,-1
 55 101 l 1,36,-1
192 101 m 1,40,-1
 219 101 l 1,41,-1
 219 90 l 1,42,-1
 192 90 l 1,43,-1
 192 101 l 1,40,-1
27 64 m 1,44,-1
 55 64 l 1,45,-1
 55 53 l 1,46,-1
 27 53 l 1,47,-1
 27 64 l 1,44,-1
82 64 m 1,48,-1
 109 64 l 1,49,-1
 109 53 l 1,50,-1
 82 53 l 1,51,-1
 82 64 l 1,48,-1
55 64 m 1,52,-1
 82 64 l 1,53,-1
 82 53 l 1,54,-1
 55 53 l 1,55,-1
 55 64 l 1,52,-1
137 64 m 1,56,-1
 164 64 l 1,57,-1
 164 53 l 1,58,-1
 137 53 l 1,59,-1
 137 64 l 1,56,-1
109 64 m 1,60,-1
 137 64 l 1,61,-1
 137 53 l 1,62,-1
 109 53 l 1,63,-1
 109 64 l 1,60,-1
192 64 m 1,64,-1
 219 64 l 1,65,-1
 219 53 l 1,66,-1
 192 53 l 1,67,-1
 192 64 l 1,64,-1
164 64 m 1,68,-1
 192 64 l 1,69,-1
 192 53 l 1,70,-1
 164 53 l 1,71,-1
 164 64 l 1,68,-1
EndSplineSet
EndChar

StartChar: M
Encoding: 77 77 48
Width: 246
Flags: W
LayerCount: 2
Fore
SplineSet
28 358 m 1,0,-1
 55 358 l 1,1,-1
 55 347 l 1,2,-1
 28 347 l 1,3,-1
 28 358 l 1,0,-1
192 358 m 1,4,-1
 219 358 l 1,5,-1
 219 347 l 1,6,-1
 192 347 l 1,7,-1
 192 358 l 1,4,-1
28 321 m 1,8,-1
 55 321 l 1,9,-1
 55 310 l 1,10,-1
 28 310 l 1,11,-1
 28 321 l 1,8,-1
192 321 m 1,12,-1
 219 321 l 1,13,-1
 219 310 l 1,14,-1
 192 310 l 1,15,-1
 192 321 l 1,12,-1
28 284 m 1,16,-1
 55 284 l 1,17,-1
 55 273 l 1,18,-1
 28 273 l 1,19,-1
 28 284 l 1,16,-1
55 284 m 1,20,-1
 82 284 l 1,21,-1
 82 273 l 1,22,-1
 55 273 l 1,23,-1
 55 284 l 1,20,-1
192 284 m 1,24,-1
 219 284 l 1,25,-1
 219 273 l 1,26,-1
 192 273 l 1,27,-1
 192 284 l 1,24,-1
164 284 m 1,28,-1
 192 284 l 1,29,-1
 192 273 l 1,30,-1
 164 273 l 1,31,-1
 164 284 l 1,28,-1
28 248 m 1,32,-1
 55 248 l 1,33,-1
 55 237 l 1,34,-1
 28 237 l 1,35,-1
 28 248 l 1,32,-1
82 248 m 1,36,-1
 110 248 l 1,37,-1
 110 237 l 1,38,-1
 82 237 l 1,39,-1
 82 248 l 1,36,-1
137 248 m 1,40,-1
 164 248 l 1,41,-1
 164 237 l 1,42,-1
 137 237 l 1,43,-1
 137 248 l 1,40,-1
192 248 m 1,44,-1
 219 248 l 1,45,-1
 219 237 l 1,46,-1
 192 237 l 1,47,-1
 192 248 l 1,44,-1
28 211 m 1,48,-1
 55 211 l 1,49,-1
 55 200 l 1,50,-1
 28 200 l 1,51,-1
 28 211 l 1,48,-1
110 211 m 1,52,-1
 137 211 l 1,53,-1
 137 200 l 1,54,-1
 110 200 l 1,55,-1
 110 211 l 1,52,-1
192 211 m 1,56,-1
 219 211 l 1,57,-1
 219 200 l 1,58,-1
 192 200 l 1,59,-1
 192 211 l 1,56,-1
28 174 m 1,60,-1
 55 174 l 1,61,-1
 55 163 l 1,62,-1
 28 163 l 1,63,-1
 28 174 l 1,60,-1
192 174 m 1,64,-1
 219 174 l 1,65,-1
 219 163 l 1,66,-1
 192 163 l 1,67,-1
 192 174 l 1,64,-1
28 138 m 1,68,-1
 55 138 l 1,69,-1
 55 127 l 1,70,-1
 28 127 l 1,71,-1
 28 138 l 1,68,-1
192 138 m 1,72,-1
 219 138 l 1,73,-1
 219 127 l 1,74,-1
 192 127 l 1,75,-1
 192 138 l 1,72,-1
28 101 m 1,76,-1
 55 101 l 1,77,-1
 55 90 l 1,78,-1
 28 90 l 1,79,-1
 28 101 l 1,76,-1
192 101 m 1,80,-1
 219 101 l 1,81,-1
 219 90 l 1,82,-1
 192 90 l 1,83,-1
 192 101 l 1,80,-1
28 64 m 1,84,-1
 55 64 l 1,85,-1
 55 53 l 1,86,-1
 28 53 l 1,87,-1
 28 64 l 1,84,-1
192 64 m 1,88,-1
 219 64 l 1,89,-1
 219 53 l 1,90,-1
 192 53 l 1,91,-1
 192 64 l 1,88,-1
EndSplineSet
EndChar

StartChar: N
Encoding: 78 78 49
Width: 246
Flags: W
LayerCount: 2
Fore
SplineSet
27 358 m 1,0,-1
 55 358 l 1,1,-1
 55 347 l 1,2,-1
 27 347 l 1,3,-1
 27 358 l 1,0,-1
191 358 m 1,4,-1
 219 358 l 1,5,-1
 219 347 l 1,6,-1
 191 347 l 1,7,-1
 191 358 l 1,4,-1
27 321 m 1,8,-1
 55 321 l 1,9,-1
 55 310 l 1,10,-1
 27 310 l 1,11,-1
 27 321 l 1,8,-1
191 321 m 1,12,-1
 219 321 l 1,13,-1
 219 310 l 1,14,-1
 191 310 l 1,15,-1
 191 321 l 1,12,-1
27 284 m 1,16,-1
 55 284 l 1,17,-1
 55 273 l 1,18,-1
 27 273 l 1,19,-1
 27 284 l 1,16,-1
55 284 m 1,20,-1
 82 284 l 1,21,-1
 82 273 l 1,22,-1
 55 273 l 1,23,-1
 55 284 l 1,20,-1
191 284 m 1,24,-1
 219 284 l 1,25,-1
 219 273 l 1,26,-1
 191 273 l 1,27,-1
 191 284 l 1,24,-1
27 248 m 1,28,-1
 55 248 l 1,29,-1
 55 237 l 1,30,-1
 27 237 l 1,31,-1
 27 248 l 1,28,-1
82 248 m 1,32,-1
 109 248 l 1,33,-1
 109 237 l 1,34,-1
 82 237 l 1,35,-1
 82 248 l 1,32,-1
191 248 m 1,36,-1
 219 248 l 1,37,-1
 219 237 l 1,38,-1
 191 237 l 1,39,-1
 191 248 l 1,36,-1
27 211 m 1,40,-1
 55 211 l 1,41,-1
 55 200 l 1,42,-1
 27 200 l 1,43,-1
 27 211 l 1,40,-1
109 211 m 1,44,-1
 137 211 l 1,45,-1
 137 200 l 1,46,-1
 109 200 l 1,47,-1
 109 211 l 1,44,-1
191 211 m 1,48,-1
 219 211 l 1,49,-1
 219 200 l 1,50,-1
 191 200 l 1,51,-1
 191 211 l 1,48,-1
27 174 m 1,52,-1
 55 174 l 1,53,-1
 55 163 l 1,54,-1
 27 163 l 1,55,-1
 27 174 l 1,52,-1
137 174 m 1,56,-1
 164 174 l 1,57,-1
 164 163 l 1,58,-1
 137 163 l 1,59,-1
 137 174 l 1,56,-1
191 174 m 1,60,-1
 219 174 l 1,61,-1
 219 163 l 1,62,-1
 191 163 l 1,63,-1
 191 174 l 1,60,-1
27 138 m 1,64,-1
 55 138 l 1,65,-1
 55 127 l 1,66,-1
 27 127 l 1,67,-1
 27 138 l 1,64,-1
191 138 m 1,68,-1
 219 138 l 1,69,-1
 219 127 l 1,70,-1
 191 127 l 1,71,-1
 191 138 l 1,68,-1
164 138 m 1,72,-1
 191 138 l 1,73,-1
 191 127 l 1,74,-1
 164 127 l 1,75,-1
 164 138 l 1,72,-1
27 101 m 1,76,-1
 55 101 l 1,77,-1
 55 90 l 1,78,-1
 27 90 l 1,79,-1
 27 101 l 1,76,-1
191 101 m 1,80,-1
 219 101 l 1,81,-1
 219 90 l 1,82,-1
 191 90 l 1,83,-1
 191 101 l 1,80,-1
27 64 m 1,84,-1
 55 64 l 1,85,-1
 55 53 l 1,86,-1
 27 53 l 1,87,-1
 27 64 l 1,84,-1
191 64 m 1,88,-1
 219 64 l 1,89,-1
 219 53 l 1,90,-1
 191 53 l 1,91,-1
 191 64 l 1,88,-1
EndSplineSet
EndChar

StartChar: O
Encoding: 79 79 50
Width: 246
Flags: W
LayerCount: 2
Fore
SplineSet
82 358 m 1,0,-1
 110 358 l 1,1,-1
 110 347 l 1,2,-1
 82 347 l 1,3,-1
 82 358 l 1,0,-1
55 358 m 1,4,-1
 82 358 l 1,5,-1
 82 347 l 1,6,-1
 55 347 l 1,7,-1
 55 358 l 1,4,-1
137 358 m 1,8,-1
 164 358 l 1,9,-1
 164 347 l 1,10,-1
 137 347 l 1,11,-1
 137 358 l 1,8,-1
109 358 m 1,12,-1
 137 358 l 1,13,-1
 137 347 l 1,14,-1
 109 347 l 1,15,-1
 109 358 l 1,12,-1
164 358 m 1,16,-1
 192 358 l 1,17,-1
 192 347 l 1,18,-1
 164 347 l 1,19,-1
 164 358 l 1,16,-1
27 321 m 1,20,-1
 55 321 l 1,21,-1
 55 310 l 1,22,-1
 27 310 l 1,23,-1
 27 321 l 1,20,-1
192 321 m 1,24,-1
 219 321 l 1,25,-1
 219 310 l 1,26,-1
 192 310 l 1,27,-1
 192 321 l 1,24,-1
27 284 m 1,28,-1
 55 284 l 1,29,-1
 55 273 l 1,30,-1
 27 273 l 1,31,-1
 27 284 l 1,28,-1
192 284 m 1,32,-1
 219 284 l 1,33,-1
 219 273 l 1,34,-1
 192 273 l 1,35,-1
 192 284 l 1,32,-1
27 248 m 1,36,-1
 55 248 l 1,37,-1
 55 237 l 1,38,-1
 27 237 l 1,39,-1
 27 248 l 1,36,-1
192 248 m 1,40,-1
 219 248 l 1,41,-1
 219 237 l 1,42,-1
 192 237 l 1,43,-1
 192 248 l 1,40,-1
27 211 m 1,44,-1
 55 211 l 1,45,-1
 55 200 l 1,46,-1
 27 200 l 1,47,-1
 27 211 l 1,44,-1
192 211 m 1,48,-1
 219 211 l 1,49,-1
 219 200 l 1,50,-1
 192 200 l 1,51,-1
 192 211 l 1,48,-1
27 174 m 1,52,-1
 55 174 l 1,53,-1
 55 163 l 1,54,-1
 27 163 l 1,55,-1
 27 174 l 1,52,-1
192 174 m 1,56,-1
 219 174 l 1,57,-1
 219 163 l 1,58,-1
 192 163 l 1,59,-1
 192 174 l 1,56,-1
27 138 m 1,60,-1
 55 138 l 1,61,-1
 55 127 l 1,62,-1
 27 127 l 1,63,-1
 27 138 l 1,60,-1
192 138 m 1,64,-1
 219 138 l 1,65,-1
 219 127 l 1,66,-1
 192 127 l 1,67,-1
 192 138 l 1,64,-1
27 101 m 1,68,-1
 55 101 l 1,69,-1
 55 90 l 1,70,-1
 27 90 l 1,71,-1
 27 101 l 1,68,-1
192 101 m 1,72,-1
 219 101 l 1,73,-1
 219 90 l 1,74,-1
 192 90 l 1,75,-1
 192 101 l 1,72,-1
82 64 m 1,76,-1
 110 64 l 1,77,-1
 110 53 l 1,78,-1
 82 53 l 1,79,-1
 82 64 l 1,76,-1
55 64 m 1,80,-1
 82 64 l 1,81,-1
 82 53 l 1,82,-1
 55 53 l 1,83,-1
 55 64 l 1,80,-1
137 64 m 1,84,-1
 164 64 l 1,85,-1
 164 53 l 1,86,-1
 137 53 l 1,87,-1
 137 64 l 1,84,-1
109 64 m 1,88,-1
 137 64 l 1,89,-1
 137 53 l 1,90,-1
 109 53 l 1,91,-1
 109 64 l 1,88,-1
164 64 m 1,92,-1
 192 64 l 1,93,-1
 192 53 l 1,94,-1
 164 53 l 1,95,-1
 164 64 l 1,92,-1
EndSplineSet
EndChar

StartChar: P
Encoding: 80 80 51
Width: 246
Flags: W
LayerCount: 2
Fore
SplineSet
27 358 m 1,0,-1
 55 358 l 1,1,-1
 55 347 l 1,2,-1
 27 347 l 1,3,-1
 27 358 l 1,0,-1
82 358 m 1,4,-1
 109 358 l 1,5,-1
 109 347 l 1,6,-1
 82 347 l 1,7,-1
 82 358 l 1,4,-1
55 358 m 1,8,-1
 82 358 l 1,9,-1
 82 347 l 1,10,-1
 55 347 l 1,11,-1
 55 358 l 1,8,-1
137 358 m 1,12,-1
 164 358 l 1,13,-1
 164 347 l 1,14,-1
 137 347 l 1,15,-1
 137 358 l 1,12,-1
109 358 m 1,16,-1
 137 358 l 1,17,-1
 137 347 l 1,18,-1
 109 347 l 1,19,-1
 109 358 l 1,16,-1
164 358 m 1,20,-1
 191 358 l 1,21,-1
 191 347 l 1,22,-1
 164 347 l 1,23,-1
 164 358 l 1,20,-1
27 321 m 1,24,-1
 55 321 l 1,25,-1
 55 310 l 1,26,-1
 27 310 l 1,27,-1
 27 321 l 1,24,-1
191 321 m 1,28,-1
 219 321 l 1,29,-1
 219 310 l 1,30,-1
 191 310 l 1,31,-1
 191 321 l 1,28,-1
27 284 m 1,32,-1
 55 284 l 1,33,-1
 55 273 l 1,34,-1
 27 273 l 1,35,-1
 27 284 l 1,32,-1
191 284 m 1,36,-1
 219 284 l 1,37,-1
 219 273 l 1,38,-1
 191 273 l 1,39,-1
 191 284 l 1,36,-1
27 248 m 1,40,-1
 55 248 l 1,41,-1
 55 237 l 1,42,-1
 27 237 l 1,43,-1
 27 248 l 1,40,-1
191 248 m 1,44,-1
 219 248 l 1,45,-1
 219 237 l 1,46,-1
 191 237 l 1,47,-1
 191 248 l 1,44,-1
27 211 m 1,48,-1
 55 211 l 1,49,-1
 55 200 l 1,50,-1
 27 200 l 1,51,-1
 27 211 l 1,48,-1
82 211 m 1,52,-1
 109 211 l 1,53,-1
 109 200 l 1,54,-1
 82 200 l 1,55,-1
 82 211 l 1,52,-1
55 211 m 1,56,-1
 82 211 l 1,57,-1
 82 200 l 1,58,-1
 55 200 l 1,59,-1
 55 211 l 1,56,-1
137 211 m 1,60,-1
 164 211 l 1,61,-1
 164 200 l 1,62,-1
 137 200 l 1,63,-1
 137 211 l 1,60,-1
109 211 m 1,64,-1
 137 211 l 1,65,-1
 137 200 l 1,66,-1
 109 200 l 1,67,-1
 109 211 l 1,64,-1
164 211 m 1,68,-1
 191 211 l 1,69,-1
 191 200 l 1,70,-1
 164 200 l 1,71,-1
 164 211 l 1,68,-1
27 174 m 1,72,-1
 55 174 l 1,73,-1
 55 163 l 1,74,-1
 27 163 l 1,75,-1
 27 174 l 1,72,-1
27 138 m 1,76,-1
 55 138 l 1,77,-1
 55 127 l 1,78,-1
 27 127 l 1,79,-1
 27 138 l 1,76,-1
27 101 m 1,80,-1
 55 101 l 1,81,-1
 55 90 l 1,82,-1
 27 90 l 1,83,-1
 27 101 l 1,80,-1
27 64 m 1,84,-1
 55 64 l 1,85,-1
 55 53 l 1,86,-1
 27 53 l 1,87,-1
 27 64 l 1,84,-1
EndSplineSet
EndChar

StartChar: Q
Encoding: 81 81 52
Width: 246
Flags: W
LayerCount: 2
Fore
SplineSet
82 358 m 1,0,-1
 109 358 l 1,1,-1
 109 347 l 1,2,-1
 82 347 l 1,3,-1
 82 358 l 1,0,-1
54 358 m 1,4,-1
 82 358 l 1,5,-1
 82 347 l 1,6,-1
 54 347 l 1,7,-1
 54 358 l 1,4,-1
136 358 m 1,8,-1
 164 358 l 1,9,-1
 164 347 l 1,10,-1
 136 347 l 1,11,-1
 136 358 l 1,8,-1
109 358 m 1,12,-1
 136 358 l 1,13,-1
 136 347 l 1,14,-1
 109 347 l 1,15,-1
 109 358 l 1,12,-1
164 358 m 1,16,-1
 191 358 l 1,17,-1
 191 347 l 1,18,-1
 164 347 l 1,19,-1
 164 358 l 1,16,-1
27 321 m 1,20,-1
 54 321 l 1,21,-1
 54 310 l 1,22,-1
 27 310 l 1,23,-1
 27 321 l 1,20,-1
191 321 m 1,24,-1
 218 321 l 1,25,-1
 218 310 l 1,26,-1
 191 310 l 1,27,-1
 191 321 l 1,24,-1
27 284 m 1,28,-1
 54 284 l 1,29,-1
 54 273 l 1,30,-1
 27 273 l 1,31,-1
 27 284 l 1,28,-1
191 284 m 1,32,-1
 218 284 l 1,33,-1
 218 273 l 1,34,-1
 191 273 l 1,35,-1
 191 284 l 1,32,-1
27 248 m 1,36,-1
 54 248 l 1,37,-1
 54 237 l 1,38,-1
 27 237 l 1,39,-1
 27 248 l 1,36,-1
191 248 m 1,40,-1
 218 248 l 1,41,-1
 218 237 l 1,42,-1
 191 237 l 1,43,-1
 191 248 l 1,40,-1
27 211 m 1,44,-1
 54 211 l 1,45,-1
 54 200 l 1,46,-1
 27 200 l 1,47,-1
 27 211 l 1,44,-1
191 211 m 1,48,-1
 218 211 l 1,49,-1
 218 200 l 1,50,-1
 191 200 l 1,51,-1
 191 211 l 1,48,-1
27 174 m 1,52,-1
 54 174 l 1,53,-1
 54 163 l 1,54,-1
 27 163 l 1,55,-1
 27 174 l 1,52,-1
109 174 m 1,56,-1
 136 174 l 1,57,-1
 136 163 l 1,58,-1
 109 163 l 1,59,-1
 109 174 l 1,56,-1
191 174 m 1,60,-1
 218 174 l 1,61,-1
 218 163 l 1,62,-1
 191 163 l 1,63,-1
 191 174 l 1,60,-1
27 138 m 1,64,-1
 54 138 l 1,65,-1
 54 127 l 1,66,-1
 27 127 l 1,67,-1
 27 138 l 1,64,-1
136 138 m 1,68,-1
 164 138 l 1,69,-1
 164 127 l 1,70,-1
 136 127 l 1,71,-1
 136 138 l 1,68,-1
191 138 m 1,72,-1
 218 138 l 1,73,-1
 218 127 l 1,74,-1
 191 127 l 1,75,-1
 191 138 l 1,72,-1
27 101 m 1,76,-1
 54 101 l 1,77,-1
 54 90 l 1,78,-1
 27 90 l 1,79,-1
 27 101 l 1,76,-1
164 101 m 1,80,-1
 191 101 l 1,81,-1
 191 90 l 1,82,-1
 164 90 l 1,83,-1
 164 101 l 1,80,-1
82 64 m 1,84,-1
 109 64 l 1,85,-1
 109 53 l 1,86,-1
 82 53 l 1,87,-1
 82 64 l 1,84,-1
54 64 m 1,88,-1
 82 64 l 1,89,-1
 82 53 l 1,90,-1
 54 53 l 1,91,-1
 54 64 l 1,88,-1
136 64 m 1,92,-1
 164 64 l 1,93,-1
 164 53 l 1,94,-1
 136 53 l 1,95,-1
 136 64 l 1,92,-1
109 64 m 1,96,-1
 136 64 l 1,97,-1
 136 53 l 1,98,-1
 109 53 l 1,99,-1
 109 64 l 1,96,-1
191 64 m 1,100,-1
 218 64 l 1,101,-1
 218 53 l 1,102,-1
 191 53 l 1,103,-1
 191 64 l 1,100,-1
164 64 m 1,104,-1
 191 64 l 1,105,-1
 191 53 l 1,106,-1
 164 53 l 1,107,-1
 164 64 l 1,104,-1
EndSplineSet
EndChar

StartChar: R
Encoding: 82 82 53
Width: 246
Flags: W
LayerCount: 2
Fore
SplineSet
27 358 m 1,0,-1
 55 358 l 1,1,-1
 55 347 l 1,2,-1
 27 347 l 1,3,-1
 27 358 l 1,0,-1
82 358 m 1,4,-1
 109 358 l 1,5,-1
 109 347 l 1,6,-1
 82 347 l 1,7,-1
 82 358 l 1,4,-1
55 358 m 1,8,-1
 82 358 l 1,9,-1
 82 347 l 1,10,-1
 55 347 l 1,11,-1
 55 358 l 1,8,-1
137 358 m 1,12,-1
 164 358 l 1,13,-1
 164 347 l 1,14,-1
 137 347 l 1,15,-1
 137 358 l 1,12,-1
109 358 m 1,16,-1
 137 358 l 1,17,-1
 137 347 l 1,18,-1
 109 347 l 1,19,-1
 109 358 l 1,16,-1
164 358 m 1,20,-1
 192 358 l 1,21,-1
 192 347 l 1,22,-1
 164 347 l 1,23,-1
 164 358 l 1,20,-1
27 321 m 1,24,-1
 55 321 l 1,25,-1
 55 310 l 1,26,-1
 27 310 l 1,27,-1
 27 321 l 1,24,-1
192 321 m 1,28,-1
 219 321 l 1,29,-1
 219 310 l 1,30,-1
 192 310 l 1,31,-1
 192 321 l 1,28,-1
27 284 m 1,32,-1
 55 284 l 1,33,-1
 55 273 l 1,34,-1
 27 273 l 1,35,-1
 27 284 l 1,32,-1
192 284 m 1,36,-1
 219 284 l 1,37,-1
 219 273 l 1,38,-1
 192 273 l 1,39,-1
 192 284 l 1,36,-1
27 248 m 1,40,-1
 55 248 l 1,41,-1
 55 237 l 1,42,-1
 27 237 l 1,43,-1
 27 248 l 1,40,-1
192 248 m 1,44,-1
 219 248 l 1,45,-1
 219 237 l 1,46,-1
 192 237 l 1,47,-1
 192 248 l 1,44,-1
27 211 m 1,48,-1
 55 211 l 1,49,-1
 55 200 l 1,50,-1
 27 200 l 1,51,-1
 27 211 l 1,48,-1
82 211 m 1,52,-1
 109 211 l 1,53,-1
 109 200 l 1,54,-1
 82 200 l 1,55,-1
 82 211 l 1,52,-1
55 211 m 1,56,-1
 82 211 l 1,57,-1
 82 200 l 1,58,-1
 55 200 l 1,59,-1
 55 211 l 1,56,-1
137 211 m 1,60,-1
 164 211 l 1,61,-1
 164 200 l 1,62,-1
 137 200 l 1,63,-1
 137 211 l 1,60,-1
109 211 m 1,64,-1
 137 211 l 1,65,-1
 137 200 l 1,66,-1
 109 200 l 1,67,-1
 109 211 l 1,64,-1
164 211 m 1,68,-1
 192 211 l 1,69,-1
 192 200 l 1,70,-1
 164 200 l 1,71,-1
 164 211 l 1,68,-1
27 174 m 1,72,-1
 55 174 l 1,73,-1
 55 163 l 1,74,-1
 27 163 l 1,75,-1
 27 174 l 1,72,-1
109 174 m 1,76,-1
 137 174 l 1,77,-1
 137 163 l 1,78,-1
 109 163 l 1,79,-1
 109 174 l 1,76,-1
27 138 m 1,80,-1
 55 138 l 1,81,-1
 55 127 l 1,82,-1
 27 127 l 1,83,-1
 27 138 l 1,80,-1
137 138 m 1,84,-1
 164 138 l 1,85,-1
 164 127 l 1,86,-1
 137 127 l 1,87,-1
 137 138 l 1,84,-1
27 101 m 1,88,-1
 55 101 l 1,89,-1
 55 90 l 1,90,-1
 27 90 l 1,91,-1
 27 101 l 1,88,-1
164 101 m 1,92,-1
 192 101 l 1,93,-1
 192 90 l 1,94,-1
 164 90 l 1,95,-1
 164 101 l 1,92,-1
27 64 m 1,96,-1
 55 64 l 1,97,-1
 55 53 l 1,98,-1
 27 53 l 1,99,-1
 27 64 l 1,96,-1
192 64 m 1,100,-1
 219 64 l 1,101,-1
 219 53 l 1,102,-1
 192 53 l 1,103,-1
 192 64 l 1,100,-1
EndSplineSet
EndChar

StartChar: S
Encoding: 83 83 54
Width: 246
Flags: W
LayerCount: 2
Fore
SplineSet
82 358 m 1,0,-1
 110 358 l 1,1,-1
 110 347 l 1,2,-1
 82 347 l 1,3,-1
 82 358 l 1,0,-1
55 358 m 1,4,-1
 82 358 l 1,5,-1
 82 347 l 1,6,-1
 55 347 l 1,7,-1
 55 358 l 1,4,-1
137 358 m 1,8,-1
 164 358 l 1,9,-1
 164 347 l 1,10,-1
 137 347 l 1,11,-1
 137 358 l 1,8,-1
109 358 m 1,12,-1
 137 358 l 1,13,-1
 137 347 l 1,14,-1
 109 347 l 1,15,-1
 109 358 l 1,12,-1
164 358 m 1,16,-1
 192 358 l 1,17,-1
 192 347 l 1,18,-1
 164 347 l 1,19,-1
 164 358 l 1,16,-1
27 321 m 1,20,-1
 55 321 l 1,21,-1
 55 310 l 1,22,-1
 27 310 l 1,23,-1
 27 321 l 1,20,-1
192 321 m 1,24,-1
 219 321 l 1,25,-1
 219 310 l 1,26,-1
 192 310 l 1,27,-1
 192 321 l 1,24,-1
27 284 m 1,28,-1
 55 284 l 1,29,-1
 55 273 l 1,30,-1
 27 273 l 1,31,-1
 27 284 l 1,28,-1
27 248 m 1,32,-1
 55 248 l 1,33,-1
 55 237 l 1,34,-1
 27 237 l 1,35,-1
 27 248 l 1,32,-1
55 248 m 1,36,-1
 82 248 l 1,37,-1
 82 237 l 1,38,-1
 55 237 l 1,39,-1
 55 248 l 1,36,-1
82 211 m 1,40,-1
 110 211 l 1,41,-1
 110 200 l 1,42,-1
 82 200 l 1,43,-1
 82 211 l 1,40,-1
137 211 m 1,44,-1
 164 211 l 1,45,-1
 164 200 l 1,46,-1
 137 200 l 1,47,-1
 137 211 l 1,44,-1
109 211 m 1,48,-1
 137 211 l 1,49,-1
 137 200 l 1,50,-1
 109 200 l 1,51,-1
 109 211 l 1,48,-1
192 174 m 1,52,-1
 219 174 l 1,53,-1
 219 163 l 1,54,-1
 192 163 l 1,55,-1
 192 174 l 1,52,-1
164 174 m 1,56,-1
 192 174 l 1,57,-1
 192 163 l 1,58,-1
 164 163 l 1,59,-1
 164 174 l 1,56,-1
192 138 m 1,60,-1
 219 138 l 1,61,-1
 219 127 l 1,62,-1
 192 127 l 1,63,-1
 192 138 l 1,60,-1
27 101 m 1,64,-1
 55 101 l 1,65,-1
 55 90 l 1,66,-1
 27 90 l 1,67,-1
 27 101 l 1,64,-1
192 101 m 1,68,-1
 219 101 l 1,69,-1
 219 90 l 1,70,-1
 192 90 l 1,71,-1
 192 101 l 1,68,-1
82 64 m 1,72,-1
 110 64 l 1,73,-1
 110 53 l 1,74,-1
 82 53 l 1,75,-1
 82 64 l 1,72,-1
55 64 m 1,76,-1
 82 64 l 1,77,-1
 82 53 l 1,78,-1
 55 53 l 1,79,-1
 55 64 l 1,76,-1
137 64 m 1,80,-1
 164 64 l 1,81,-1
 164 53 l 1,82,-1
 137 53 l 1,83,-1
 137 64 l 1,80,-1
109 64 m 1,84,-1
 137 64 l 1,85,-1
 137 53 l 1,86,-1
 109 53 l 1,87,-1
 109 64 l 1,84,-1
164 64 m 1,88,-1
 192 64 l 1,89,-1
 192 53 l 1,90,-1
 164 53 l 1,91,-1
 164 64 l 1,88,-1
EndSplineSet
EndChar

StartChar: T
Encoding: 84 84 55
Width: 246
Flags: W
LayerCount: 2
Fore
SplineSet
28 358 m 1,0,-1
 55 358 l 1,1,-1
 55 347 l 1,2,-1
 28 347 l 1,3,-1
 28 358 l 1,0,-1
82 358 m 1,4,-1
 110 358 l 1,5,-1
 110 347 l 1,6,-1
 82 347 l 1,7,-1
 82 358 l 1,4,-1
55 358 m 1,8,-1
 82 358 l 1,9,-1
 82 347 l 1,10,-1
 55 347 l 1,11,-1
 55 358 l 1,8,-1
137 358 m 1,12,-1
 164 358 l 1,13,-1
 164 347 l 1,14,-1
 137 347 l 1,15,-1
 137 358 l 1,12,-1
110 358 m 1,16,-1
 137 358 l 1,17,-1
 137 347 l 1,18,-1
 110 347 l 1,19,-1
 110 358 l 1,16,-1
192 358 m 1,20,-1
 219 358 l 1,21,-1
 219 347 l 1,22,-1
 192 347 l 1,23,-1
 192 358 l 1,20,-1
164 358 m 1,24,-1
 192 358 l 1,25,-1
 192 347 l 1,26,-1
 164 347 l 1,27,-1
 164 358 l 1,24,-1
28 321 m 1,28,-1
 55 321 l 1,29,-1
 55 310 l 1,30,-1
 28 310 l 1,31,-1
 28 321 l 1,28,-1
110 321 m 1,32,-1
 137 321 l 1,33,-1
 137 310 l 1,34,-1
 110 310 l 1,35,-1
 110 321 l 1,32,-1
192 321 m 1,36,-1
 219 321 l 1,37,-1
 219 310 l 1,38,-1
 192 310 l 1,39,-1
 192 321 l 1,36,-1
110 284 m 1,40,-1
 137 284 l 1,41,-1
 137 273 l 1,42,-1
 110 273 l 1,43,-1
 110 284 l 1,40,-1
110 248 m 1,44,-1
 137 248 l 1,45,-1
 137 237 l 1,46,-1
 110 237 l 1,47,-1
 110 248 l 1,44,-1
110 211 m 1,48,-1
 137 211 l 1,49,-1
 137 200 l 1,50,-1
 110 200 l 1,51,-1
 110 211 l 1,48,-1
110 174 m 1,52,-1
 137 174 l 1,53,-1
 137 163 l 1,54,-1
 110 163 l 1,55,-1
 110 174 l 1,52,-1
110 138 m 1,56,-1
 137 138 l 1,57,-1
 137 127 l 1,58,-1
 110 127 l 1,59,-1
 110 138 l 1,56,-1
110 101 m 1,60,-1
 137 101 l 1,61,-1
 137 90 l 1,62,-1
 110 90 l 1,63,-1
 110 101 l 1,60,-1
82 64 m 1,64,-1
 110 64 l 1,65,-1
 110 53 l 1,66,-1
 82 53 l 1,67,-1
 82 64 l 1,64,-1
137 64 m 1,68,-1
 164 64 l 1,69,-1
 164 53 l 1,70,-1
 137 53 l 1,71,-1
 137 64 l 1,68,-1
110 64 m 1,72,-1
 137 64 l 1,73,-1
 137 53 l 1,74,-1
 110 53 l 1,75,-1
 110 64 l 1,72,-1
EndSplineSet
EndChar

StartChar: U
Encoding: 85 85 56
Width: 246
Flags: W
LayerCount: 2
Fore
SplineSet
27 358 m 1,0,-1
 55 358 l 1,1,-1
 55 347 l 1,2,-1
 27 347 l 1,3,-1
 27 358 l 1,0,-1
191 358 m 1,4,-1
 219 358 l 1,5,-1
 219 347 l 1,6,-1
 191 347 l 1,7,-1
 191 358 l 1,4,-1
27 321 m 1,8,-1
 55 321 l 1,9,-1
 55 310 l 1,10,-1
 27 310 l 1,11,-1
 27 321 l 1,8,-1
191 321 m 1,12,-1
 219 321 l 1,13,-1
 219 310 l 1,14,-1
 191 310 l 1,15,-1
 191 321 l 1,12,-1
27 284 m 1,16,-1
 55 284 l 1,17,-1
 55 273 l 1,18,-1
 27 273 l 1,19,-1
 27 284 l 1,16,-1
191 284 m 1,20,-1
 219 284 l 1,21,-1
 219 273 l 1,22,-1
 191 273 l 1,23,-1
 191 284 l 1,20,-1
27 248 m 1,24,-1
 55 248 l 1,25,-1
 55 237 l 1,26,-1
 27 237 l 1,27,-1
 27 248 l 1,24,-1
191 248 m 1,28,-1
 219 248 l 1,29,-1
 219 237 l 1,30,-1
 191 237 l 1,31,-1
 191 248 l 1,28,-1
27 211 m 1,32,-1
 55 211 l 1,33,-1
 55 200 l 1,34,-1
 27 200 l 1,35,-1
 27 211 l 1,32,-1
191 211 m 1,36,-1
 219 211 l 1,37,-1
 219 200 l 1,38,-1
 191 200 l 1,39,-1
 191 211 l 1,36,-1
27 174 m 1,40,-1
 55 174 l 1,41,-1
 55 163 l 1,42,-1
 27 163 l 1,43,-1
 27 174 l 1,40,-1
191 174 m 1,44,-1
 219 174 l 1,45,-1
 219 163 l 1,46,-1
 191 163 l 1,47,-1
 191 174 l 1,44,-1
27 138 m 1,48,-1
 55 138 l 1,49,-1
 55 127 l 1,50,-1
 27 127 l 1,51,-1
 27 138 l 1,48,-1
191 138 m 1,52,-1
 219 138 l 1,53,-1
 219 127 l 1,54,-1
 191 127 l 1,55,-1
 191 138 l 1,52,-1
27 101 m 1,56,-1
 55 101 l 1,57,-1
 55 90 l 1,58,-1
 27 90 l 1,59,-1
 27 101 l 1,56,-1
191 101 m 1,60,-1
 219 101 l 1,61,-1
 219 90 l 1,62,-1
 191 90 l 1,63,-1
 191 101 l 1,60,-1
82 64 m 1,64,-1
 109 64 l 1,65,-1
 109 53 l 1,66,-1
 82 53 l 1,67,-1
 82 64 l 1,64,-1
55 64 m 1,68,-1
 82 64 l 1,69,-1
 82 53 l 1,70,-1
 55 53 l 1,71,-1
 55 64 l 1,68,-1
137 64 m 1,72,-1
 164 64 l 1,73,-1
 164 53 l 1,74,-1
 137 53 l 1,75,-1
 137 64 l 1,72,-1
109 64 m 1,76,-1
 137 64 l 1,77,-1
 137 53 l 1,78,-1
 109 53 l 1,79,-1
 109 64 l 1,76,-1
164 64 m 1,80,-1
 191 64 l 1,81,-1
 191 53 l 1,82,-1
 164 53 l 1,83,-1
 164 64 l 1,80,-1
EndSplineSet
EndChar

StartChar: V
Encoding: 86 86 57
Width: 246
Flags: W
LayerCount: 2
Fore
SplineSet
28 358 m 1,0,-1
 55 358 l 1,1,-1
 55 347 l 1,2,-1
 28 347 l 1,3,-1
 28 358 l 1,0,-1
192 358 m 1,4,-1
 219 358 l 1,5,-1
 219 347 l 1,6,-1
 192 347 l 1,7,-1
 192 358 l 1,4,-1
28 321 m 1,8,-1
 55 321 l 1,9,-1
 55 310 l 1,10,-1
 28 310 l 1,11,-1
 28 321 l 1,8,-1
192 321 m 1,12,-1
 219 321 l 1,13,-1
 219 310 l 1,14,-1
 192 310 l 1,15,-1
 192 321 l 1,12,-1
28 284 m 1,16,-1
 55 284 l 1,17,-1
 55 273 l 1,18,-1
 28 273 l 1,19,-1
 28 284 l 1,16,-1
192 284 m 1,20,-1
 219 284 l 1,21,-1
 219 273 l 1,22,-1
 192 273 l 1,23,-1
 192 284 l 1,20,-1
28 248 m 1,24,-1
 55 248 l 1,25,-1
 55 237 l 1,26,-1
 28 237 l 1,27,-1
 28 248 l 1,24,-1
192 248 m 1,28,-1
 219 248 l 1,29,-1
 219 237 l 1,30,-1
 192 237 l 1,31,-1
 192 248 l 1,28,-1
28 211 m 1,32,-1
 55 211 l 1,33,-1
 55 200 l 1,34,-1
 28 200 l 1,35,-1
 28 211 l 1,32,-1
192 211 m 1,36,-1
 219 211 l 1,37,-1
 219 200 l 1,38,-1
 192 200 l 1,39,-1
 192 211 l 1,36,-1
28 174 m 1,40,-1
 55 174 l 1,41,-1
 55 163 l 1,42,-1
 28 163 l 1,43,-1
 28 174 l 1,40,-1
192 174 m 1,44,-1
 219 174 l 1,45,-1
 219 163 l 1,46,-1
 192 163 l 1,47,-1
 192 174 l 1,44,-1
55 138 m 1,48,-1
 82 138 l 1,49,-1
 82 127 l 1,50,-1
 55 127 l 1,51,-1
 55 138 l 1,48,-1
164 138 m 1,52,-1
 192 138 l 1,53,-1
 192 127 l 1,54,-1
 164 127 l 1,55,-1
 164 138 l 1,52,-1
82 101 m 1,56,-1
 110 101 l 1,57,-1
 110 90 l 1,58,-1
 82 90 l 1,59,-1
 82 101 l 1,56,-1
137 101 m 1,60,-1
 164 101 l 1,61,-1
 164 90 l 1,62,-1
 137 90 l 1,63,-1
 137 101 l 1,60,-1
110 64 m 1,64,-1
 137 64 l 1,65,-1
 137 53 l 1,66,-1
 110 53 l 1,67,-1
 110 64 l 1,64,-1
EndSplineSet
EndChar

StartChar: W
Encoding: 87 87 58
Width: 246
Flags: W
LayerCount: 2
Fore
SplineSet
27 358 m 1,0,-1
 54 358 l 1,1,-1
 54 347 l 1,2,-1
 27 347 l 1,3,-1
 27 358 l 1,0,-1
191 358 m 1,4,-1
 219 358 l 1,5,-1
 219 347 l 1,6,-1
 191 347 l 1,7,-1
 191 358 l 1,4,-1
27 321 m 1,8,-1
 54 321 l 1,9,-1
 54 310 l 1,10,-1
 27 310 l 1,11,-1
 27 321 l 1,8,-1
191 321 m 1,12,-1
 219 321 l 1,13,-1
 219 310 l 1,14,-1
 191 310 l 1,15,-1
 191 321 l 1,12,-1
27 284 m 1,16,-1
 54 284 l 1,17,-1
 54 273 l 1,18,-1
 27 273 l 1,19,-1
 27 284 l 1,16,-1
191 284 m 1,20,-1
 219 284 l 1,21,-1
 219 273 l 1,22,-1
 191 273 l 1,23,-1
 191 284 l 1,20,-1
27 248 m 1,24,-1
 54 248 l 1,25,-1
 54 237 l 1,26,-1
 27 237 l 1,27,-1
 27 248 l 1,24,-1
191 248 m 1,28,-1
 219 248 l 1,29,-1
 219 237 l 1,30,-1
 191 237 l 1,31,-1
 191 248 l 1,28,-1
27 211 m 1,32,-1
 54 211 l 1,33,-1
 54 200 l 1,34,-1
 27 200 l 1,35,-1
 27 211 l 1,32,-1
109 211 m 1,36,-1
 136 211 l 1,37,-1
 136 200 l 1,38,-1
 109 200 l 1,39,-1
 109 211 l 1,36,-1
191 211 m 1,40,-1
 219 211 l 1,41,-1
 219 200 l 1,42,-1
 191 200 l 1,43,-1
 191 211 l 1,40,-1
27 174 m 1,44,-1
 54 174 l 1,45,-1
 54 163 l 1,46,-1
 27 163 l 1,47,-1
 27 174 l 1,44,-1
82 174 m 1,48,-1
 109 174 l 1,49,-1
 109 163 l 1,50,-1
 82 163 l 1,51,-1
 82 174 l 1,48,-1
136 174 m 1,52,-1
 164 174 l 1,53,-1
 164 163 l 1,54,-1
 136 163 l 1,55,-1
 136 174 l 1,52,-1
109 174 m 1,56,-1
 136 174 l 1,57,-1
 136 163 l 1,58,-1
 109 163 l 1,59,-1
 109 174 l 1,56,-1
191 174 m 1,60,-1
 219 174 l 1,61,-1
 219 163 l 1,62,-1
 191 163 l 1,63,-1
 191 174 l 1,60,-1
27 138 m 1,64,-1
 54 138 l 1,65,-1
 54 127 l 1,66,-1
 27 127 l 1,67,-1
 27 138 l 1,64,-1
82 138 m 1,68,-1
 109 138 l 1,69,-1
 109 127 l 1,70,-1
 82 127 l 1,71,-1
 82 138 l 1,68,-1
54 138 m 1,72,-1
 82 138 l 1,73,-1
 82 127 l 1,74,-1
 54 127 l 1,75,-1
 54 138 l 1,72,-1
136 138 m 1,76,-1
 164 138 l 1,77,-1
 164 127 l 1,78,-1
 136 127 l 1,79,-1
 136 138 l 1,76,-1
191 138 m 1,80,-1
 219 138 l 1,81,-1
 219 127 l 1,82,-1
 191 127 l 1,83,-1
 191 138 l 1,80,-1
164 138 m 1,84,-1
 191 138 l 1,85,-1
 191 127 l 1,86,-1
 164 127 l 1,87,-1
 164 138 l 1,84,-1
27 101 m 1,88,-1
 54 101 l 1,89,-1
 54 90 l 1,90,-1
 27 90 l 1,91,-1
 27 101 l 1,88,-1
54 101 m 1,92,-1
 82 101 l 1,93,-1
 82 90 l 1,94,-1
 54 90 l 1,95,-1
 54 101 l 1,92,-1
191 101 m 1,96,-1
 219 101 l 1,97,-1
 219 90 l 1,98,-1
 191 90 l 1,99,-1
 191 101 l 1,96,-1
164 101 m 1,100,-1
 191 101 l 1,101,-1
 191 90 l 1,102,-1
 164 90 l 1,103,-1
 164 101 l 1,100,-1
27 64 m 1,104,-1
 54 64 l 1,105,-1
 54 53 l 1,106,-1
 27 53 l 1,107,-1
 27 64 l 1,104,-1
191 64 m 1,108,-1
 219 64 l 1,109,-1
 219 53 l 1,110,-1
 191 53 l 1,111,-1
 191 64 l 1,108,-1
EndSplineSet
EndChar

StartChar: X
Encoding: 88 88 59
Width: 246
Flags: W
LayerCount: 2
Fore
SplineSet
27 358 m 1,0,-1
 54 358 l 1,1,-1
 54 347 l 1,2,-1
 27 347 l 1,3,-1
 27 358 l 1,0,-1
191 358 m 1,4,-1
 219 358 l 1,5,-1
 219 347 l 1,6,-1
 191 347 l 1,7,-1
 191 358 l 1,4,-1
27 321 m 1,8,-1
 54 321 l 1,9,-1
 54 310 l 1,10,-1
 27 310 l 1,11,-1
 27 321 l 1,8,-1
191 321 m 1,12,-1
 219 321 l 1,13,-1
 219 310 l 1,14,-1
 191 310 l 1,15,-1
 191 321 l 1,12,-1
54 284 m 1,16,-1
 82 284 l 1,17,-1
 82 273 l 1,18,-1
 54 273 l 1,19,-1
 54 284 l 1,16,-1
164 284 m 1,20,-1
 191 284 l 1,21,-1
 191 273 l 1,22,-1
 164 273 l 1,23,-1
 164 284 l 1,20,-1
82 248 m 1,24,-1
 109 248 l 1,25,-1
 109 237 l 1,26,-1
 82 237 l 1,27,-1
 82 248 l 1,24,-1
136 248 m 1,28,-1
 164 248 l 1,29,-1
 164 237 l 1,30,-1
 136 237 l 1,31,-1
 136 248 l 1,28,-1
109 211 m 1,32,-1
 136 211 l 1,33,-1
 136 200 l 1,34,-1
 109 200 l 1,35,-1
 109 211 l 1,32,-1
82 174 m 1,36,-1
 109 174 l 1,37,-1
 109 163 l 1,38,-1
 82 163 l 1,39,-1
 82 174 l 1,36,-1
136 174 m 1,40,-1
 164 174 l 1,41,-1
 164 163 l 1,42,-1
 136 163 l 1,43,-1
 136 174 l 1,40,-1
54 138 m 1,44,-1
 82 138 l 1,45,-1
 82 127 l 1,46,-1
 54 127 l 1,47,-1
 54 138 l 1,44,-1
164 138 m 1,48,-1
 191 138 l 1,49,-1
 191 127 l 1,50,-1
 164 127 l 1,51,-1
 164 138 l 1,48,-1
27 101 m 1,52,-1
 54 101 l 1,53,-1
 54 90 l 1,54,-1
 27 90 l 1,55,-1
 27 101 l 1,52,-1
191 101 m 1,56,-1
 219 101 l 1,57,-1
 219 90 l 1,58,-1
 191 90 l 1,59,-1
 191 101 l 1,56,-1
27 64 m 1,60,-1
 54 64 l 1,61,-1
 54 53 l 1,62,-1
 27 53 l 1,63,-1
 27 64 l 1,60,-1
191 64 m 1,64,-1
 219 64 l 1,65,-1
 219 53 l 1,66,-1
 191 53 l 1,67,-1
 191 64 l 1,64,-1
EndSplineSet
EndChar

StartChar: Y
Encoding: 89 89 60
Width: 246
Flags: W
LayerCount: 2
Fore
SplineSet
27 358 m 1,0,-1
 54 358 l 1,1,-1
 54 347 l 1,2,-1
 27 347 l 1,3,-1
 27 358 l 1,0,-1
191 358 m 1,4,-1
 219 358 l 1,5,-1
 219 347 l 1,6,-1
 191 347 l 1,7,-1
 191 358 l 1,4,-1
27 321 m 1,8,-1
 54 321 l 1,9,-1
 54 310 l 1,10,-1
 27 310 l 1,11,-1
 27 321 l 1,8,-1
191 321 m 1,12,-1
 219 321 l 1,13,-1
 219 310 l 1,14,-1
 191 310 l 1,15,-1
 191 321 l 1,12,-1
54 284 m 1,16,-1
 82 284 l 1,17,-1
 82 273 l 1,18,-1
 54 273 l 1,19,-1
 54 284 l 1,16,-1
164 284 m 1,20,-1
 191 284 l 1,21,-1
 191 273 l 1,22,-1
 164 273 l 1,23,-1
 164 284 l 1,20,-1
82 248 m 1,24,-1
 109 248 l 1,25,-1
 109 237 l 1,26,-1
 82 237 l 1,27,-1
 82 248 l 1,24,-1
136 248 m 1,28,-1
 164 248 l 1,29,-1
 164 237 l 1,30,-1
 136 237 l 1,31,-1
 136 248 l 1,28,-1
109 211 m 1,32,-1
 136 211 l 1,33,-1
 136 200 l 1,34,-1
 109 200 l 1,35,-1
 109 211 l 1,32,-1
109 174 m 1,36,-1
 136 174 l 1,37,-1
 136 163 l 1,38,-1
 109 163 l 1,39,-1
 109 174 l 1,36,-1
109 138 m 1,40,-1
 136 138 l 1,41,-1
 136 127 l 1,42,-1
 109 127 l 1,43,-1
 109 138 l 1,40,-1
109 101 m 1,44,-1
 136 101 l 1,45,-1
 136 90 l 1,46,-1
 109 90 l 1,47,-1
 109 101 l 1,44,-1
82 64 m 1,48,-1
 109 64 l 1,49,-1
 109 53 l 1,50,-1
 82 53 l 1,51,-1
 82 64 l 1,48,-1
136 64 m 1,52,-1
 164 64 l 1,53,-1
 164 53 l 1,54,-1
 136 53 l 1,55,-1
 136 64 l 1,52,-1
109 64 m 1,56,-1
 136 64 l 1,57,-1
 136 53 l 1,58,-1
 109 53 l 1,59,-1
 109 64 l 1,56,-1
EndSplineSet
EndChar

StartChar: Z
Encoding: 90 90 61
Width: 246
Flags: W
LayerCount: 2
Fore
SplineSet
27 358 m 1,0,-1
 55 358 l 1,1,-1
 55 347 l 1,2,-1
 27 347 l 1,3,-1
 27 358 l 1,0,-1
82 358 m 1,4,-1
 110 358 l 1,5,-1
 110 347 l 1,6,-1
 82 347 l 1,7,-1
 82 358 l 1,4,-1
55 358 m 1,8,-1
 82 358 l 1,9,-1
 82 347 l 1,10,-1
 55 347 l 1,11,-1
 55 358 l 1,8,-1
137 358 m 1,12,-1
 164 358 l 1,13,-1
 164 347 l 1,14,-1
 137 347 l 1,15,-1
 137 358 l 1,12,-1
109 358 m 1,16,-1
 137 358 l 1,17,-1
 137 347 l 1,18,-1
 109 347 l 1,19,-1
 109 358 l 1,16,-1
192 358 m 1,20,-1
 219 358 l 1,21,-1
 219 347 l 1,22,-1
 192 347 l 1,23,-1
 192 358 l 1,20,-1
164 358 m 1,24,-1
 192 358 l 1,25,-1
 192 347 l 1,26,-1
 164 347 l 1,27,-1
 164 358 l 1,24,-1
27 321 m 1,28,-1
 55 321 l 1,29,-1
 55 310 l 1,30,-1
 27 310 l 1,31,-1
 27 321 l 1,28,-1
192 321 m 1,32,-1
 219 321 l 1,33,-1
 219 310 l 1,34,-1
 192 310 l 1,35,-1
 192 321 l 1,32,-1
164 284 m 1,36,-1
 192 284 l 1,37,-1
 192 273 l 1,38,-1
 164 273 l 1,39,-1
 164 284 l 1,36,-1
137 248 m 1,40,-1
 164 248 l 1,41,-1
 164 237 l 1,42,-1
 137 237 l 1,43,-1
 137 248 l 1,40,-1
109 211 m 1,44,-1
 137 211 l 1,45,-1
 137 200 l 1,46,-1
 109 200 l 1,47,-1
 109 211 l 1,44,-1
82 174 m 1,48,-1
 110 174 l 1,49,-1
 110 163 l 1,50,-1
 82 163 l 1,51,-1
 82 174 l 1,48,-1
55 138 m 1,52,-1
 82 138 l 1,53,-1
 82 127 l 1,54,-1
 55 127 l 1,55,-1
 55 138 l 1,52,-1
27 101 m 1,56,-1
 55 101 l 1,57,-1
 55 90 l 1,58,-1
 27 90 l 1,59,-1
 27 101 l 1,56,-1
192 101 m 1,60,-1
 219 101 l 1,61,-1
 219 90 l 1,62,-1
 192 90 l 1,63,-1
 192 101 l 1,60,-1
27 64 m 1,64,-1
 55 64 l 1,65,-1
 55 53 l 1,66,-1
 27 53 l 1,67,-1
 27 64 l 1,64,-1
82 64 m 1,68,-1
 110 64 l 1,69,-1
 110 53 l 1,70,-1
 82 53 l 1,71,-1
 82 64 l 1,68,-1
55 64 m 1,72,-1
 82 64 l 1,73,-1
 82 53 l 1,74,-1
 55 53 l 1,75,-1
 55 64 l 1,72,-1
137 64 m 1,76,-1
 164 64 l 1,77,-1
 164 53 l 1,78,-1
 137 53 l 1,79,-1
 137 64 l 1,76,-1
109 64 m 1,80,-1
 137 64 l 1,81,-1
 137 53 l 1,82,-1
 109 53 l 1,83,-1
 109 64 l 1,80,-1
192 64 m 1,84,-1
 219 64 l 1,85,-1
 219 53 l 1,86,-1
 192 53 l 1,87,-1
 192 64 l 1,84,-1
164 64 m 1,88,-1
 192 64 l 1,89,-1
 192 53 l 1,90,-1
 164 53 l 1,91,-1
 164 64 l 1,88,-1
EndSplineSet
EndChar

StartChar: bracketleft
Encoding: 91 91 62
Width: 246
Flags: W
LayerCount: 2
Fore
SplineSet
82 358 m 1,0,-1
 109 358 l 1,1,-1
 109 347 l 1,2,-1
 82 347 l 1,3,-1
 82 358 l 1,0,-1
137 358 m 1,4,-1
 164 358 l 1,5,-1
 164 347 l 1,6,-1
 137 347 l 1,7,-1
 137 358 l 1,4,-1
109 358 m 1,8,-1
 137 358 l 1,9,-1
 137 347 l 1,10,-1
 109 347 l 1,11,-1
 109 358 l 1,8,-1
82 321 m 1,12,-1
 109 321 l 1,13,-1
 109 310 l 1,14,-1
 82 310 l 1,15,-1
 82 321 l 1,12,-1
82 284 m 1,16,-1
 109 284 l 1,17,-1
 109 273 l 1,18,-1
 82 273 l 1,19,-1
 82 284 l 1,16,-1
82 248 m 1,20,-1
 109 248 l 1,21,-1
 109 237 l 1,22,-1
 82 237 l 1,23,-1
 82 248 l 1,20,-1
82 211 m 1,24,-1
 109 211 l 1,25,-1
 109 200 l 1,26,-1
 82 200 l 1,27,-1
 82 211 l 1,24,-1
82 174 m 1,28,-1
 109 174 l 1,29,-1
 109 163 l 1,30,-1
 82 163 l 1,31,-1
 82 174 l 1,28,-1
82 138 m 1,32,-1
 109 138 l 1,33,-1
 109 127 l 1,34,-1
 82 127 l 1,35,-1
 82 138 l 1,32,-1
82 101 m 1,36,-1
 109 101 l 1,37,-1
 109 90 l 1,38,-1
 82 90 l 1,39,-1
 82 101 l 1,36,-1
82 64 m 1,40,-1
 109 64 l 1,41,-1
 109 53 l 1,42,-1
 82 53 l 1,43,-1
 82 64 l 1,40,-1
137 64 m 1,44,-1
 164 64 l 1,45,-1
 164 53 l 1,46,-1
 137 53 l 1,47,-1
 137 64 l 1,44,-1
109 64 m 1,48,-1
 137 64 l 1,49,-1
 137 53 l 1,50,-1
 109 53 l 1,51,-1
 109 64 l 1,48,-1
EndSplineSet
EndChar

StartChar: backslash
Encoding: 92 92 63
Width: 246
Flags: W
LayerCount: 2
Fore
SplineSet
28 321 m 1,0,-1
 55 321 l 1,1,-1
 55 310 l 1,2,-1
 28 310 l 1,3,-1
 28 321 l 1,0,-1
55 284 m 1,4,-1
 82 284 l 1,5,-1
 82 273 l 1,6,-1
 55 273 l 1,7,-1
 55 284 l 1,4,-1
82 248 m 1,8,-1
 110 248 l 1,9,-1
 110 237 l 1,10,-1
 82 237 l 1,11,-1
 82 248 l 1,8,-1
110 211 m 1,12,-1
 137 211 l 1,13,-1
 137 200 l 1,14,-1
 110 200 l 1,15,-1
 110 211 l 1,12,-1
137 174 m 1,16,-1
 164 174 l 1,17,-1
 164 163 l 1,18,-1
 137 163 l 1,19,-1
 137 174 l 1,16,-1
164 138 m 1,20,-1
 192 138 l 1,21,-1
 192 127 l 1,22,-1
 164 127 l 1,23,-1
 164 138 l 1,20,-1
192 101 m 1,24,-1
 219 101 l 1,25,-1
 219 90 l 1,26,-1
 192 90 l 1,27,-1
 192 101 l 1,24,-1
EndSplineSet
EndChar

StartChar: bracketright
Encoding: 93 93 64
Width: 246
Flags: W
LayerCount: 2
Fore
SplineSet
82 358 m 1,0,-1
 109 358 l 1,1,-1
 109 347 l 1,2,-1
 82 347 l 1,3,-1
 82 358 l 1,0,-1
136 358 m 1,4,-1
 164 358 l 1,5,-1
 164 347 l 1,6,-1
 136 347 l 1,7,-1
 136 358 l 1,4,-1
109 358 m 1,8,-1
 136 358 l 1,9,-1
 136 347 l 1,10,-1
 109 347 l 1,11,-1
 109 358 l 1,8,-1
136 321 m 1,12,-1
 164 321 l 1,13,-1
 164 310 l 1,14,-1
 136 310 l 1,15,-1
 136 321 l 1,12,-1
136 284 m 1,16,-1
 164 284 l 1,17,-1
 164 273 l 1,18,-1
 136 273 l 1,19,-1
 136 284 l 1,16,-1
136 248 m 1,20,-1
 164 248 l 1,21,-1
 164 237 l 1,22,-1
 136 237 l 1,23,-1
 136 248 l 1,20,-1
136 211 m 1,24,-1
 164 211 l 1,25,-1
 164 200 l 1,26,-1
 136 200 l 1,27,-1
 136 211 l 1,24,-1
136 174 m 1,28,-1
 164 174 l 1,29,-1
 164 163 l 1,30,-1
 136 163 l 1,31,-1
 136 174 l 1,28,-1
136 138 m 1,32,-1
 164 138 l 1,33,-1
 164 127 l 1,34,-1
 136 127 l 1,35,-1
 136 138 l 1,32,-1
136 101 m 1,36,-1
 164 101 l 1,37,-1
 164 90 l 1,38,-1
 136 90 l 1,39,-1
 136 101 l 1,36,-1
82 64 m 1,40,-1
 109 64 l 1,41,-1
 109 53 l 1,42,-1
 82 53 l 1,43,-1
 82 64 l 1,40,-1
136 64 m 1,44,-1
 164 64 l 1,45,-1
 164 53 l 1,46,-1
 136 53 l 1,47,-1
 136 64 l 1,44,-1
109 64 m 1,48,-1
 136 64 l 1,49,-1
 136 53 l 1,50,-1
 109 53 l 1,51,-1
 109 64 l 1,48,-1
EndSplineSet
EndChar

StartChar: asciicircum
Encoding: 94 94 65
Width: 246
Flags: W
LayerCount: 2
Fore
SplineSet
110 358 m 1,0,-1
 137 358 l 1,1,-1
 137 347 l 1,2,-1
 110 347 l 1,3,-1
 110 358 l 1,0,-1
82 321 m 1,4,-1
 110 321 l 1,5,-1
 110 310 l 1,6,-1
 82 310 l 1,7,-1
 82 321 l 1,4,-1
137 321 m 1,8,-1
 164 321 l 1,9,-1
 164 310 l 1,10,-1
 137 310 l 1,11,-1
 137 321 l 1,8,-1
55 284 m 1,12,-1
 82 284 l 1,13,-1
 82 273 l 1,14,-1
 55 273 l 1,15,-1
 55 284 l 1,12,-1
164 284 m 1,16,-1
 192 284 l 1,17,-1
 192 273 l 1,18,-1
 164 273 l 1,19,-1
 164 284 l 1,16,-1
28 248 m 1,20,-1
 55 248 l 1,21,-1
 55 237 l 1,22,-1
 28 237 l 1,23,-1
 28 248 l 1,20,-1
192 248 m 1,24,-1
 219 248 l 1,25,-1
 219 237 l 1,26,-1
 192 237 l 1,27,-1
 192 248 l 1,24,-1
EndSplineSet
EndChar

StartChar: underscore
Encoding: 95 95 66
Width: 246
Flags: W
LayerCount: 2
Fore
SplineSet
28 64 m 1,0,-1
 55 64 l 1,1,-1
 55 53 l 1,2,-1
 28 53 l 1,3,-1
 28 64 l 1,0,-1
82 64 m 1,4,-1
 110 64 l 1,5,-1
 110 53 l 1,6,-1
 82 53 l 1,7,-1
 82 64 l 1,4,-1
55 64 m 1,8,-1
 82 64 l 1,9,-1
 82 53 l 1,10,-1
 55 53 l 1,11,-1
 55 64 l 1,8,-1
137 64 m 1,12,-1
 164 64 l 1,13,-1
 164 53 l 1,14,-1
 137 53 l 1,15,-1
 137 64 l 1,12,-1
110 64 m 1,16,-1
 137 64 l 1,17,-1
 137 53 l 1,18,-1
 110 53 l 1,19,-1
 110 64 l 1,16,-1
192 64 m 1,20,-1
 219 64 l 1,21,-1
 219 53 l 1,22,-1
 192 53 l 1,23,-1
 192 64 l 1,20,-1
164 64 m 1,24,-1
 192 64 l 1,25,-1
 192 53 l 1,26,-1
 164 53 l 1,27,-1
 164 64 l 1,24,-1
EndSplineSet
EndChar

StartChar: grave
Encoding: 96 96 67
Width: 246
Flags: W
LayerCount: 2
Fore
SplineSet
82 358 m 1,0,-1
 110 358 l 1,1,-1
 110 347 l 1,2,-1
 82 347 l 1,3,-1
 82 358 l 1,0,-1
109 358 m 1,4,-1
 137 358 l 1,5,-1
 137 347 l 1,6,-1
 109 347 l 1,7,-1
 109 358 l 1,4,-1
82 321 m 1,8,-1
 110 321 l 1,9,-1
 110 310 l 1,10,-1
 82 310 l 1,11,-1
 82 321 l 1,8,-1
109 321 m 1,12,-1
 137 321 l 1,13,-1
 137 310 l 1,14,-1
 109 310 l 1,15,-1
 109 321 l 1,12,-1
82 285 m 1,16,-1
 110 285 l 1,17,-1
 110 274 l 1,18,-1
 82 274 l 1,19,-1
 82 285 l 1,16,-1
109 285 m 1,20,-1
 137 285 l 1,21,-1
 137 274 l 1,22,-1
 109 274 l 1,23,-1
 109 285 l 1,20,-1
109 248 m 1,24,-1
 137 248 l 1,25,-1
 137 237 l 1,26,-1
 109 237 l 1,27,-1
 109 248 l 1,24,-1
137 211 m 1,28,-1
 164 211 l 1,29,-1
 164 200 l 1,30,-1
 137 200 l 1,31,-1
 137 211 l 1,28,-1
EndSplineSet
EndChar

StartChar: a
Encoding: 97 97 68
Width: 246
Flags: W
LayerCount: 2
Fore
SplineSet
82 248 m 1,0,-1
 110 248 l 1,1,-1
 110 237 l 1,2,-1
 82 237 l 1,3,-1
 82 248 l 1,0,-1
55 248 m 1,4,-1
 82 248 l 1,5,-1
 82 237 l 1,6,-1
 55 237 l 1,7,-1
 55 248 l 1,4,-1
137 248 m 1,8,-1
 164 248 l 1,9,-1
 164 237 l 1,10,-1
 137 237 l 1,11,-1
 137 248 l 1,8,-1
109 248 m 1,12,-1
 137 248 l 1,13,-1
 137 237 l 1,14,-1
 109 237 l 1,15,-1
 109 248 l 1,12,-1
164 212 m 1,16,-1
 192 212 l 1,17,-1
 192 201 l 1,18,-1
 164 201 l 1,19,-1
 164 212 l 1,16,-1
82 174 m 1,20,-1
 110 174 l 1,21,-1
 110 163 l 1,22,-1
 82 163 l 1,23,-1
 82 174 l 1,20,-1
55 174 m 1,24,-1
 82 174 l 1,25,-1
 82 163 l 1,26,-1
 55 163 l 1,27,-1
 55 174 l 1,24,-1
137 174 m 1,28,-1
 164 174 l 1,29,-1
 164 163 l 1,30,-1
 137 163 l 1,31,-1
 137 174 l 1,28,-1
109 174 m 1,32,-1
 137 174 l 1,33,-1
 137 163 l 1,34,-1
 109 163 l 1,35,-1
 109 174 l 1,32,-1
164 174 m 1,36,-1
 192 174 l 1,37,-1
 192 163 l 1,38,-1
 164 163 l 1,39,-1
 164 174 l 1,36,-1
27 137 m 1,40,-1
 55 137 l 1,41,-1
 55 126 l 1,42,-1
 27 126 l 1,43,-1
 27 137 l 1,40,-1
164 137 m 1,44,-1
 192 137 l 1,45,-1
 192 126 l 1,46,-1
 164 126 l 1,47,-1
 164 137 l 1,44,-1
27 101 m 1,48,-1
 55 101 l 1,49,-1
 55 90 l 1,50,-1
 27 90 l 1,51,-1
 27 101 l 1,48,-1
164 101 m 1,52,-1
 192 101 l 1,53,-1
 192 90 l 1,54,-1
 164 90 l 1,55,-1
 164 101 l 1,52,-1
82 64 m 1,56,-1
 110 64 l 1,57,-1
 110 53 l 1,58,-1
 82 53 l 1,59,-1
 82 64 l 1,56,-1
55 64 m 1,60,-1
 82 64 l 1,61,-1
 82 53 l 1,62,-1
 55 53 l 1,63,-1
 55 64 l 1,60,-1
137 64 m 1,64,-1
 164 64 l 1,65,-1
 164 53 l 1,66,-1
 137 53 l 1,67,-1
 137 64 l 1,64,-1
109 64 m 1,68,-1
 137 64 l 1,69,-1
 137 53 l 1,70,-1
 109 53 l 1,71,-1
 109 64 l 1,68,-1
192 64 m 1,72,-1
 219 64 l 1,73,-1
 219 53 l 1,74,-1
 192 53 l 1,75,-1
 192 64 l 1,72,-1
EndSplineSet
EndChar

StartChar: b
Encoding: 98 98 69
Width: 246
Flags: W
LayerCount: 2
Fore
SplineSet
27 358 m 1,0,-1
 55 358 l 1,1,-1
 55 347 l 1,2,-1
 27 347 l 1,3,-1
 27 358 l 1,0,-1
27 321 m 1,4,-1
 55 321 l 1,5,-1
 55 310 l 1,6,-1
 27 310 l 1,7,-1
 27 321 l 1,4,-1
27 284 m 1,8,-1
 55 284 l 1,9,-1
 55 273 l 1,10,-1
 27 273 l 1,11,-1
 27 284 l 1,8,-1
27 248 m 1,12,-1
 55 248 l 1,13,-1
 55 237 l 1,14,-1
 27 237 l 1,15,-1
 27 248 l 1,12,-1
82 248 m 1,16,-1
 110 248 l 1,17,-1
 110 237 l 1,18,-1
 82 237 l 1,19,-1
 82 248 l 1,16,-1
137 248 m 1,20,-1
 164 248 l 1,21,-1
 164 237 l 1,22,-1
 137 237 l 1,23,-1
 137 248 l 1,20,-1
109 248 m 1,24,-1
 137 248 l 1,25,-1
 137 237 l 1,26,-1
 109 237 l 1,27,-1
 109 248 l 1,24,-1
164 248 m 1,28,-1
 192 248 l 1,29,-1
 192 237 l 1,30,-1
 164 237 l 1,31,-1
 164 248 l 1,28,-1
27 212 m 1,32,-1
 55 212 l 1,33,-1
 55 201 l 1,34,-1
 27 201 l 1,35,-1
 27 212 l 1,32,-1
55 212 m 1,36,-1
 82 212 l 1,37,-1
 82 201 l 1,38,-1
 55 201 l 1,39,-1
 55 212 l 1,36,-1
192 212 m 1,40,-1
 219 212 l 1,41,-1
 219 201 l 1,42,-1
 192 201 l 1,43,-1
 192 212 l 1,40,-1
27 174 m 1,44,-1
 55 174 l 1,45,-1
 55 163 l 1,46,-1
 27 163 l 1,47,-1
 27 174 l 1,44,-1
192 174 m 1,48,-1
 219 174 l 1,49,-1
 219 163 l 1,50,-1
 192 163 l 1,51,-1
 192 174 l 1,48,-1
27 138 m 1,52,-1
 55 138 l 1,53,-1
 55 127 l 1,54,-1
 27 127 l 1,55,-1
 27 138 l 1,52,-1
192 138 m 1,56,-1
 219 138 l 1,57,-1
 219 127 l 1,58,-1
 192 127 l 1,59,-1
 192 138 l 1,56,-1
27 101 m 1,60,-1
 55 101 l 1,61,-1
 55 90 l 1,62,-1
 27 90 l 1,63,-1
 27 101 l 1,60,-1
192 101 m 1,64,-1
 219 101 l 1,65,-1
 219 90 l 1,66,-1
 192 90 l 1,67,-1
 192 101 l 1,64,-1
27 65 m 1,68,-1
 55 65 l 1,69,-1
 55 54 l 1,70,-1
 27 54 l 1,71,-1
 27 65 l 1,68,-1
82 65 m 1,72,-1
 110 65 l 1,73,-1
 110 54 l 1,74,-1
 82 54 l 1,75,-1
 82 65 l 1,72,-1
55 65 m 1,76,-1
 82 65 l 1,77,-1
 82 54 l 1,78,-1
 55 54 l 1,79,-1
 55 65 l 1,76,-1
137 65 m 1,80,-1
 164 65 l 1,81,-1
 164 54 l 1,82,-1
 137 54 l 1,83,-1
 137 65 l 1,80,-1
109 65 m 1,84,-1
 137 65 l 1,85,-1
 137 54 l 1,86,-1
 109 54 l 1,87,-1
 109 65 l 1,84,-1
164 65 m 1,88,-1
 192 65 l 1,89,-1
 192 54 l 1,90,-1
 164 54 l 1,91,-1
 164 65 l 1,88,-1
EndSplineSet
EndChar

StartChar: c
Encoding: 99 99 70
Width: 246
Flags: W
LayerCount: 2
Fore
SplineSet
82 248 m 1,0,-1
 110 248 l 1,1,-1
 110 237 l 1,2,-1
 82 237 l 1,3,-1
 82 248 l 1,0,-1
55 248 m 1,4,-1
 82 248 l 1,5,-1
 82 237 l 1,6,-1
 55 237 l 1,7,-1
 55 248 l 1,4,-1
137 248 m 1,8,-1
 164 248 l 1,9,-1
 164 237 l 1,10,-1
 137 237 l 1,11,-1
 137 248 l 1,8,-1
109 248 m 1,12,-1
 137 248 l 1,13,-1
 137 237 l 1,14,-1
 109 237 l 1,15,-1
 109 248 l 1,12,-1
164 248 m 1,16,-1
 192 248 l 1,17,-1
 192 237 l 1,18,-1
 164 237 l 1,19,-1
 164 248 l 1,16,-1
27 211 m 1,20,-1
 55 211 l 1,21,-1
 55 200 l 1,22,-1
 27 200 l 1,23,-1
 27 211 l 1,20,-1
192 211 m 1,24,-1
 219 211 l 1,25,-1
 219 200 l 1,26,-1
 192 200 l 1,27,-1
 192 211 l 1,24,-1
27 174 m 1,28,-1
 55 174 l 1,29,-1
 55 163 l 1,30,-1
 27 163 l 1,31,-1
 27 174 l 1,28,-1
27 138 m 1,32,-1
 55 138 l 1,33,-1
 55 127 l 1,34,-1
 27 127 l 1,35,-1
 27 138 l 1,32,-1
27 100 m 1,36,-1
 55 100 l 1,37,-1
 55 89 l 1,38,-1
 27 89 l 1,39,-1
 27 100 l 1,36,-1
192 100 m 1,40,-1
 219 100 l 1,41,-1
 219 89 l 1,42,-1
 192 89 l 1,43,-1
 192 100 l 1,40,-1
82 64 m 1,44,-1
 110 64 l 1,45,-1
 110 53 l 1,46,-1
 82 53 l 1,47,-1
 82 64 l 1,44,-1
55 64 m 1,48,-1
 82 64 l 1,49,-1
 82 53 l 1,50,-1
 55 53 l 1,51,-1
 55 64 l 1,48,-1
137 64 m 1,52,-1
 164 64 l 1,53,-1
 164 53 l 1,54,-1
 137 53 l 1,55,-1
 137 64 l 1,52,-1
109 64 m 1,56,-1
 137 64 l 1,57,-1
 137 53 l 1,58,-1
 109 53 l 1,59,-1
 109 64 l 1,56,-1
164 64 m 1,60,-1
 192 64 l 1,61,-1
 192 53 l 1,62,-1
 164 53 l 1,63,-1
 164 64 l 1,60,-1
EndSplineSet
EndChar

StartChar: d
Encoding: 100 100 71
Width: 246
Flags: W
LayerCount: 2
Fore
SplineSet
164 358 m 1,0,-1
 192 358 l 1,1,-1
 192 347 l 1,2,-1
 164 347 l 1,3,-1
 164 358 l 1,0,-1
164 321 m 1,4,-1
 192 321 l 1,5,-1
 192 310 l 1,6,-1
 164 310 l 1,7,-1
 164 321 l 1,4,-1
164 285 m 1,8,-1
 192 285 l 1,9,-1
 192 274 l 1,10,-1
 164 274 l 1,11,-1
 164 285 l 1,8,-1
82 248 m 1,12,-1
 110 248 l 1,13,-1
 110 237 l 1,14,-1
 82 237 l 1,15,-1
 82 248 l 1,12,-1
137 248 m 1,16,-1
 164 248 l 1,17,-1
 164 237 l 1,18,-1
 137 237 l 1,19,-1
 137 248 l 1,16,-1
109 248 m 1,20,-1
 137 248 l 1,21,-1
 137 237 l 1,22,-1
 109 237 l 1,23,-1
 109 248 l 1,20,-1
164 248 m 1,24,-1
 192 248 l 1,25,-1
 192 237 l 1,26,-1
 164 237 l 1,27,-1
 164 248 l 1,24,-1
55 212 m 1,28,-1
 82 212 l 1,29,-1
 82 201 l 1,30,-1
 55 201 l 1,31,-1
 55 212 l 1,28,-1
164 212 m 1,32,-1
 192 212 l 1,33,-1
 192 201 l 1,34,-1
 164 201 l 1,35,-1
 164 212 l 1,32,-1
55 174 m 1,36,-1
 82 174 l 1,37,-1
 82 163 l 1,38,-1
 55 163 l 1,39,-1
 55 174 l 1,36,-1
164 174 m 1,40,-1
 192 174 l 1,41,-1
 192 163 l 1,42,-1
 164 163 l 1,43,-1
 164 174 l 1,40,-1
55 137 m 1,44,-1
 82 137 l 1,45,-1
 82 126 l 1,46,-1
 55 126 l 1,47,-1
 55 137 l 1,44,-1
164 137 m 1,48,-1
 192 137 l 1,49,-1
 192 126 l 1,50,-1
 164 126 l 1,51,-1
 164 137 l 1,48,-1
55 101 m 1,52,-1
 82 101 l 1,53,-1
 82 90 l 1,54,-1
 55 90 l 1,55,-1
 55 101 l 1,52,-1
164 101 m 1,56,-1
 192 101 l 1,57,-1
 192 90 l 1,58,-1
 164 90 l 1,59,-1
 164 101 l 1,56,-1
82 64 m 1,60,-1
 110 64 l 1,61,-1
 110 53 l 1,62,-1
 82 53 l 1,63,-1
 82 64 l 1,60,-1
137 64 m 1,64,-1
 164 64 l 1,65,-1
 164 53 l 1,66,-1
 137 53 l 1,67,-1
 137 64 l 1,64,-1
109 64 m 1,68,-1
 137 64 l 1,69,-1
 137 53 l 1,70,-1
 109 53 l 1,71,-1
 109 64 l 1,68,-1
192 64 m 1,72,-1
 219 64 l 1,73,-1
 219 53 l 1,74,-1
 192 53 l 1,75,-1
 192 64 l 1,72,-1
EndSplineSet
EndChar

StartChar: e
Encoding: 101 101 72
Width: 246
Flags: W
LayerCount: 2
Fore
SplineSet
82 247 m 1,0,-1
 110 247 l 1,1,-1
 110 236 l 1,2,-1
 82 236 l 1,3,-1
 82 247 l 1,0,-1
55 247 m 1,4,-1
 82 247 l 1,5,-1
 82 236 l 1,6,-1
 55 236 l 1,7,-1
 55 247 l 1,4,-1
137 247 m 1,8,-1
 164 247 l 1,9,-1
 164 236 l 1,10,-1
 137 236 l 1,11,-1
 137 247 l 1,8,-1
109 247 m 1,12,-1
 137 247 l 1,13,-1
 137 236 l 1,14,-1
 109 236 l 1,15,-1
 109 247 l 1,12,-1
164 247 m 1,16,-1
 192 247 l 1,17,-1
 192 236 l 1,18,-1
 164 236 l 1,19,-1
 164 247 l 1,16,-1
27 211 m 1,20,-1
 55 211 l 1,21,-1
 55 200 l 1,22,-1
 27 200 l 1,23,-1
 27 211 l 1,20,-1
192 211 m 1,24,-1
 219 211 l 1,25,-1
 219 200 l 1,26,-1
 192 200 l 1,27,-1
 192 211 l 1,24,-1
27 174 m 1,28,-1
 55 174 l 1,29,-1
 55 163 l 1,30,-1
 27 163 l 1,31,-1
 27 174 l 1,28,-1
82 174 m 1,32,-1
 110 174 l 1,33,-1
 110 163 l 1,34,-1
 82 163 l 1,35,-1
 82 174 l 1,32,-1
55 174 m 1,36,-1
 82 174 l 1,37,-1
 82 163 l 1,38,-1
 55 163 l 1,39,-1
 55 174 l 1,36,-1
137 174 m 1,40,-1
 164 174 l 1,41,-1
 164 163 l 1,42,-1
 137 163 l 1,43,-1
 137 174 l 1,40,-1
109 174 m 1,44,-1
 137 174 l 1,45,-1
 137 163 l 1,46,-1
 109 163 l 1,47,-1
 109 174 l 1,44,-1
192 174 m 1,48,-1
 219 174 l 1,49,-1
 219 163 l 1,50,-1
 192 163 l 1,51,-1
 192 174 l 1,48,-1
164 174 m 1,52,-1
 192 174 l 1,53,-1
 192 163 l 1,54,-1
 164 163 l 1,55,-1
 164 174 l 1,52,-1
27 137 m 1,56,-1
 55 137 l 1,57,-1
 55 126 l 1,58,-1
 27 126 l 1,59,-1
 27 137 l 1,56,-1
27 101 m 1,60,-1
 55 101 l 1,61,-1
 55 90 l 1,62,-1
 27 90 l 1,63,-1
 27 101 l 1,60,-1
192 101 m 1,64,-1
 219 101 l 1,65,-1
 219 90 l 1,66,-1
 192 90 l 1,67,-1
 192 101 l 1,64,-1
82 64 m 1,68,-1
 110 64 l 1,69,-1
 110 53 l 1,70,-1
 82 53 l 1,71,-1
 82 64 l 1,68,-1
55 64 m 1,72,-1
 82 64 l 1,73,-1
 82 53 l 1,74,-1
 55 53 l 1,75,-1
 55 64 l 1,72,-1
137 64 m 1,76,-1
 164 64 l 1,77,-1
 164 53 l 1,78,-1
 137 53 l 1,79,-1
 137 64 l 1,76,-1
109 64 m 1,80,-1
 137 64 l 1,81,-1
 137 53 l 1,82,-1
 109 53 l 1,83,-1
 109 64 l 1,80,-1
164 64 m 1,84,-1
 192 64 l 1,85,-1
 192 53 l 1,86,-1
 164 53 l 1,87,-1
 164 64 l 1,84,-1
EndSplineSet
EndChar

StartChar: f
Encoding: 102 102 73
Width: 246
Flags: W
LayerCount: 2
Fore
SplineSet
137 359 m 1,0,-1
 164 359 l 1,1,-1
 164 348 l 1,2,-1
 137 348 l 1,3,-1
 137 359 l 1,0,-1
164 359 m 1,4,-1
 192 359 l 1,5,-1
 192 348 l 1,6,-1
 164 348 l 1,7,-1
 164 359 l 1,4,-1
109 322 m 1,8,-1
 137 322 l 1,9,-1
 137 311 l 1,10,-1
 109 311 l 1,11,-1
 109 322 l 1,8,-1
192 322 m 1,12,-1
 219 322 l 1,13,-1
 219 311 l 1,14,-1
 192 311 l 1,15,-1
 192 322 l 1,12,-1
109 286 m 1,16,-1
 137 286 l 1,17,-1
 137 275 l 1,18,-1
 109 275 l 1,19,-1
 109 286 l 1,16,-1
109 249 m 1,20,-1
 137 249 l 1,21,-1
 137 238 l 1,22,-1
 109 238 l 1,23,-1
 109 249 l 1,20,-1
82 212 m 1,24,-1
 110 212 l 1,25,-1
 110 201 l 1,26,-1
 82 201 l 1,27,-1
 82 212 l 1,24,-1
137 212 m 1,28,-1
 164 212 l 1,29,-1
 164 201 l 1,30,-1
 137 201 l 1,31,-1
 137 212 l 1,28,-1
109 212 m 1,32,-1
 137 212 l 1,33,-1
 137 201 l 1,34,-1
 109 201 l 1,35,-1
 109 212 l 1,32,-1
109 175 m 1,36,-1
 137 175 l 1,37,-1
 137 164 l 1,38,-1
 109 164 l 1,39,-1
 109 175 l 1,36,-1
109 138 m 1,40,-1
 137 138 l 1,41,-1
 137 127 l 1,42,-1
 109 127 l 1,43,-1
 109 138 l 1,40,-1
109 102 m 1,44,-1
 137 102 l 1,45,-1
 137 91 l 1,46,-1
 109 91 l 1,47,-1
 109 102 l 1,44,-1
109 65 m 1,48,-1
 137 65 l 1,49,-1
 137 54 l 1,50,-1
 109 54 l 1,51,-1
 109 65 l 1,48,-1
EndSplineSet
EndChar

StartChar: g
Encoding: 103 103 74
Width: 246
Flags: W
LayerCount: 2
Fore
SplineSet
82 247 m 1,0,-1
 110 247 l 1,1,-1
 110 236 l 1,2,-1
 82 236 l 1,3,-1
 82 247 l 1,0,-1
55 247 m 1,4,-1
 82 247 l 1,5,-1
 82 236 l 1,6,-1
 55 236 l 1,7,-1
 55 247 l 1,4,-1
137 247 m 1,8,-1
 164 247 l 1,9,-1
 164 236 l 1,10,-1
 137 236 l 1,11,-1
 137 247 l 1,8,-1
109 247 m 1,12,-1
 137 247 l 1,13,-1
 137 236 l 1,14,-1
 109 236 l 1,15,-1
 109 247 l 1,12,-1
164 247 m 1,16,-1
 192 247 l 1,17,-1
 192 236 l 1,18,-1
 164 236 l 1,19,-1
 164 247 l 1,16,-1
27 211 m 1,20,-1
 55 211 l 1,21,-1
 55 200 l 1,22,-1
 27 200 l 1,23,-1
 27 211 l 1,20,-1
192 211 m 1,24,-1
 219 211 l 1,25,-1
 219 200 l 1,26,-1
 192 200 l 1,27,-1
 192 211 l 1,24,-1
27 174 m 1,28,-1
 55 174 l 1,29,-1
 55 163 l 1,30,-1
 27 163 l 1,31,-1
 27 174 l 1,28,-1
192 174 m 1,32,-1
 219 174 l 1,33,-1
 219 163 l 1,34,-1
 192 163 l 1,35,-1
 192 174 l 1,32,-1
27 137 m 1,36,-1
 55 137 l 1,37,-1
 55 126 l 1,38,-1
 27 126 l 1,39,-1
 27 137 l 1,36,-1
192 137 m 1,40,-1
 219 137 l 1,41,-1
 219 126 l 1,42,-1
 192 126 l 1,43,-1
 192 137 l 1,40,-1
82 101 m 1,44,-1
 110 101 l 1,45,-1
 110 90 l 1,46,-1
 82 90 l 1,47,-1
 82 101 l 1,44,-1
55 101 m 1,48,-1
 82 101 l 1,49,-1
 82 90 l 1,50,-1
 55 90 l 1,51,-1
 55 101 l 1,48,-1
137 101 m 1,52,-1
 164 101 l 1,53,-1
 164 90 l 1,54,-1
 137 90 l 1,55,-1
 137 101 l 1,52,-1
109 101 m 1,56,-1
 137 101 l 1,57,-1
 137 90 l 1,58,-1
 109 90 l 1,59,-1
 109 101 l 1,56,-1
192 101 m 1,60,-1
 219 101 l 1,61,-1
 219 90 l 1,62,-1
 192 90 l 1,63,-1
 192 101 l 1,60,-1
164 101 m 1,64,-1
 192 101 l 1,65,-1
 192 90 l 1,66,-1
 164 90 l 1,67,-1
 164 101 l 1,64,-1
192 64 m 1,68,-1
 219 64 l 1,69,-1
 219 53 l 1,70,-1
 192 53 l 1,71,-1
 192 64 l 1,68,-1
192 27 m 1,72,-1
 219 27 l 1,73,-1
 219 17 l 1,74,-1
 192 17 l 1,75,-1
 192 27 l 1,72,-1
82 -10 m 1,76,-1
 110 -10 l 1,77,-1
 110 -21 l 1,78,-1
 82 -21 l 1,79,-1
 82 -10 l 1,76,-1
55 -10 m 1,80,-1
 82 -10 l 1,81,-1
 82 -21 l 1,82,-1
 55 -21 l 1,83,-1
 55 -10 l 1,80,-1
137 -10 m 1,84,-1
 164 -10 l 1,85,-1
 164 -21 l 1,86,-1
 137 -21 l 1,87,-1
 137 -10 l 1,84,-1
109 -10 m 1,88,-1
 137 -10 l 1,89,-1
 137 -21 l 1,90,-1
 109 -21 l 1,91,-1
 109 -10 l 1,88,-1
164 -10 m 1,92,-1
 192 -10 l 1,93,-1
 192 -21 l 1,94,-1
 164 -21 l 1,95,-1
 164 -10 l 1,92,-1
EndSplineSet
EndChar

StartChar: h
Encoding: 104 104 75
Width: 246
Flags: W
LayerCount: 2
Fore
SplineSet
27 359 m 1,0,-1
 55 359 l 1,1,-1
 55 348 l 1,2,-1
 27 348 l 1,3,-1
 27 359 l 1,0,-1
27 321 m 1,4,-1
 55 321 l 1,5,-1
 55 310 l 1,6,-1
 27 310 l 1,7,-1
 27 321 l 1,4,-1
27 284 m 1,8,-1
 55 284 l 1,9,-1
 55 273 l 1,10,-1
 27 273 l 1,11,-1
 27 284 l 1,8,-1
27 247 m 1,12,-1
 55 247 l 1,13,-1
 55 236 l 1,14,-1
 27 236 l 1,15,-1
 27 247 l 1,12,-1
82 247 m 1,16,-1
 109 247 l 1,17,-1
 109 236 l 1,18,-1
 82 236 l 1,19,-1
 82 247 l 1,16,-1
137 247 m 1,20,-1
 164 247 l 1,21,-1
 164 236 l 1,22,-1
 137 236 l 1,23,-1
 137 247 l 1,20,-1
109 247 m 1,24,-1
 137 247 l 1,25,-1
 137 236 l 1,26,-1
 109 236 l 1,27,-1
 109 247 l 1,24,-1
164 247 m 1,28,-1
 191 247 l 1,29,-1
 191 236 l 1,30,-1
 164 236 l 1,31,-1
 164 247 l 1,28,-1
27 211 m 1,32,-1
 55 211 l 1,33,-1
 55 200 l 1,34,-1
 27 200 l 1,35,-1
 27 211 l 1,32,-1
55 211 m 1,36,-1
 82 211 l 1,37,-1
 82 200 l 1,38,-1
 55 200 l 1,39,-1
 55 211 l 1,36,-1
191 211 m 1,40,-1
 219 211 l 1,41,-1
 219 200 l 1,42,-1
 191 200 l 1,43,-1
 191 211 l 1,40,-1
27 174 m 1,44,-1
 55 174 l 1,45,-1
 55 163 l 1,46,-1
 27 163 l 1,47,-1
 27 174 l 1,44,-1
191 174 m 1,48,-1
 219 174 l 1,49,-1
 219 163 l 1,50,-1
 191 163 l 1,51,-1
 191 174 l 1,48,-1
27 137 m 1,52,-1
 55 137 l 1,53,-1
 55 126 l 1,54,-1
 27 126 l 1,55,-1
 27 137 l 1,52,-1
191 137 m 1,56,-1
 219 137 l 1,57,-1
 219 126 l 1,58,-1
 191 126 l 1,59,-1
 191 137 l 1,56,-1
27 100 m 1,60,-1
 55 100 l 1,61,-1
 55 89 l 1,62,-1
 27 89 l 1,63,-1
 27 100 l 1,60,-1
191 100 m 1,64,-1
 219 100 l 1,65,-1
 219 89 l 1,66,-1
 191 89 l 1,67,-1
 191 100 l 1,64,-1
27 64 m 1,68,-1
 55 64 l 1,69,-1
 55 53 l 1,70,-1
 27 53 l 1,71,-1
 27 64 l 1,68,-1
191 64 m 1,72,-1
 219 64 l 1,73,-1
 219 53 l 1,74,-1
 191 53 l 1,75,-1
 191 64 l 1,72,-1
EndSplineSet
EndChar

StartChar: i
Encoding: 105 105 76
Width: 246
Flags: W
LayerCount: 2
Fore
SplineSet
109 321 m 1,0,-1
 137 321 l 1,1,-1
 137 310 l 1,2,-1
 109 310 l 1,3,-1
 109 321 l 1,0,-1
82 247 m 1,4,-1
 110 247 l 1,5,-1
 110 236 l 1,6,-1
 82 236 l 1,7,-1
 82 247 l 1,4,-1
55 247 m 1,8,-1
 82 247 l 1,9,-1
 82 236 l 1,10,-1
 55 236 l 1,11,-1
 55 247 l 1,8,-1
109 247 m 1,12,-1
 137 247 l 1,13,-1
 137 236 l 1,14,-1
 109 236 l 1,15,-1
 109 247 l 1,12,-1
109 211 m 1,16,-1
 137 211 l 1,17,-1
 137 200 l 1,18,-1
 109 200 l 1,19,-1
 109 211 l 1,16,-1
109 174 m 1,20,-1
 137 174 l 1,21,-1
 137 163 l 1,22,-1
 109 163 l 1,23,-1
 109 174 l 1,20,-1
109 137 m 1,24,-1
 137 137 l 1,25,-1
 137 126 l 1,26,-1
 109 126 l 1,27,-1
 109 137 l 1,24,-1
109 100 m 1,28,-1
 137 100 l 1,29,-1
 137 89 l 1,30,-1
 109 89 l 1,31,-1
 109 100 l 1,28,-1
82 64 m 1,32,-1
 110 64 l 1,33,-1
 110 53 l 1,34,-1
 82 53 l 1,35,-1
 82 64 l 1,32,-1
55 64 m 1,36,-1
 82 64 l 1,37,-1
 82 53 l 1,38,-1
 55 53 l 1,39,-1
 55 64 l 1,36,-1
137 64 m 1,40,-1
 164 64 l 1,41,-1
 164 53 l 1,42,-1
 137 53 l 1,43,-1
 137 64 l 1,40,-1
109 64 m 1,44,-1
 137 64 l 1,45,-1
 137 53 l 1,46,-1
 109 53 l 1,47,-1
 109 64 l 1,44,-1
164 64 m 1,48,-1
 192 64 l 1,49,-1
 192 53 l 1,50,-1
 164 53 l 1,51,-1
 164 64 l 1,48,-1
EndSplineSet
EndChar

StartChar: j
Encoding: 106 106 77
Width: 246
Flags: W
LayerCount: 2
Fore
SplineSet
109 321 m 1,0,-1
 137 321 l 1,1,-1
 137 310 l 1,2,-1
 109 310 l 1,3,-1
 109 321 l 1,0,-1
82 247 m 1,4,-1
 109 247 l 1,5,-1
 109 236 l 1,6,-1
 82 236 l 1,7,-1
 82 247 l 1,4,-1
109 247 m 1,8,-1
 137 247 l 1,9,-1
 137 236 l 1,10,-1
 109 236 l 1,11,-1
 109 247 l 1,8,-1
109 210 m 1,12,-1
 137 210 l 1,13,-1
 137 199 l 1,14,-1
 109 199 l 1,15,-1
 109 210 l 1,12,-1
109 174 m 1,16,-1
 137 174 l 1,17,-1
 137 163 l 1,18,-1
 109 163 l 1,19,-1
 109 174 l 1,16,-1
109 137 m 1,20,-1
 137 137 l 1,21,-1
 137 126 l 1,22,-1
 109 126 l 1,23,-1
 109 137 l 1,20,-1
109 100 m 1,24,-1
 137 100 l 1,25,-1
 137 89 l 1,26,-1
 109 89 l 1,27,-1
 109 100 l 1,24,-1
109 64 m 1,28,-1
 137 64 l 1,29,-1
 137 53 l 1,30,-1
 109 53 l 1,31,-1
 109 64 l 1,28,-1
27 27 m 1,32,-1
 55 27 l 1,33,-1
 55 17 l 1,34,-1
 27 17 l 1,35,-1
 27 27 l 1,32,-1
109 27 m 1,36,-1
 137 27 l 1,37,-1
 137 17 l 1,38,-1
 109 17 l 1,39,-1
 109 27 l 1,36,-1
82 -10 m 1,40,-1
 109 -10 l 1,41,-1
 109 -21 l 1,42,-1
 82 -21 l 1,43,-1
 82 -10 l 1,40,-1
55 -10 m 1,44,-1
 82 -10 l 1,45,-1
 82 -21 l 1,46,-1
 55 -21 l 1,47,-1
 55 -10 l 1,44,-1
EndSplineSet
EndChar

StartChar: k
Encoding: 107 107 78
Width: 246
Flags: W
LayerCount: 2
Fore
SplineSet
55 358 m 1,0,-1
 82 358 l 1,1,-1
 82 347 l 1,2,-1
 55 347 l 1,3,-1
 55 358 l 1,0,-1
55 321 m 1,4,-1
 82 321 l 1,5,-1
 82 310 l 1,6,-1
 55 310 l 1,7,-1
 55 321 l 1,4,-1
55 284 m 1,8,-1
 82 284 l 1,9,-1
 82 273 l 1,10,-1
 55 273 l 1,11,-1
 55 284 l 1,8,-1
55 248 m 1,12,-1
 82 248 l 1,13,-1
 82 237 l 1,14,-1
 55 237 l 1,15,-1
 55 248 l 1,12,-1
137 248 m 1,16,-1
 164 248 l 1,17,-1
 164 237 l 1,18,-1
 137 237 l 1,19,-1
 137 248 l 1,16,-1
164 248 m 1,20,-1
 192 248 l 1,21,-1
 192 237 l 1,22,-1
 164 237 l 1,23,-1
 164 248 l 1,20,-1
55 211 m 1,24,-1
 82 211 l 1,25,-1
 82 200 l 1,26,-1
 55 200 l 1,27,-1
 55 211 l 1,24,-1
109 211 m 1,28,-1
 137 211 l 1,29,-1
 137 200 l 1,30,-1
 109 200 l 1,31,-1
 109 211 l 1,28,-1
82 174 m 1,32,-1
 110 174 l 1,33,-1
 110 163 l 1,34,-1
 82 163 l 1,35,-1
 82 174 l 1,32,-1
55 174 m 1,36,-1
 82 174 l 1,37,-1
 82 163 l 1,38,-1
 55 163 l 1,39,-1
 55 174 l 1,36,-1
55 137 m 1,40,-1
 82 137 l 1,41,-1
 82 126 l 1,42,-1
 55 126 l 1,43,-1
 55 137 l 1,40,-1
109 137 m 1,44,-1
 137 137 l 1,45,-1
 137 126 l 1,46,-1
 109 126 l 1,47,-1
 109 137 l 1,44,-1
55 100 m 1,48,-1
 82 100 l 1,49,-1
 82 89 l 1,50,-1
 55 89 l 1,51,-1
 55 100 l 1,48,-1
137 100 m 1,52,-1
 164 100 l 1,53,-1
 164 89 l 1,54,-1
 137 89 l 1,55,-1
 137 100 l 1,52,-1
55 64 m 1,56,-1
 82 64 l 1,57,-1
 82 53 l 1,58,-1
 55 53 l 1,59,-1
 55 64 l 1,56,-1
137 64 m 1,60,-1
 164 64 l 1,61,-1
 164 53 l 1,62,-1
 137 53 l 1,63,-1
 137 64 l 1,60,-1
164 64 m 1,64,-1
 192 64 l 1,65,-1
 192 53 l 1,66,-1
 164 53 l 1,67,-1
 164 64 l 1,64,-1
EndSplineSet
EndChar

StartChar: l
Encoding: 108 108 79
Width: 246
Flags: W
LayerCount: 2
Fore
SplineSet
82 357 m 1,0,-1
 110 357 l 1,1,-1
 110 346 l 1,2,-1
 82 346 l 1,3,-1
 82 357 l 1,0,-1
109 357 m 1,4,-1
 137 357 l 1,5,-1
 137 346 l 1,6,-1
 109 346 l 1,7,-1
 109 357 l 1,4,-1
109 321 m 1,8,-1
 137 321 l 1,9,-1
 137 310 l 1,10,-1
 109 310 l 1,11,-1
 109 321 l 1,8,-1
109 284 m 1,12,-1
 137 284 l 1,13,-1
 137 273 l 1,14,-1
 109 273 l 1,15,-1
 109 284 l 1,12,-1
109 247 m 1,16,-1
 137 247 l 1,17,-1
 137 236 l 1,18,-1
 109 236 l 1,19,-1
 109 247 l 1,16,-1
109 212 m 1,20,-1
 137 212 l 1,21,-1
 137 201 l 1,22,-1
 109 201 l 1,23,-1
 109 212 l 1,20,-1
109 174 m 1,24,-1
 137 174 l 1,25,-1
 137 163 l 1,26,-1
 109 163 l 1,27,-1
 109 174 l 1,24,-1
109 138 m 1,28,-1
 137 138 l 1,29,-1
 137 127 l 1,30,-1
 109 127 l 1,31,-1
 109 138 l 1,28,-1
109 101 m 1,32,-1
 137 101 l 1,33,-1
 137 90 l 1,34,-1
 109 90 l 1,35,-1
 109 101 l 1,32,-1
192 101 m 1,36,-1
 219 101 l 1,37,-1
 219 90 l 1,38,-1
 192 90 l 1,39,-1
 192 101 l 1,36,-1
137 64 m 1,40,-1
 164 64 l 1,41,-1
 164 53 l 1,42,-1
 137 53 l 1,43,-1
 137 64 l 1,40,-1
164 64 m 1,44,-1
 192 64 l 1,45,-1
 192 53 l 1,46,-1
 164 53 l 1,47,-1
 164 64 l 1,44,-1
EndSplineSet
EndChar

StartChar: m
Encoding: 109 109 80
Width: 246
Flags: W
LayerCount: 2
Fore
SplineSet
27 247 m 1,0,-1
 55 247 l 1,1,-1
 55 236 l 1,2,-1
 27 236 l 1,3,-1
 27 247 l 1,0,-1
82 247 m 1,4,-1
 110 247 l 1,5,-1
 110 236 l 1,6,-1
 82 236 l 1,7,-1
 82 247 l 1,4,-1
55 247 m 1,8,-1
 82 247 l 1,9,-1
 82 236 l 1,10,-1
 55 236 l 1,11,-1
 55 247 l 1,8,-1
137 247 m 1,12,-1
 164 247 l 1,13,-1
 164 236 l 1,14,-1
 137 236 l 1,15,-1
 137 247 l 1,12,-1
164 247 m 1,16,-1
 192 247 l 1,17,-1
 192 236 l 1,18,-1
 164 236 l 1,19,-1
 164 247 l 1,16,-1
27 211 m 1,20,-1
 55 211 l 1,21,-1
 55 200 l 1,22,-1
 27 200 l 1,23,-1
 27 211 l 1,20,-1
82 211 m 1,24,-1
 110 211 l 1,25,-1
 110 200 l 1,26,-1
 82 200 l 1,27,-1
 82 211 l 1,24,-1
137 211 m 1,28,-1
 164 211 l 1,29,-1
 164 200 l 1,30,-1
 137 200 l 1,31,-1
 137 211 l 1,28,-1
109 211 m 1,32,-1
 137 211 l 1,33,-1
 137 200 l 1,34,-1
 109 200 l 1,35,-1
 109 211 l 1,32,-1
192 211 m 1,36,-1
 219 211 l 1,37,-1
 219 200 l 1,38,-1
 192 200 l 1,39,-1
 192 211 l 1,36,-1
27 174 m 1,40,-1
 55 174 l 1,41,-1
 55 163 l 1,42,-1
 27 163 l 1,43,-1
 27 174 l 1,40,-1
109 174 m 1,44,-1
 137 174 l 1,45,-1
 137 163 l 1,46,-1
 109 163 l 1,47,-1
 109 174 l 1,44,-1
192 174 m 1,48,-1
 219 174 l 1,49,-1
 219 163 l 1,50,-1
 192 163 l 1,51,-1
 192 174 l 1,48,-1
27 137 m 1,52,-1
 55 137 l 1,53,-1
 55 126 l 1,54,-1
 27 126 l 1,55,-1
 27 137 l 1,52,-1
109 137 m 1,56,-1
 137 137 l 1,57,-1
 137 126 l 1,58,-1
 109 126 l 1,59,-1
 109 137 l 1,56,-1
192 137 m 1,60,-1
 219 137 l 1,61,-1
 219 126 l 1,62,-1
 192 126 l 1,63,-1
 192 137 l 1,60,-1
27 101 m 1,64,-1
 55 101 l 1,65,-1
 55 90 l 1,66,-1
 27 90 l 1,67,-1
 27 101 l 1,64,-1
192 101 m 1,68,-1
 219 101 l 1,69,-1
 219 90 l 1,70,-1
 192 90 l 1,71,-1
 192 101 l 1,68,-1
27 65 m 1,72,-1
 55 65 l 1,73,-1
 55 54 l 1,74,-1
 27 54 l 1,75,-1
 27 65 l 1,72,-1
192 65 m 1,76,-1
 219 65 l 1,77,-1
 219 54 l 1,78,-1
 192 54 l 1,79,-1
 192 65 l 1,76,-1
EndSplineSet
EndChar

StartChar: n
Encoding: 110 110 81
Width: 246
Flags: W
LayerCount: 2
Fore
SplineSet
27 248 m 1,0,-1
 55 248 l 1,1,-1
 55 237 l 1,2,-1
 27 237 l 1,3,-1
 27 248 l 1,0,-1
137 248 m 1,4,-1
 164 248 l 1,5,-1
 164 237 l 1,6,-1
 137 237 l 1,7,-1
 137 248 l 1,4,-1
109 248 m 1,8,-1
 137 248 l 1,9,-1
 137 237 l 1,10,-1
 109 237 l 1,11,-1
 109 248 l 1,8,-1
164 248 m 1,12,-1
 192 248 l 1,13,-1
 192 237 l 1,14,-1
 164 237 l 1,15,-1
 164 248 l 1,12,-1
82 212 m 1,16,-1
 110 212 l 1,17,-1
 110 201 l 1,18,-1
 82 201 l 1,19,-1
 82 212 l 1,16,-1
55 212 m 1,20,-1
 82 212 l 1,21,-1
 82 201 l 1,22,-1
 55 201 l 1,23,-1
 55 212 l 1,20,-1
192 212 m 1,24,-1
 219 212 l 1,25,-1
 219 201 l 1,26,-1
 192 201 l 1,27,-1
 192 212 l 1,24,-1
55 174 m 1,28,-1
 82 174 l 1,29,-1
 82 163 l 1,30,-1
 55 163 l 1,31,-1
 55 174 l 1,28,-1
192 174 m 1,32,-1
 219 174 l 1,33,-1
 219 163 l 1,34,-1
 192 163 l 1,35,-1
 192 174 l 1,32,-1
55 138 m 1,36,-1
 82 138 l 1,37,-1
 82 127 l 1,38,-1
 55 127 l 1,39,-1
 55 138 l 1,36,-1
192 138 m 1,40,-1
 219 138 l 1,41,-1
 219 127 l 1,42,-1
 192 127 l 1,43,-1
 192 138 l 1,40,-1
55 101 m 1,44,-1
 82 101 l 1,45,-1
 82 90 l 1,46,-1
 55 90 l 1,47,-1
 55 101 l 1,44,-1
192 101 m 1,48,-1
 219 101 l 1,49,-1
 219 90 l 1,50,-1
 192 90 l 1,51,-1
 192 101 l 1,48,-1
55 64 m 1,52,-1
 82 64 l 1,53,-1
 82 53 l 1,54,-1
 55 53 l 1,55,-1
 55 64 l 1,52,-1
192 64 m 1,56,-1
 219 64 l 1,57,-1
 219 53 l 1,58,-1
 192 53 l 1,59,-1
 192 64 l 1,56,-1
EndSplineSet
EndChar

StartChar: o
Encoding: 111 111 82
Width: 246
Flags: W
LayerCount: 2
Fore
SplineSet
82 247 m 1,0,-1
 110 247 l 1,1,-1
 110 236 l 1,2,-1
 82 236 l 1,3,-1
 82 247 l 1,0,-1
55 247 m 1,4,-1
 82 247 l 1,5,-1
 82 236 l 1,6,-1
 55 236 l 1,7,-1
 55 247 l 1,4,-1
137 247 m 1,8,-1
 164 247 l 1,9,-1
 164 236 l 1,10,-1
 137 236 l 1,11,-1
 137 247 l 1,8,-1
109 247 m 1,12,-1
 137 247 l 1,13,-1
 137 236 l 1,14,-1
 109 236 l 1,15,-1
 109 247 l 1,12,-1
164 247 m 1,16,-1
 192 247 l 1,17,-1
 192 236 l 1,18,-1
 164 236 l 1,19,-1
 164 247 l 1,16,-1
27 211 m 1,20,-1
 55 211 l 1,21,-1
 55 200 l 1,22,-1
 27 200 l 1,23,-1
 27 211 l 1,20,-1
192 211 m 1,24,-1
 219 211 l 1,25,-1
 219 200 l 1,26,-1
 192 200 l 1,27,-1
 192 211 l 1,24,-1
27 174 m 1,28,-1
 55 174 l 1,29,-1
 55 163 l 1,30,-1
 27 163 l 1,31,-1
 27 174 l 1,28,-1
192 174 m 1,32,-1
 219 174 l 1,33,-1
 219 163 l 1,34,-1
 192 163 l 1,35,-1
 192 174 l 1,32,-1
27 137 m 1,36,-1
 55 137 l 1,37,-1
 55 126 l 1,38,-1
 27 126 l 1,39,-1
 27 137 l 1,36,-1
192 137 m 1,40,-1
 219 137 l 1,41,-1
 219 126 l 1,42,-1
 192 126 l 1,43,-1
 192 137 l 1,40,-1
27 101 m 1,44,-1
 55 101 l 1,45,-1
 55 90 l 1,46,-1
 27 90 l 1,47,-1
 27 101 l 1,44,-1
192 101 m 1,48,-1
 219 101 l 1,49,-1
 219 90 l 1,50,-1
 192 90 l 1,51,-1
 192 101 l 1,48,-1
82 64 m 1,52,-1
 110 64 l 1,53,-1
 110 53 l 1,54,-1
 82 53 l 1,55,-1
 82 64 l 1,52,-1
55 64 m 1,56,-1
 82 64 l 1,57,-1
 82 53 l 1,58,-1
 55 53 l 1,59,-1
 55 64 l 1,56,-1
137 64 m 1,60,-1
 164 64 l 1,61,-1
 164 53 l 1,62,-1
 137 53 l 1,63,-1
 137 64 l 1,60,-1
109 64 m 1,64,-1
 137 64 l 1,65,-1
 137 53 l 1,66,-1
 109 53 l 1,67,-1
 109 64 l 1,64,-1
164 64 m 1,68,-1
 192 64 l 1,69,-1
 192 53 l 1,70,-1
 164 53 l 1,71,-1
 164 64 l 1,68,-1
EndSplineSet
EndChar

StartChar: p
Encoding: 112 112 83
Width: 246
Flags: W
LayerCount: 2
Fore
SplineSet
27 248 m 1,0,-1
 55 248 l 1,1,-1
 55 237 l 1,2,-1
 27 237 l 1,3,-1
 27 248 l 1,0,-1
82 248 m 1,4,-1
 110 248 l 1,5,-1
 110 237 l 1,6,-1
 82 237 l 1,7,-1
 82 248 l 1,4,-1
55 248 m 1,8,-1
 82 248 l 1,9,-1
 82 237 l 1,10,-1
 55 237 l 1,11,-1
 55 248 l 1,8,-1
137 248 m 1,12,-1
 164 248 l 1,13,-1
 164 237 l 1,14,-1
 137 237 l 1,15,-1
 137 248 l 1,12,-1
109 248 m 1,16,-1
 137 248 l 1,17,-1
 137 237 l 1,18,-1
 109 237 l 1,19,-1
 109 248 l 1,16,-1
164 248 m 1,20,-1
 192 248 l 1,21,-1
 192 237 l 1,22,-1
 164 237 l 1,23,-1
 164 248 l 1,20,-1
27 211 m 1,24,-1
 55 211 l 1,25,-1
 55 200 l 1,26,-1
 27 200 l 1,27,-1
 27 211 l 1,24,-1
192 211 m 1,28,-1
 219 211 l 1,29,-1
 219 200 l 1,30,-1
 192 200 l 1,31,-1
 192 211 l 1,28,-1
27 174 m 1,32,-1
 55 174 l 1,33,-1
 55 163 l 1,34,-1
 27 163 l 1,35,-1
 27 174 l 1,32,-1
192 174 m 1,36,-1
 219 174 l 1,37,-1
 219 163 l 1,38,-1
 192 163 l 1,39,-1
 192 174 l 1,36,-1
27 138 m 1,40,-1
 55 138 l 1,41,-1
 55 127 l 1,42,-1
 27 127 l 1,43,-1
 27 138 l 1,40,-1
192 138 m 1,44,-1
 219 138 l 1,45,-1
 219 127 l 1,46,-1
 192 127 l 1,47,-1
 192 138 l 1,44,-1
27 101 m 1,48,-1
 55 101 l 1,49,-1
 55 90 l 1,50,-1
 27 90 l 1,51,-1
 27 101 l 1,48,-1
192 101 m 1,52,-1
 219 101 l 1,53,-1
 219 90 l 1,54,-1
 192 90 l 1,55,-1
 192 101 l 1,52,-1
27 65 m 1,56,-1
 55 65 l 1,57,-1
 55 54 l 1,58,-1
 27 54 l 1,59,-1
 27 65 l 1,56,-1
82 65 m 1,60,-1
 110 65 l 1,61,-1
 110 54 l 1,62,-1
 82 54 l 1,63,-1
 82 65 l 1,60,-1
55 65 m 1,64,-1
 82 65 l 1,65,-1
 82 54 l 1,66,-1
 55 54 l 1,67,-1
 55 65 l 1,64,-1
137 65 m 1,68,-1
 164 65 l 1,69,-1
 164 54 l 1,70,-1
 137 54 l 1,71,-1
 137 65 l 1,68,-1
109 65 m 1,72,-1
 137 65 l 1,73,-1
 137 54 l 1,74,-1
 109 54 l 1,75,-1
 109 65 l 1,72,-1
164 65 m 1,76,-1
 192 65 l 1,77,-1
 192 54 l 1,78,-1
 164 54 l 1,79,-1
 164 65 l 1,76,-1
27 27 m 1,80,-1
 55 27 l 1,81,-1
 55 17 l 1,82,-1
 27 17 l 1,83,-1
 27 27 l 1,80,-1
27 -10 m 1,84,-1
 55 -10 l 1,85,-1
 55 -21 l 1,86,-1
 27 -21 l 1,87,-1
 27 -10 l 1,84,-1
EndSplineSet
EndChar

StartChar: q
Encoding: 113 113 84
Width: 246
Flags: W
LayerCount: 2
Fore
SplineSet
82 247 m 1,0,-1
 110 247 l 1,1,-1
 110 236 l 1,2,-1
 82 236 l 1,3,-1
 82 247 l 1,0,-1
55 247 m 1,4,-1
 82 247 l 1,5,-1
 82 236 l 1,6,-1
 55 236 l 1,7,-1
 55 247 l 1,4,-1
137 247 m 1,8,-1
 164 247 l 1,9,-1
 164 236 l 1,10,-1
 137 236 l 1,11,-1
 137 247 l 1,8,-1
109 247 m 1,12,-1
 137 247 l 1,13,-1
 137 236 l 1,14,-1
 109 236 l 1,15,-1
 109 247 l 1,12,-1
192 247 m 1,16,-1
 219 247 l 1,17,-1
 219 236 l 1,18,-1
 192 236 l 1,19,-1
 192 247 l 1,16,-1
164 247 m 1,20,-1
 192 247 l 1,21,-1
 192 236 l 1,22,-1
 164 236 l 1,23,-1
 164 247 l 1,20,-1
27 211 m 1,24,-1
 55 211 l 1,25,-1
 55 200 l 1,26,-1
 27 200 l 1,27,-1
 27 211 l 1,24,-1
192 211 m 1,28,-1
 219 211 l 1,29,-1
 219 200 l 1,30,-1
 192 200 l 1,31,-1
 192 211 l 1,28,-1
27 174 m 1,32,-1
 55 174 l 1,33,-1
 55 163 l 1,34,-1
 27 163 l 1,35,-1
 27 174 l 1,32,-1
192 174 m 1,36,-1
 219 174 l 1,37,-1
 219 163 l 1,38,-1
 192 163 l 1,39,-1
 192 174 l 1,36,-1
27 137 m 1,40,-1
 55 137 l 1,41,-1
 55 126 l 1,42,-1
 27 126 l 1,43,-1
 27 137 l 1,40,-1
192 137 m 1,44,-1
 219 137 l 1,45,-1
 219 126 l 1,46,-1
 192 126 l 1,47,-1
 192 137 l 1,44,-1
27 100 m 1,48,-1
 55 100 l 1,49,-1
 55 89 l 1,50,-1
 27 89 l 1,51,-1
 27 100 l 1,48,-1
192 100 m 1,52,-1
 219 100 l 1,53,-1
 219 89 l 1,54,-1
 192 89 l 1,55,-1
 192 100 l 1,52,-1
82 65 m 1,56,-1
 110 65 l 1,57,-1
 110 54 l 1,58,-1
 82 54 l 1,59,-1
 82 65 l 1,56,-1
55 65 m 1,60,-1
 82 65 l 1,61,-1
 82 54 l 1,62,-1
 55 54 l 1,63,-1
 55 65 l 1,60,-1
137 65 m 1,64,-1
 164 65 l 1,65,-1
 164 54 l 1,66,-1
 137 54 l 1,67,-1
 137 65 l 1,64,-1
109 65 m 1,68,-1
 137 65 l 1,69,-1
 137 54 l 1,70,-1
 109 54 l 1,71,-1
 109 65 l 1,68,-1
192 65 m 1,72,-1
 219 65 l 1,73,-1
 219 54 l 1,74,-1
 192 54 l 1,75,-1
 192 65 l 1,72,-1
164 65 m 1,76,-1
 192 65 l 1,77,-1
 192 54 l 1,78,-1
 164 54 l 1,79,-1
 164 65 l 1,76,-1
192 28 m 1,80,-1
 219 28 l 1,81,-1
 219 17 l 1,82,-1
 192 17 l 1,83,-1
 192 28 l 1,80,-1
192 -8 m 1,84,-1
 219 -8 l 1,85,-1
 219 -19 l 1,86,-1
 192 -19 l 1,87,-1
 192 -8 l 1,84,-1
EndSplineSet
EndChar

StartChar: r
Encoding: 114 114 85
Width: 246
Flags: W
LayerCount: 2
Fore
SplineSet
27 247 m 1,0,-1
 55 247 l 1,1,-1
 55 236 l 1,2,-1
 27 236 l 1,3,-1
 27 247 l 1,0,-1
137 247 m 1,4,-1
 164 247 l 1,5,-1
 164 236 l 1,6,-1
 137 236 l 1,7,-1
 137 247 l 1,4,-1
109 247 m 1,8,-1
 137 247 l 1,9,-1
 137 236 l 1,10,-1
 109 236 l 1,11,-1
 109 247 l 1,8,-1
164 247 m 1,12,-1
 192 247 l 1,13,-1
 192 236 l 1,14,-1
 164 236 l 1,15,-1
 164 247 l 1,12,-1
82 211 m 1,16,-1
 110 211 l 1,17,-1
 110 200 l 1,18,-1
 82 200 l 1,19,-1
 82 211 l 1,16,-1
55 211 m 1,20,-1
 82 211 l 1,21,-1
 82 200 l 1,22,-1
 55 200 l 1,23,-1
 55 211 l 1,20,-1
192 211 m 1,24,-1
 219 211 l 1,25,-1
 219 200 l 1,26,-1
 192 200 l 1,27,-1
 192 211 l 1,24,-1
55 174 m 1,28,-1
 82 174 l 1,29,-1
 82 163 l 1,30,-1
 55 163 l 1,31,-1
 55 174 l 1,28,-1
55 137 m 1,32,-1
 82 137 l 1,33,-1
 82 126 l 1,34,-1
 55 126 l 1,35,-1
 55 137 l 1,32,-1
55 100 m 1,36,-1
 82 100 l 1,37,-1
 82 89 l 1,38,-1
 55 89 l 1,39,-1
 55 100 l 1,36,-1
55 65 m 1,40,-1
 82 65 l 1,41,-1
 82 54 l 1,42,-1
 55 54 l 1,43,-1
 55 65 l 1,40,-1
EndSplineSet
EndChar

StartChar: s
Encoding: 115 115 86
Width: 246
Flags: W
LayerCount: 2
Fore
SplineSet
82 247 m 1,0,-1
 110 247 l 1,1,-1
 110 236 l 1,2,-1
 82 236 l 1,3,-1
 82 247 l 1,0,-1
55 247 m 1,4,-1
 82 247 l 1,5,-1
 82 236 l 1,6,-1
 55 236 l 1,7,-1
 55 247 l 1,4,-1
137 247 m 1,8,-1
 164 247 l 1,9,-1
 164 236 l 1,10,-1
 137 236 l 1,11,-1
 137 247 l 1,8,-1
109 247 m 1,12,-1
 137 247 l 1,13,-1
 137 236 l 1,14,-1
 109 236 l 1,15,-1
 109 247 l 1,12,-1
164 247 m 1,16,-1
 192 247 l 1,17,-1
 192 236 l 1,18,-1
 164 236 l 1,19,-1
 164 247 l 1,16,-1
27 211 m 1,20,-1
 55 211 l 1,21,-1
 55 200 l 1,22,-1
 27 200 l 1,23,-1
 27 211 l 1,20,-1
192 211 m 1,24,-1
 219 211 l 1,25,-1
 219 200 l 1,26,-1
 192 200 l 1,27,-1
 192 211 l 1,24,-1
82 174 m 1,28,-1
 110 174 l 1,29,-1
 110 163 l 1,30,-1
 82 163 l 1,31,-1
 82 174 l 1,28,-1
55 174 m 1,32,-1
 82 174 l 1,33,-1
 82 163 l 1,34,-1
 55 163 l 1,35,-1
 55 174 l 1,32,-1
137 137 m 1,36,-1
 164 137 l 1,37,-1
 164 126 l 1,38,-1
 137 126 l 1,39,-1
 137 137 l 1,36,-1
109 137 m 1,40,-1
 137 137 l 1,41,-1
 137 126 l 1,42,-1
 109 126 l 1,43,-1
 109 137 l 1,40,-1
164 137 m 1,44,-1
 192 137 l 1,45,-1
 192 126 l 1,46,-1
 164 126 l 1,47,-1
 164 137 l 1,44,-1
27 100 m 1,48,-1
 55 100 l 1,49,-1
 55 89 l 1,50,-1
 27 89 l 1,51,-1
 27 100 l 1,48,-1
192 100 m 1,52,-1
 219 100 l 1,53,-1
 219 89 l 1,54,-1
 192 89 l 1,55,-1
 192 100 l 1,52,-1
82 64 m 1,56,-1
 110 64 l 1,57,-1
 110 53 l 1,58,-1
 82 53 l 1,59,-1
 82 64 l 1,56,-1
55 64 m 1,60,-1
 82 64 l 1,61,-1
 82 53 l 1,62,-1
 55 53 l 1,63,-1
 55 64 l 1,60,-1
137 64 m 1,64,-1
 164 64 l 1,65,-1
 164 53 l 1,66,-1
 137 53 l 1,67,-1
 137 64 l 1,64,-1
109 64 m 1,68,-1
 137 64 l 1,69,-1
 137 53 l 1,70,-1
 109 53 l 1,71,-1
 109 64 l 1,68,-1
164 64 m 1,72,-1
 192 64 l 1,73,-1
 192 53 l 1,74,-1
 164 53 l 1,75,-1
 164 64 l 1,72,-1
EndSplineSet
EndChar

StartChar: t
Encoding: 116 116 87
Width: 246
Flags: W
LayerCount: 2
Fore
SplineSet
109 357 m 1,0,-1
 137 357 l 1,1,-1
 137 346 l 1,2,-1
 109 346 l 1,3,-1
 109 357 l 1,0,-1
109 321 m 1,4,-1
 137 321 l 1,5,-1
 137 310 l 1,6,-1
 109 310 l 1,7,-1
 109 321 l 1,4,-1
109 284 m 1,8,-1
 137 284 l 1,9,-1
 137 273 l 1,10,-1
 109 273 l 1,11,-1
 109 284 l 1,8,-1
82 247 m 1,12,-1
 110 247 l 1,13,-1
 110 236 l 1,14,-1
 82 236 l 1,15,-1
 82 247 l 1,12,-1
137 247 m 1,16,-1
 164 247 l 1,17,-1
 164 236 l 1,18,-1
 137 236 l 1,19,-1
 137 247 l 1,16,-1
109 247 m 1,20,-1
 137 247 l 1,21,-1
 137 236 l 1,22,-1
 109 236 l 1,23,-1
 109 247 l 1,20,-1
109 211 m 1,24,-1
 137 211 l 1,25,-1
 137 200 l 1,26,-1
 109 200 l 1,27,-1
 109 211 l 1,24,-1
109 174 m 1,28,-1
 137 174 l 1,29,-1
 137 163 l 1,30,-1
 109 163 l 1,31,-1
 109 174 l 1,28,-1
109 137 m 1,32,-1
 137 137 l 1,33,-1
 137 126 l 1,34,-1
 109 126 l 1,35,-1
 109 137 l 1,32,-1
109 100 m 1,36,-1
 137 100 l 1,37,-1
 137 89 l 1,38,-1
 109 89 l 1,39,-1
 109 100 l 1,36,-1
164 100 m 1,40,-1
 192 100 l 1,41,-1
 192 89 l 1,42,-1
 164 89 l 1,43,-1
 164 100 l 1,40,-1
137 63 m 1,44,-1
 164 63 l 1,45,-1
 164 52 l 1,46,-1
 137 52 l 1,47,-1
 137 63 l 1,44,-1
EndSplineSet
EndChar

StartChar: u
Encoding: 117 117 88
Width: 246
Flags: W
LayerCount: 2
Fore
SplineSet
55 248 m 1,0,-1
 82 248 l 1,1,-1
 82 237 l 1,2,-1
 55 237 l 1,3,-1
 55 248 l 1,0,-1
164 248 m 1,4,-1
 191 248 l 1,5,-1
 191 237 l 1,6,-1
 164 237 l 1,7,-1
 164 248 l 1,4,-1
55 211 m 1,8,-1
 82 211 l 1,9,-1
 82 200 l 1,10,-1
 55 200 l 1,11,-1
 55 211 l 1,8,-1
164 211 m 1,12,-1
 191 211 l 1,13,-1
 191 200 l 1,14,-1
 164 200 l 1,15,-1
 164 211 l 1,12,-1
55 174 m 1,16,-1
 82 174 l 1,17,-1
 82 163 l 1,18,-1
 55 163 l 1,19,-1
 55 174 l 1,16,-1
164 174 m 1,20,-1
 191 174 l 1,21,-1
 191 163 l 1,22,-1
 164 163 l 1,23,-1
 164 174 l 1,20,-1
55 137 m 1,24,-1
 82 137 l 1,25,-1
 82 126 l 1,26,-1
 55 126 l 1,27,-1
 55 137 l 1,24,-1
164 137 m 1,28,-1
 191 137 l 1,29,-1
 191 126 l 1,30,-1
 164 126 l 1,31,-1
 164 137 l 1,28,-1
55 100 m 1,32,-1
 82 100 l 1,33,-1
 82 89 l 1,34,-1
 55 89 l 1,35,-1
 55 100 l 1,32,-1
164 100 m 1,36,-1
 191 100 l 1,37,-1
 191 89 l 1,38,-1
 164 89 l 1,39,-1
 164 100 l 1,36,-1
82 65 m 1,40,-1
 109 65 l 1,41,-1
 109 54 l 1,42,-1
 82 54 l 1,43,-1
 82 65 l 1,40,-1
137 65 m 1,44,-1
 164 65 l 1,45,-1
 164 54 l 1,46,-1
 137 54 l 1,47,-1
 137 65 l 1,44,-1
109 65 m 1,48,-1
 137 65 l 1,49,-1
 137 54 l 1,50,-1
 109 54 l 1,51,-1
 109 65 l 1,48,-1
191 65 m 1,52,-1
 219 65 l 1,53,-1
 219 54 l 1,54,-1
 191 54 l 1,55,-1
 191 65 l 1,52,-1
EndSplineSet
EndChar

StartChar: v
Encoding: 118 118 89
Width: 246
Flags: W
LayerCount: 2
Fore
SplineSet
27 248 m 1,0,-1
 55 248 l 1,1,-1
 55 237 l 1,2,-1
 27 237 l 1,3,-1
 27 248 l 1,0,-1
192 248 m 1,4,-1
 219 248 l 1,5,-1
 219 237 l 1,6,-1
 192 237 l 1,7,-1
 192 248 l 1,4,-1
27 211 m 1,8,-1
 55 211 l 1,9,-1
 55 200 l 1,10,-1
 27 200 l 1,11,-1
 27 211 l 1,8,-1
192 211 m 1,12,-1
 219 211 l 1,13,-1
 219 200 l 1,14,-1
 192 200 l 1,15,-1
 192 211 l 1,12,-1
27 174 m 1,16,-1
 55 174 l 1,17,-1
 55 163 l 1,18,-1
 27 163 l 1,19,-1
 27 174 l 1,16,-1
192 174 m 1,20,-1
 219 174 l 1,21,-1
 219 163 l 1,22,-1
 192 163 l 1,23,-1
 192 174 l 1,20,-1
55 137 m 1,24,-1
 82 137 l 1,25,-1
 82 126 l 1,26,-1
 55 126 l 1,27,-1
 55 137 l 1,24,-1
164 137 m 1,28,-1
 192 137 l 1,29,-1
 192 126 l 1,30,-1
 164 126 l 1,31,-1
 164 137 l 1,28,-1
82 100 m 1,32,-1
 110 100 l 1,33,-1
 110 89 l 1,34,-1
 82 89 l 1,35,-1
 82 100 l 1,32,-1
137 100 m 1,36,-1
 164 100 l 1,37,-1
 164 89 l 1,38,-1
 137 89 l 1,39,-1
 137 100 l 1,36,-1
109 64 m 1,40,-1
 137 64 l 1,41,-1
 137 53 l 1,42,-1
 109 53 l 1,43,-1
 109 64 l 1,40,-1
EndSplineSet
EndChar

StartChar: w
Encoding: 119 119 90
Width: 246
Flags: W
LayerCount: 2
Fore
SplineSet
27 247 m 1,0,-1
 55 247 l 1,1,-1
 55 236 l 1,2,-1
 27 236 l 1,3,-1
 27 247 l 1,0,-1
191 247 m 1,4,-1
 219 247 l 1,5,-1
 219 236 l 1,6,-1
 191 236 l 1,7,-1
 191 247 l 1,4,-1
27 211 m 1,8,-1
 55 211 l 1,9,-1
 55 200 l 1,10,-1
 27 200 l 1,11,-1
 27 211 l 1,8,-1
191 211 m 1,12,-1
 219 211 l 1,13,-1
 219 200 l 1,14,-1
 191 200 l 1,15,-1
 191 211 l 1,12,-1
27 174 m 1,16,-1
 55 174 l 1,17,-1
 55 163 l 1,18,-1
 27 163 l 1,19,-1
 27 174 l 1,16,-1
109 174 m 1,20,-1
 137 174 l 1,21,-1
 137 163 l 1,22,-1
 109 163 l 1,23,-1
 109 174 l 1,20,-1
191 174 m 1,24,-1
 219 174 l 1,25,-1
 219 163 l 1,26,-1
 191 163 l 1,27,-1
 191 174 l 1,24,-1
27 137 m 1,28,-1
 55 137 l 1,29,-1
 55 126 l 1,30,-1
 27 126 l 1,31,-1
 27 137 l 1,28,-1
109 137 m 1,32,-1
 137 137 l 1,33,-1
 137 126 l 1,34,-1
 109 126 l 1,35,-1
 109 137 l 1,32,-1
191 137 m 1,36,-1
 219 137 l 1,37,-1
 219 126 l 1,38,-1
 191 126 l 1,39,-1
 191 137 l 1,36,-1
27 100 m 1,40,-1
 55 100 l 1,41,-1
 55 89 l 1,42,-1
 27 89 l 1,43,-1
 27 100 l 1,40,-1
109 100 m 1,44,-1
 137 100 l 1,45,-1
 137 89 l 1,46,-1
 109 89 l 1,47,-1
 109 100 l 1,44,-1
191 100 m 1,48,-1
 219 100 l 1,49,-1
 219 89 l 1,50,-1
 191 89 l 1,51,-1
 191 100 l 1,48,-1
82 64 m 1,52,-1
 109 64 l 1,53,-1
 109 53 l 1,54,-1
 82 53 l 1,55,-1
 82 64 l 1,52,-1
55 64 m 1,56,-1
 82 64 l 1,57,-1
 82 53 l 1,58,-1
 55 53 l 1,59,-1
 55 64 l 1,56,-1
137 64 m 1,60,-1
 164 64 l 1,61,-1
 164 53 l 1,62,-1
 137 53 l 1,63,-1
 137 64 l 1,60,-1
164 64 m 1,64,-1
 191 64 l 1,65,-1
 191 53 l 1,66,-1
 164 53 l 1,67,-1
 164 64 l 1,64,-1
EndSplineSet
EndChar

StartChar: x
Encoding: 120 120 91
Width: 246
Flags: W
LayerCount: 2
Fore
SplineSet
27 247 m 1,0,-1
 55 247 l 1,1,-1
 55 236 l 1,2,-1
 27 236 l 1,3,-1
 27 247 l 1,0,-1
164 247 m 1,4,-1
 192 247 l 1,5,-1
 192 236 l 1,6,-1
 164 236 l 1,7,-1
 164 247 l 1,4,-1
55 211 m 1,8,-1
 82 211 l 1,9,-1
 82 200 l 1,10,-1
 55 200 l 1,11,-1
 55 211 l 1,8,-1
137 211 m 1,12,-1
 164 211 l 1,13,-1
 164 200 l 1,14,-1
 137 200 l 1,15,-1
 137 211 l 1,12,-1
82 175 m 1,16,-1
 110 175 l 1,17,-1
 110 164 l 1,18,-1
 82 164 l 1,19,-1
 82 175 l 1,16,-1
109 175 m 1,20,-1
 137 175 l 1,21,-1
 137 164 l 1,22,-1
 109 164 l 1,23,-1
 109 175 l 1,20,-1
82 138 m 1,24,-1
 110 138 l 1,25,-1
 110 127 l 1,26,-1
 82 127 l 1,27,-1
 82 138 l 1,24,-1
109 138 m 1,28,-1
 137 138 l 1,29,-1
 137 127 l 1,30,-1
 109 127 l 1,31,-1
 109 138 l 1,28,-1
55 101 m 1,32,-1
 82 101 l 1,33,-1
 82 90 l 1,34,-1
 55 90 l 1,35,-1
 55 101 l 1,32,-1
137 101 m 1,36,-1
 164 101 l 1,37,-1
 164 90 l 1,38,-1
 137 90 l 1,39,-1
 137 101 l 1,36,-1
27 64 m 1,40,-1
 55 64 l 1,41,-1
 55 53 l 1,42,-1
 27 53 l 1,43,-1
 27 64 l 1,40,-1
164 64 m 1,44,-1
 192 64 l 1,45,-1
 192 53 l 1,46,-1
 164 53 l 1,47,-1
 164 64 l 1,44,-1
EndSplineSet
EndChar

StartChar: y
Encoding: 121 121 92
Width: 246
Flags: W
LayerCount: 2
Fore
SplineSet
27 247 m 1,0,-1
 55 247 l 1,1,-1
 55 236 l 1,2,-1
 27 236 l 1,3,-1
 27 247 l 1,0,-1
192 247 m 1,4,-1
 219 247 l 1,5,-1
 219 236 l 1,6,-1
 192 236 l 1,7,-1
 192 247 l 1,4,-1
27 211 m 1,8,-1
 55 211 l 1,9,-1
 55 200 l 1,10,-1
 27 200 l 1,11,-1
 27 211 l 1,8,-1
192 211 m 1,12,-1
 219 211 l 1,13,-1
 219 200 l 1,14,-1
 192 200 l 1,15,-1
 192 211 l 1,12,-1
27 174 m 1,16,-1
 55 174 l 1,17,-1
 55 163 l 1,18,-1
 27 163 l 1,19,-1
 27 174 l 1,16,-1
192 174 m 1,20,-1
 219 174 l 1,21,-1
 219 163 l 1,22,-1
 192 163 l 1,23,-1
 192 174 l 1,20,-1
55 137 m 1,24,-1
 82 137 l 1,25,-1
 82 126 l 1,26,-1
 55 126 l 1,27,-1
 55 137 l 1,24,-1
164 137 m 1,28,-1
 192 137 l 1,29,-1
 192 126 l 1,30,-1
 164 126 l 1,31,-1
 164 137 l 1,28,-1
82 100 m 1,32,-1
 110 100 l 1,33,-1
 110 89 l 1,34,-1
 82 89 l 1,35,-1
 82 100 l 1,32,-1
137 100 m 1,36,-1
 164 100 l 1,37,-1
 164 89 l 1,38,-1
 137 89 l 1,39,-1
 137 100 l 1,36,-1
109 64 m 1,40,-1
 137 64 l 1,41,-1
 137 53 l 1,42,-1
 109 53 l 1,43,-1
 109 64 l 1,40,-1
82 27 m 1,44,-1
 110 27 l 1,45,-1
 110 17 l 1,46,-1
 82 17 l 1,47,-1
 82 27 l 1,44,-1
55 -10 m 1,48,-1
 82 -10 l 1,49,-1
 82 -21 l 1,50,-1
 55 -21 l 1,51,-1
 55 -10 l 1,48,-1
EndSplineSet
EndChar

StartChar: z
Encoding: 122 122 93
Width: 246
Flags: W
LayerCount: 2
Fore
SplineSet
82 247 m 1,0,-1
 110 247 l 1,1,-1
 110 236 l 1,2,-1
 82 236 l 1,3,-1
 82 247 l 1,0,-1
55 247 m 1,4,-1
 82 247 l 1,5,-1
 82 236 l 1,6,-1
 55 236 l 1,7,-1
 55 247 l 1,4,-1
137 247 m 1,8,-1
 164 247 l 1,9,-1
 164 236 l 1,10,-1
 137 236 l 1,11,-1
 137 247 l 1,8,-1
109 247 m 1,12,-1
 137 247 l 1,13,-1
 137 236 l 1,14,-1
 109 236 l 1,15,-1
 109 247 l 1,12,-1
192 247 m 1,16,-1
 219 247 l 1,17,-1
 219 236 l 1,18,-1
 192 236 l 1,19,-1
 192 247 l 1,16,-1
164 247 m 1,20,-1
 192 247 l 1,21,-1
 192 236 l 1,22,-1
 164 236 l 1,23,-1
 164 247 l 1,20,-1
164 211 m 1,24,-1
 192 211 l 1,25,-1
 192 200 l 1,26,-1
 164 200 l 1,27,-1
 164 211 l 1,24,-1
137 174 m 1,28,-1
 164 174 l 1,29,-1
 164 163 l 1,30,-1
 137 163 l 1,31,-1
 137 174 l 1,28,-1
109 137 m 1,32,-1
 137 137 l 1,33,-1
 137 126 l 1,34,-1
 109 126 l 1,35,-1
 109 137 l 1,32,-1
82 101 m 1,36,-1
 110 101 l 1,37,-1
 110 90 l 1,38,-1
 82 90 l 1,39,-1
 82 101 l 1,36,-1
82 64 m 1,40,-1
 110 64 l 1,41,-1
 110 53 l 1,42,-1
 82 53 l 1,43,-1
 82 64 l 1,40,-1
55 64 m 1,44,-1
 82 64 l 1,45,-1
 82 53 l 1,46,-1
 55 53 l 1,47,-1
 55 64 l 1,44,-1
137 64 m 1,48,-1
 164 64 l 1,49,-1
 164 53 l 1,50,-1
 137 53 l 1,51,-1
 137 64 l 1,48,-1
109 64 m 1,52,-1
 137 64 l 1,53,-1
 137 53 l 1,54,-1
 109 53 l 1,55,-1
 109 64 l 1,52,-1
192 64 m 1,56,-1
 219 64 l 1,57,-1
 219 53 l 1,58,-1
 192 53 l 1,59,-1
 192 64 l 1,56,-1
164 64 m 1,60,-1
 192 64 l 1,61,-1
 192 53 l 1,62,-1
 164 53 l 1,63,-1
 164 64 l 1,60,-1
EndSplineSet
EndChar

StartChar: braceleft
Encoding: 123 123 94
Width: 246
Flags: W
LayerCount: 2
Fore
SplineSet
137 358 m 1,0,-1
 164 358 l 1,1,-1
 164 347 l 1,2,-1
 137 347 l 1,3,-1
 137 358 l 1,0,-1
109 358 m 1,4,-1
 137 358 l 1,5,-1
 137 347 l 1,6,-1
 109 347 l 1,7,-1
 109 358 l 1,4,-1
164 358 m 1,8,-1
 192 358 l 1,9,-1
 192 347 l 1,10,-1
 164 347 l 1,11,-1
 164 358 l 1,8,-1
82 321 m 1,12,-1
 110 321 l 1,13,-1
 110 310 l 1,14,-1
 82 310 l 1,15,-1
 82 321 l 1,12,-1
82 284 m 1,16,-1
 110 284 l 1,17,-1
 110 273 l 1,18,-1
 82 273 l 1,19,-1
 82 284 l 1,16,-1
82 248 m 1,20,-1
 110 248 l 1,21,-1
 110 237 l 1,22,-1
 82 237 l 1,23,-1
 82 248 l 1,20,-1
55 211 m 1,24,-1
 82 211 l 1,25,-1
 82 200 l 1,26,-1
 55 200 l 1,27,-1
 55 211 l 1,24,-1
82 174 m 1,28,-1
 110 174 l 1,29,-1
 110 163 l 1,30,-1
 82 163 l 1,31,-1
 82 174 l 1,28,-1
82 138 m 1,32,-1
 110 138 l 1,33,-1
 110 127 l 1,34,-1
 82 127 l 1,35,-1
 82 138 l 1,32,-1
82 101 m 1,36,-1
 110 101 l 1,37,-1
 110 90 l 1,38,-1
 82 90 l 1,39,-1
 82 101 l 1,36,-1
137 64 m 1,40,-1
 164 64 l 1,41,-1
 164 53 l 1,42,-1
 137 53 l 1,43,-1
 137 64 l 1,40,-1
109 64 m 1,44,-1
 137 64 l 1,45,-1
 137 53 l 1,46,-1
 109 53 l 1,47,-1
 109 64 l 1,44,-1
164 64 m 1,48,-1
 192 64 l 1,49,-1
 192 53 l 1,50,-1
 164 53 l 1,51,-1
 164 64 l 1,48,-1
EndSplineSet
EndChar

StartChar: bar
Encoding: 124 124 95
Width: 246
Flags: W
LayerCount: 2
Fore
SplineSet
109 358 m 1,0,-1
 137 358 l 1,1,-1
 137 347 l 1,2,-1
 109 347 l 1,3,-1
 109 358 l 1,0,-1
109 321 m 1,4,-1
 137 321 l 1,5,-1
 137 310 l 1,6,-1
 109 310 l 1,7,-1
 109 321 l 1,4,-1
109 284 m 1,8,-1
 137 284 l 1,9,-1
 137 273 l 1,10,-1
 109 273 l 1,11,-1
 109 284 l 1,8,-1
109 248 m 1,12,-1
 137 248 l 1,13,-1
 137 237 l 1,14,-1
 109 237 l 1,15,-1
 109 248 l 1,12,-1
109 174 m 1,16,-1
 137 174 l 1,17,-1
 137 163 l 1,18,-1
 109 163 l 1,19,-1
 109 174 l 1,16,-1
109 138 m 1,20,-1
 137 138 l 1,21,-1
 137 127 l 1,22,-1
 109 127 l 1,23,-1
 109 138 l 1,20,-1
109 101 m 1,24,-1
 137 101 l 1,25,-1
 137 90 l 1,26,-1
 109 90 l 1,27,-1
 109 101 l 1,24,-1
109 64 m 1,28,-1
 137 64 l 1,29,-1
 137 53 l 1,30,-1
 109 53 l 1,31,-1
 109 64 l 1,28,-1
EndSplineSet
EndChar

StartChar: braceright
Encoding: 125 125 96
Width: 246
Flags: W
LayerCount: 2
Fore
SplineSet
82 358 m 1,0,-1
 110 358 l 1,1,-1
 110 347 l 1,2,-1
 82 347 l 1,3,-1
 82 358 l 1,0,-1
55 358 m 1,4,-1
 82 358 l 1,5,-1
 82 347 l 1,6,-1
 55 347 l 1,7,-1
 55 358 l 1,4,-1
109 358 m 1,8,-1
 137 358 l 1,9,-1
 137 347 l 1,10,-1
 109 347 l 1,11,-1
 109 358 l 1,8,-1
137 321 m 1,12,-1
 164 321 l 1,13,-1
 164 310 l 1,14,-1
 137 310 l 1,15,-1
 137 321 l 1,12,-1
137 284 m 1,16,-1
 164 284 l 1,17,-1
 164 273 l 1,18,-1
 137 273 l 1,19,-1
 137 284 l 1,16,-1
137 248 m 1,20,-1
 164 248 l 1,21,-1
 164 237 l 1,22,-1
 137 237 l 1,23,-1
 137 248 l 1,20,-1
164 211 m 1,24,-1
 192 211 l 1,25,-1
 192 200 l 1,26,-1
 164 200 l 1,27,-1
 164 211 l 1,24,-1
137 174 m 1,28,-1
 164 174 l 1,29,-1
 164 163 l 1,30,-1
 137 163 l 1,31,-1
 137 174 l 1,28,-1
137 138 m 1,32,-1
 164 138 l 1,33,-1
 164 127 l 1,34,-1
 137 127 l 1,35,-1
 137 138 l 1,32,-1
137 101 m 1,36,-1
 164 101 l 1,37,-1
 164 90 l 1,38,-1
 137 90 l 1,39,-1
 137 101 l 1,36,-1
82 64 m 1,40,-1
 110 64 l 1,41,-1
 110 53 l 1,42,-1
 82 53 l 1,43,-1
 82 64 l 1,40,-1
55 64 m 1,44,-1
 82 64 l 1,45,-1
 82 53 l 1,46,-1
 55 53 l 1,47,-1
 55 64 l 1,44,-1
109 64 m 1,48,-1
 137 64 l 1,49,-1
 137 53 l 1,50,-1
 109 53 l 1,51,-1
 109 64 l 1,48,-1
EndSplineSet
EndChar

StartChar: exclamdown
Encoding: 161 161 97
Width: 246
Flags: W
LayerCount: 2
Fore
SplineSet
110 64 m 1,0,-1
 137 64 l 1,1,-1
 137 53 l 1,2,-1
 110 53 l 1,3,-1
 110 64 l 1,0,-1
137 101 m 1,4,-1
 164 101 l 1,5,-1
 164 90 l 1,6,-1
 137 90 l 1,7,-1
 137 101 l 1,4,-1
82 101 m 1,8,-1
 110 101 l 1,9,-1
 110 90 l 1,10,-1
 82 90 l 1,11,-1
 82 101 l 1,8,-1
110 101 m 1,12,-1
 137 101 l 1,13,-1
 137 90 l 1,14,-1
 110 90 l 1,15,-1
 110 101 l 1,12,-1
137 138 m 1,16,-1
 164 138 l 1,17,-1
 164 127 l 1,18,-1
 137 127 l 1,19,-1
 137 138 l 1,16,-1
82 138 m 1,20,-1
 110 138 l 1,21,-1
 110 127 l 1,22,-1
 82 127 l 1,23,-1
 82 138 l 1,20,-1
110 138 m 1,24,-1
 137 138 l 1,25,-1
 137 127 l 1,26,-1
 110 127 l 1,27,-1
 110 138 l 1,24,-1
137 174 m 1,28,-1
 164 174 l 1,29,-1
 164 163 l 1,30,-1
 137 163 l 1,31,-1
 137 174 l 1,28,-1
82 174 m 1,32,-1
 110 174 l 1,33,-1
 110 163 l 1,34,-1
 82 163 l 1,35,-1
 82 174 l 1,32,-1
110 174 m 1,36,-1
 137 174 l 1,37,-1
 137 163 l 1,38,-1
 110 163 l 1,39,-1
 110 174 l 1,36,-1
110 211 m 1,40,-1
 137 211 l 1,41,-1
 137 200 l 1,42,-1
 110 200 l 1,43,-1
 110 211 l 1,40,-1
110 248 m 1,44,-1
 137 248 l 1,45,-1
 137 237 l 1,46,-1
 110 237 l 1,47,-1
 110 248 l 1,44,-1
110 321 m 1,48,-1
 137 321 l 1,49,-1
 137 310 l 1,50,-1
 110 310 l 1,51,-1
 110 321 l 1,48,-1
110 358 m 1,52,-1
 137 358 l 1,53,-1
 137 347 l 1,54,-1
 110 347 l 1,55,-1
 110 358 l 1,52,-1
EndSplineSet
EndChar

StartChar: sterling
Encoding: 163 163 98
Width: 246
Flags: W
LayerCount: 2
Fore
SplineSet
136 396 m 1,0,-1
 164 396 l 1,1,-1
 164 385 l 1,2,-1
 136 385 l 1,3,-1
 136 396 l 1,0,-1
109 396 m 1,4,-1
 136 396 l 1,5,-1
 136 385 l 1,6,-1
 109 385 l 1,7,-1
 109 396 l 1,4,-1
82 359 m 1,8,-1
 109 359 l 1,9,-1
 109 348 l 1,10,-1
 82 348 l 1,11,-1
 82 359 l 1,8,-1
164 359 m 1,12,-1
 191 359 l 1,13,-1
 191 348 l 1,14,-1
 164 348 l 1,15,-1
 164 359 l 1,12,-1
82 322 m 1,16,-1
 109 322 l 1,17,-1
 109 311 l 1,18,-1
 82 311 l 1,19,-1
 82 322 l 1,16,-1
82 285 m 1,20,-1
 109 285 l 1,21,-1
 109 274 l 1,22,-1
 82 274 l 1,23,-1
 82 285 l 1,20,-1
82 249 m 1,24,-1
 109 249 l 1,25,-1
 109 238 l 1,26,-1
 82 238 l 1,27,-1
 82 249 l 1,24,-1
54 249 m 1,28,-1
 82 249 l 1,29,-1
 82 238 l 1,30,-1
 54 238 l 1,31,-1
 54 249 l 1,28,-1
109 249 m 1,32,-1
 136 249 l 1,33,-1
 136 238 l 1,34,-1
 109 238 l 1,35,-1
 109 249 l 1,32,-1
82 212 m 1,36,-1
 109 212 l 1,37,-1
 109 201 l 1,38,-1
 82 201 l 1,39,-1
 82 212 l 1,36,-1
82 175 m 1,40,-1
 109 175 l 1,41,-1
 109 164 l 1,42,-1
 82 164 l 1,43,-1
 82 175 l 1,40,-1
82 138 m 1,44,-1
 109 138 l 1,45,-1
 109 127 l 1,46,-1
 82 127 l 1,47,-1
 82 138 l 1,44,-1
82 102 m 1,48,-1
 109 102 l 1,49,-1
 109 91 l 1,50,-1
 82 91 l 1,51,-1
 82 102 l 1,48,-1
54 102 m 1,52,-1
 82 102 l 1,53,-1
 82 91 l 1,54,-1
 54 91 l 1,55,-1
 54 102 l 1,52,-1
109 102 m 1,56,-1
 136 102 l 1,57,-1
 136 91 l 1,58,-1
 109 91 l 1,59,-1
 109 102 l 1,56,-1
191 102 m 1,60,-1
 219 102 l 1,61,-1
 219 91 l 1,62,-1
 191 91 l 1,63,-1
 191 102 l 1,60,-1
82 65 m 1,64,-1
 109 65 l 1,65,-1
 109 54 l 1,66,-1
 82 54 l 1,67,-1
 82 65 l 1,64,-1
54 65 m 1,68,-1
 82 65 l 1,69,-1
 82 54 l 1,70,-1
 54 54 l 1,71,-1
 54 65 l 1,68,-1
136 65 m 1,72,-1
 164 65 l 1,73,-1
 164 54 l 1,74,-1
 136 54 l 1,75,-1
 136 65 l 1,72,-1
109 65 m 1,76,-1
 136 65 l 1,77,-1
 136 54 l 1,78,-1
 109 54 l 1,79,-1
 109 65 l 1,76,-1
164 65 m 1,80,-1
 191 65 l 1,81,-1
 191 54 l 1,82,-1
 164 54 l 1,83,-1
 164 65 l 1,80,-1
EndSplineSet
EndChar

StartChar: currency
Encoding: 164 164 99
Width: 246
Flags: W
LayerCount: 2
Fore
SplineSet
0 359 m 1,0,-1
 27 359 l 1,1,-1
 27 348 l 1,2,-1
 0 348 l 1,3,-1
 0 359 l 1,0,-1
219 359 m 1,4,-1
 246 359 l 1,5,-1
 246 348 l 1,6,-1
 219 348 l 1,7,-1
 219 359 l 1,4,-1
27 322 m 1,8,-1
 54 322 l 1,9,-1
 54 311 l 1,10,-1
 27 311 l 1,11,-1
 27 322 l 1,8,-1
191 322 m 1,12,-1
 219 322 l 1,13,-1
 219 311 l 1,14,-1
 191 311 l 1,15,-1
 191 322 l 1,12,-1
82 285 m 1,16,-1
 109 285 l 1,17,-1
 109 274 l 1,18,-1
 82 274 l 1,19,-1
 82 285 l 1,16,-1
136 285 m 1,20,-1
 164 285 l 1,21,-1
 164 274 l 1,22,-1
 136 274 l 1,23,-1
 136 285 l 1,20,-1
109 285 m 1,24,-1
 136 285 l 1,25,-1
 136 274 l 1,26,-1
 109 274 l 1,27,-1
 109 285 l 1,24,-1
54 249 m 1,28,-1
 82 249 l 1,29,-1
 82 238 l 1,30,-1
 54 238 l 1,31,-1
 54 249 l 1,28,-1
164 249 m 1,32,-1
 191 249 l 1,33,-1
 191 238 l 1,34,-1
 164 238 l 1,35,-1
 164 249 l 1,32,-1
54 212 m 1,36,-1
 82 212 l 1,37,-1
 82 201 l 1,38,-1
 54 201 l 1,39,-1
 54 212 l 1,36,-1
164 212 m 1,40,-1
 191 212 l 1,41,-1
 191 201 l 1,42,-1
 164 201 l 1,43,-1
 164 212 l 1,40,-1
54 175 m 1,44,-1
 82 175 l 1,45,-1
 82 164 l 1,46,-1
 54 164 l 1,47,-1
 54 175 l 1,44,-1
164 175 m 1,48,-1
 191 175 l 1,49,-1
 191 164 l 1,50,-1
 164 164 l 1,51,-1
 164 175 l 1,48,-1
82 138 m 1,52,-1
 109 138 l 1,53,-1
 109 127 l 1,54,-1
 82 127 l 1,55,-1
 82 138 l 1,52,-1
136 138 m 1,56,-1
 164 138 l 1,57,-1
 164 127 l 1,58,-1
 136 127 l 1,59,-1
 136 138 l 1,56,-1
109 138 m 1,60,-1
 136 138 l 1,61,-1
 136 127 l 1,62,-1
 109 127 l 1,63,-1
 109 138 l 1,60,-1
27 102 m 1,64,-1
 54 102 l 1,65,-1
 54 91 l 1,66,-1
 27 91 l 1,67,-1
 27 102 l 1,64,-1
191 102 m 1,68,-1
 219 102 l 1,69,-1
 219 91 l 1,70,-1
 191 91 l 1,71,-1
 191 102 l 1,68,-1
0 65 m 1,72,-1
 27 65 l 1,73,-1
 27 54 l 1,74,-1
 0 54 l 1,75,-1
 0 65 l 1,72,-1
219 65 m 1,76,-1
 246 65 l 1,77,-1
 246 54 l 1,78,-1
 219 54 l 1,79,-1
 219 65 l 1,76,-1
EndSplineSet
EndChar

StartChar: yen
Encoding: 165 165 100
Width: 246
Flags: W
LayerCount: 2
Fore
SplineSet
54 359 m 1,0,-1
 82 359 l 1,1,-1
 82 348 l 1,2,-1
 54 348 l 1,3,-1
 54 359 l 1,0,-1
164 359 m 1,4,-1
 191 359 l 1,5,-1
 191 348 l 1,6,-1
 164 348 l 1,7,-1
 164 359 l 1,4,-1
54 322 m 1,8,-1
 82 322 l 1,9,-1
 82 311 l 1,10,-1
 54 311 l 1,11,-1
 54 322 l 1,8,-1
164 322 m 1,12,-1
 191 322 l 1,13,-1
 191 311 l 1,14,-1
 164 311 l 1,15,-1
 164 322 l 1,12,-1
82 285 m 1,16,-1
 109 285 l 1,17,-1
 109 274 l 1,18,-1
 82 274 l 1,19,-1
 82 285 l 1,16,-1
136 285 m 1,20,-1
 164 285 l 1,21,-1
 164 274 l 1,22,-1
 136 274 l 1,23,-1
 136 285 l 1,20,-1
109 285 m 1,24,-1
 136 285 l 1,25,-1
 136 274 l 1,26,-1
 109 274 l 1,27,-1
 109 285 l 1,24,-1
109 249 m 1,28,-1
 136 249 l 1,29,-1
 136 238 l 1,30,-1
 109 238 l 1,31,-1
 109 249 l 1,28,-1
82 212 m 1,32,-1
 109 212 l 1,33,-1
 109 201 l 1,34,-1
 82 201 l 1,35,-1
 82 212 l 1,32,-1
136 212 m 1,36,-1
 164 212 l 1,37,-1
 164 201 l 1,38,-1
 136 201 l 1,39,-1
 136 212 l 1,36,-1
109 212 m 1,40,-1
 136 212 l 1,41,-1
 136 201 l 1,42,-1
 109 201 l 1,43,-1
 109 212 l 1,40,-1
109 175 m 1,44,-1
 136 175 l 1,45,-1
 136 164 l 1,46,-1
 109 164 l 1,47,-1
 109 175 l 1,44,-1
82 138 m 1,48,-1
 109 138 l 1,49,-1
 109 127 l 1,50,-1
 82 127 l 1,51,-1
 82 138 l 1,48,-1
136 138 m 1,52,-1
 164 138 l 1,53,-1
 164 127 l 1,54,-1
 136 127 l 1,55,-1
 136 138 l 1,52,-1
109 138 m 1,56,-1
 136 138 l 1,57,-1
 136 127 l 1,58,-1
 109 127 l 1,59,-1
 109 138 l 1,56,-1
109 102 m 1,60,-1
 136 102 l 1,61,-1
 136 91 l 1,62,-1
 109 91 l 1,63,-1
 109 102 l 1,60,-1
109 65 m 1,64,-1
 136 65 l 1,65,-1
 136 54 l 1,66,-1
 109 54 l 1,67,-1
 109 65 l 1,64,-1
EndSplineSet
EndChar

StartChar: section
Encoding: 167 167 101
Width: 246
Flags: W
LayerCount: 2
Fore
SplineSet
82 396 m 1,0,-1
 109 396 l 1,1,-1
 109 385 l 1,2,-1
 82 385 l 1,3,-1
 82 396 l 1,0,-1
54 396 m 1,4,-1
 82 396 l 1,5,-1
 82 385 l 1,6,-1
 54 385 l 1,7,-1
 54 396 l 1,4,-1
136 396 m 1,8,-1
 164 396 l 1,9,-1
 164 385 l 1,10,-1
 136 385 l 1,11,-1
 136 396 l 1,8,-1
109 396 m 1,12,-1
 136 396 l 1,13,-1
 136 385 l 1,14,-1
 109 385 l 1,15,-1
 109 396 l 1,12,-1
164 396 m 1,16,-1
 191 396 l 1,17,-1
 191 385 l 1,18,-1
 164 385 l 1,19,-1
 164 396 l 1,16,-1
27 359 m 1,20,-1
 54 359 l 1,21,-1
 54 348 l 1,22,-1
 27 348 l 1,23,-1
 27 359 l 1,20,-1
191 359 m 1,24,-1
 219 359 l 1,25,-1
 219 348 l 1,26,-1
 191 348 l 1,27,-1
 191 359 l 1,24,-1
54 322 m 1,28,-1
 82 322 l 1,29,-1
 82 311 l 1,30,-1
 54 311 l 1,31,-1
 54 322 l 1,28,-1
82 285 m 1,32,-1
 109 285 l 1,33,-1
 109 274 l 1,34,-1
 82 274 l 1,35,-1
 82 285 l 1,32,-1
54 285 m 1,36,-1
 82 285 l 1,37,-1
 82 274 l 1,38,-1
 54 274 l 1,39,-1
 54 285 l 1,36,-1
136 285 m 1,40,-1
 164 285 l 1,41,-1
 164 274 l 1,42,-1
 136 274 l 1,43,-1
 136 285 l 1,40,-1
109 285 m 1,44,-1
 136 285 l 1,45,-1
 136 274 l 1,46,-1
 109 274 l 1,47,-1
 109 285 l 1,44,-1
164 285 m 1,48,-1
 191 285 l 1,49,-1
 191 274 l 1,50,-1
 164 274 l 1,51,-1
 164 285 l 1,48,-1
27 249 m 1,52,-1
 54 249 l 1,53,-1
 54 238 l 1,54,-1
 27 238 l 1,55,-1
 27 249 l 1,52,-1
191 249 m 1,56,-1
 219 249 l 1,57,-1
 219 238 l 1,58,-1
 191 238 l 1,59,-1
 191 249 l 1,56,-1
27 212 m 1,60,-1
 54 212 l 1,61,-1
 54 201 l 1,62,-1
 27 201 l 1,63,-1
 27 212 l 1,60,-1
191 212 m 1,64,-1
 219 212 l 1,65,-1
 219 201 l 1,66,-1
 191 201 l 1,67,-1
 191 212 l 1,64,-1
27 175 m 1,68,-1
 54 175 l 1,69,-1
 54 164 l 1,70,-1
 27 164 l 1,71,-1
 27 175 l 1,68,-1
191 175 m 1,72,-1
 219 175 l 1,73,-1
 219 164 l 1,74,-1
 191 164 l 1,75,-1
 191 175 l 1,72,-1
82 138 m 1,76,-1
 109 138 l 1,77,-1
 109 127 l 1,78,-1
 82 127 l 1,79,-1
 82 138 l 1,76,-1
54 138 m 1,80,-1
 82 138 l 1,81,-1
 82 127 l 1,82,-1
 54 127 l 1,83,-1
 54 138 l 1,80,-1
136 138 m 1,84,-1
 164 138 l 1,85,-1
 164 127 l 1,86,-1
 136 127 l 1,87,-1
 136 138 l 1,84,-1
109 138 m 1,88,-1
 136 138 l 1,89,-1
 136 127 l 1,90,-1
 109 127 l 1,91,-1
 109 138 l 1,88,-1
164 138 m 1,92,-1
 191 138 l 1,93,-1
 191 127 l 1,94,-1
 164 127 l 1,95,-1
 164 138 l 1,92,-1
164 102 m 1,96,-1
 191 102 l 1,97,-1
 191 91 l 1,98,-1
 164 91 l 1,99,-1
 164 102 l 1,96,-1
27 65 m 1,100,-1
 54 65 l 1,101,-1
 54 54 l 1,102,-1
 27 54 l 1,103,-1
 27 65 l 1,100,-1
191 65 m 1,104,-1
 219 65 l 1,105,-1
 219 54 l 1,106,-1
 191 54 l 1,107,-1
 191 65 l 1,104,-1
82 28 m 1,108,-1
 109 28 l 1,109,-1
 109 17 l 1,110,-1
 82 17 l 1,111,-1
 82 28 l 1,108,-1
54 28 m 1,112,-1
 82 28 l 1,113,-1
 82 17 l 1,114,-1
 54 17 l 1,115,-1
 54 28 l 1,112,-1
136 28 m 1,116,-1
 164 28 l 1,117,-1
 164 17 l 1,118,-1
 136 17 l 1,119,-1
 136 28 l 1,116,-1
109 28 m 1,120,-1
 136 28 l 1,121,-1
 136 17 l 1,122,-1
 109 17 l 1,123,-1
 109 28 l 1,120,-1
164 28 m 1,124,-1
 191 28 l 1,125,-1
 191 17 l 1,126,-1
 164 17 l 1,127,-1
 164 28 l 1,124,-1
EndSplineSet
EndChar

StartChar: dieresis
Encoding: 168 168 102
Width: 246
Flags: W
LayerCount: 2
Fore
SplineSet
27 433 m 1,0,-1
 55 433 l 1,1,-1
 55 422 l 1,2,-1
 27 422 l 1,3,-1
 27 433 l 1,0,-1
55 433 m 1,4,-1
 82 433 l 1,5,-1
 82 422 l 1,6,-1
 55 422 l 1,7,-1
 55 433 l 1,4,-1
191 433 m 1,8,-1
 219 433 l 1,9,-1
 219 422 l 1,10,-1
 191 422 l 1,11,-1
 191 433 l 1,8,-1
164 433 m 1,12,-1
 191 433 l 1,13,-1
 191 422 l 1,14,-1
 164 422 l 1,15,-1
 164 433 l 1,12,-1
EndSplineSet
EndChar

StartChar: ordfeminine
Encoding: 170 170 103
Width: 246
Flags: W
LayerCount: 2
Fore
SplineSet
137 358 m 1,0,-1
 164 358 l 1,1,-1
 164 347 l 1,2,-1
 137 347 l 1,3,-1
 137 358 l 1,0,-1
164 358 m 1,4,-1
 192 358 l 1,5,-1
 192 347 l 1,6,-1
 164 347 l 1,7,-1
 164 358 l 1,4,-1
82 358 m 1,8,-1
 110 358 l 1,9,-1
 110 347 l 1,10,-1
 82 347 l 1,11,-1
 82 358 l 1,8,-1
110 358 m 1,12,-1
 137 358 l 1,13,-1
 137 347 l 1,14,-1
 110 347 l 1,15,-1
 110 358 l 1,12,-1
55 358 m 1,16,-1
 82 358 l 1,17,-1
 82 347 l 1,18,-1
 55 347 l 1,19,-1
 55 358 l 1,16,-1
164 321 m 1,20,-1
 192 321 l 1,21,-1
 192 310 l 1,22,-1
 164 310 l 1,23,-1
 164 321 l 1,20,-1
27 321 m 1,24,-1
 55 321 l 1,25,-1
 55 310 l 1,26,-1
 27 310 l 1,27,-1
 27 321 l 1,24,-1
164 285 m 1,28,-1
 192 285 l 1,29,-1
 192 274 l 1,30,-1
 164 274 l 1,31,-1
 164 285 l 1,28,-1
27 285 m 1,32,-1
 55 285 l 1,33,-1
 55 274 l 1,34,-1
 27 274 l 1,35,-1
 27 285 l 1,32,-1
192 248 m 1,36,-1
 219 248 l 1,37,-1
 219 237 l 1,38,-1
 192 237 l 1,39,-1
 192 248 l 1,36,-1
137 248 m 1,40,-1
 164 248 l 1,41,-1
 164 237 l 1,42,-1
 137 237 l 1,43,-1
 137 248 l 1,40,-1
164 248 m 1,44,-1
 192 248 l 1,45,-1
 192 237 l 1,46,-1
 164 237 l 1,47,-1
 164 248 l 1,44,-1
82 248 m 1,48,-1
 110 248 l 1,49,-1
 110 237 l 1,50,-1
 82 237 l 1,51,-1
 82 248 l 1,48,-1
110 248 m 1,52,-1
 137 248 l 1,53,-1
 137 237 l 1,54,-1
 110 237 l 1,55,-1
 110 248 l 1,52,-1
55 248 m 1,56,-1
 82 248 l 1,57,-1
 82 237 l 1,58,-1
 55 237 l 1,59,-1
 55 248 l 1,56,-1
192 174 m 1,60,-1
 219 174 l 1,61,-1
 219 163 l 1,62,-1
 192 163 l 1,63,-1
 192 174 l 1,60,-1
137 174 m 1,64,-1
 164 174 l 1,65,-1
 164 163 l 1,66,-1
 137 163 l 1,67,-1
 137 174 l 1,64,-1
164 174 m 1,68,-1
 192 174 l 1,69,-1
 192 163 l 1,70,-1
 164 163 l 1,71,-1
 164 174 l 1,68,-1
82 174 m 1,72,-1
 110 174 l 1,73,-1
 110 163 l 1,74,-1
 82 163 l 1,75,-1
 82 174 l 1,72,-1
110 174 m 1,76,-1
 137 174 l 1,77,-1
 137 163 l 1,78,-1
 110 163 l 1,79,-1
 110 174 l 1,76,-1
55 174 m 1,80,-1
 82 174 l 1,81,-1
 82 163 l 1,82,-1
 55 163 l 1,83,-1
 55 174 l 1,80,-1
EndSplineSet
EndChar

StartChar: guillemotleft
Encoding: 171 171 104
Width: 246
Flags: W
LayerCount: 2
Fore
SplineSet
109 285 m 1,0,-1
 137 285 l 1,1,-1
 137 274 l 1,2,-1
 109 274 l 1,3,-1
 109 285 l 1,0,-1
164 285 m 1,4,-1
 192 285 l 1,5,-1
 192 274 l 1,6,-1
 164 274 l 1,7,-1
 164 285 l 1,4,-1
82 248 m 1,8,-1
 110 248 l 1,9,-1
 110 237 l 1,10,-1
 82 237 l 1,11,-1
 82 248 l 1,8,-1
137 248 m 1,12,-1
 164 248 l 1,13,-1
 164 237 l 1,14,-1
 137 237 l 1,15,-1
 137 248 l 1,12,-1
55 211 m 1,16,-1
 82 211 l 1,17,-1
 82 200 l 1,18,-1
 55 200 l 1,19,-1
 55 211 l 1,16,-1
109 211 m 1,20,-1
 137 211 l 1,21,-1
 137 200 l 1,22,-1
 109 200 l 1,23,-1
 109 211 l 1,20,-1
82 174 m 1,24,-1
 110 174 l 1,25,-1
 110 163 l 1,26,-1
 82 163 l 1,27,-1
 82 174 l 1,24,-1
137 174 m 1,28,-1
 164 174 l 1,29,-1
 164 163 l 1,30,-1
 137 163 l 1,31,-1
 137 174 l 1,28,-1
109 138 m 1,32,-1
 137 138 l 1,33,-1
 137 127 l 1,34,-1
 109 127 l 1,35,-1
 109 138 l 1,32,-1
164 138 m 1,36,-1
 192 138 l 1,37,-1
 192 127 l 1,38,-1
 164 127 l 1,39,-1
 164 138 l 1,36,-1
EndSplineSet
EndChar

StartChar: logicalnot
Encoding: 172 172 105
Width: 246
Flags: W
LayerCount: 2
Fore
SplineSet
27 212 m 1,0,-1
 55 212 l 1,1,-1
 55 201 l 1,2,-1
 27 201 l 1,3,-1
 27 212 l 1,0,-1
82 212 m 1,4,-1
 110 212 l 1,5,-1
 110 201 l 1,6,-1
 82 201 l 1,7,-1
 82 212 l 1,4,-1
55 212 m 1,8,-1
 82 212 l 1,9,-1
 82 201 l 1,10,-1
 55 201 l 1,11,-1
 55 212 l 1,8,-1
137 212 m 1,12,-1
 164 212 l 1,13,-1
 164 201 l 1,14,-1
 137 201 l 1,15,-1
 137 212 l 1,12,-1
109 212 m 1,16,-1
 137 212 l 1,17,-1
 137 201 l 1,18,-1
 109 201 l 1,19,-1
 109 212 l 1,16,-1
192 212 m 1,20,-1
 219 212 l 1,21,-1
 219 201 l 1,22,-1
 192 201 l 1,23,-1
 192 212 l 1,20,-1
164 212 m 1,24,-1
 192 212 l 1,25,-1
 192 201 l 1,26,-1
 164 201 l 1,27,-1
 164 212 l 1,24,-1
192 175 m 1,28,-1
 219 175 l 1,29,-1
 219 164 l 1,30,-1
 192 164 l 1,31,-1
 192 175 l 1,28,-1
192 138 m 1,32,-1
 219 138 l 1,33,-1
 219 127 l 1,34,-1
 192 127 l 1,35,-1
 192 138 l 1,32,-1
EndSplineSet
EndChar

StartChar: registered
Encoding: 174 174 106
Width: 246
Flags: W
LayerCount: 2
Fore
SplineSet
137 358 m 1,0,-1
 164 358 l 1,1,-1
 164 347 l 1,2,-1
 137 347 l 1,3,-1
 137 358 l 1,0,-1
164 358 m 1,4,-1
 192 358 l 1,5,-1
 192 347 l 1,6,-1
 164 347 l 1,7,-1
 164 358 l 1,4,-1
82 358 m 1,8,-1
 110 358 l 1,9,-1
 110 347 l 1,10,-1
 82 347 l 1,11,-1
 82 358 l 1,8,-1
110 358 m 1,12,-1
 137 358 l 1,13,-1
 137 347 l 1,14,-1
 110 347 l 1,15,-1
 110 358 l 1,12,-1
55 358 m 1,16,-1
 82 358 l 1,17,-1
 82 347 l 1,18,-1
 55 347 l 1,19,-1
 55 358 l 1,16,-1
192 321 m 1,20,-1
 219 321 l 1,21,-1
 219 310 l 1,22,-1
 192 310 l 1,23,-1
 192 321 l 1,20,-1
27 321 m 1,24,-1
 55 321 l 1,25,-1
 55 310 l 1,26,-1
 27 310 l 1,27,-1
 27 321 l 1,24,-1
192 285 m 1,28,-1
 219 285 l 1,29,-1
 219 274 l 1,30,-1
 192 274 l 1,31,-1
 192 285 l 1,28,-1
82 285 m 1,32,-1
 110 285 l 1,33,-1
 110 274 l 1,34,-1
 82 274 l 1,35,-1
 82 285 l 1,32,-1
110 285 m 1,36,-1
 137 285 l 1,37,-1
 137 274 l 1,38,-1
 110 274 l 1,39,-1
 110 285 l 1,36,-1
27 285 m 1,40,-1
 55 285 l 1,41,-1
 55 274 l 1,42,-1
 27 274 l 1,43,-1
 27 285 l 1,40,-1
192 248 m 1,44,-1
 219 248 l 1,45,-1
 219 237 l 1,46,-1
 192 237 l 1,47,-1
 192 248 l 1,44,-1
137 248 m 1,48,-1
 164 248 l 1,49,-1
 164 237 l 1,50,-1
 137 237 l 1,51,-1
 137 248 l 1,48,-1
82 248 m 1,52,-1
 110 248 l 1,53,-1
 110 237 l 1,54,-1
 82 237 l 1,55,-1
 82 248 l 1,52,-1
27 248 m 1,56,-1
 55 248 l 1,57,-1
 55 237 l 1,58,-1
 27 237 l 1,59,-1
 27 248 l 1,56,-1
192 211 m 1,60,-1
 219 211 l 1,61,-1
 219 200 l 1,62,-1
 192 200 l 1,63,-1
 192 211 l 1,60,-1
82 211 m 1,64,-1
 110 211 l 1,65,-1
 110 200 l 1,66,-1
 82 200 l 1,67,-1
 82 211 l 1,64,-1
110 211 m 1,68,-1
 137 211 l 1,69,-1
 137 200 l 1,70,-1
 110 200 l 1,71,-1
 110 211 l 1,68,-1
27 211 m 1,72,-1
 55 211 l 1,73,-1
 55 200 l 1,74,-1
 27 200 l 1,75,-1
 27 211 l 1,72,-1
192 174 m 1,76,-1
 219 174 l 1,77,-1
 219 163 l 1,78,-1
 192 163 l 1,79,-1
 192 174 l 1,76,-1
137 174 m 1,80,-1
 164 174 l 1,81,-1
 164 163 l 1,82,-1
 137 163 l 1,83,-1
 137 174 l 1,80,-1
82 174 m 1,84,-1
 110 174 l 1,85,-1
 110 163 l 1,86,-1
 82 163 l 1,87,-1
 82 174 l 1,84,-1
27 174 m 1,88,-1
 55 174 l 1,89,-1
 55 163 l 1,90,-1
 27 163 l 1,91,-1
 27 174 l 1,88,-1
192 138 m 1,92,-1
 219 138 l 1,93,-1
 219 127 l 1,94,-1
 192 127 l 1,95,-1
 192 138 l 1,92,-1
137 138 m 1,96,-1
 164 138 l 1,97,-1
 164 127 l 1,98,-1
 137 127 l 1,99,-1
 137 138 l 1,96,-1
82 138 m 1,100,-1
 110 138 l 1,101,-1
 110 127 l 1,102,-1
 82 127 l 1,103,-1
 82 138 l 1,100,-1
27 138 m 1,104,-1
 55 138 l 1,105,-1
 55 127 l 1,106,-1
 27 127 l 1,107,-1
 27 138 l 1,104,-1
192 101 m 1,108,-1
 219 101 l 1,109,-1
 219 90 l 1,110,-1
 192 90 l 1,111,-1
 192 101 l 1,108,-1
27 101 m 1,112,-1
 55 101 l 1,113,-1
 55 90 l 1,114,-1
 27 90 l 1,115,-1
 27 101 l 1,112,-1
137 64 m 1,116,-1
 164 64 l 1,117,-1
 164 53 l 1,118,-1
 137 53 l 1,119,-1
 137 64 l 1,116,-1
164 64 m 1,120,-1
 192 64 l 1,121,-1
 192 53 l 1,122,-1
 164 53 l 1,123,-1
 164 64 l 1,120,-1
82 64 m 1,124,-1
 110 64 l 1,125,-1
 110 53 l 1,126,-1
 82 53 l 1,127,-1
 82 64 l 1,124,-1
110 64 m 1,128,-1
 137 64 l 1,129,-1
 137 53 l 1,130,-1
 110 53 l 1,131,-1
 110 64 l 1,128,-1
55 64 m 1,132,-1
 82 64 l 1,133,-1
 82 53 l 1,134,-1
 55 53 l 1,135,-1
 55 64 l 1,132,-1
EndSplineSet
EndChar

StartChar: degree
Encoding: 176 176 107
Width: 246
Flags: W
LayerCount: 2
Fore
SplineSet
82 395 m 1,0,-1
 110 395 l 1,1,-1
 110 385 l 1,2,-1
 82 385 l 1,3,-1
 82 395 l 1,0,-1
137 395 m 1,4,-1
 164 395 l 1,5,-1
 164 385 l 1,6,-1
 137 385 l 1,7,-1
 137 395 l 1,4,-1
110 395 m 1,8,-1
 137 395 l 1,9,-1
 137 385 l 1,10,-1
 110 385 l 1,11,-1
 110 395 l 1,8,-1
55 359 m 1,12,-1
 82 359 l 1,13,-1
 82 348 l 1,14,-1
 55 348 l 1,15,-1
 55 359 l 1,12,-1
164 359 m 1,16,-1
 192 359 l 1,17,-1
 192 348 l 1,18,-1
 164 348 l 1,19,-1
 164 359 l 1,16,-1
55 322 m 1,20,-1
 82 322 l 1,21,-1
 82 311 l 1,22,-1
 55 311 l 1,23,-1
 55 322 l 1,20,-1
164 322 m 1,24,-1
 192 322 l 1,25,-1
 192 311 l 1,26,-1
 164 311 l 1,27,-1
 164 322 l 1,24,-1
82 285 m 1,28,-1
 110 285 l 1,29,-1
 110 274 l 1,30,-1
 82 274 l 1,31,-1
 82 285 l 1,28,-1
137 285 m 1,32,-1
 164 285 l 1,33,-1
 164 274 l 1,34,-1
 137 274 l 1,35,-1
 137 285 l 1,32,-1
110 285 m 1,36,-1
 137 285 l 1,37,-1
 137 274 l 1,38,-1
 110 274 l 1,39,-1
 110 285 l 1,36,-1
EndSplineSet
EndChar

StartChar: plusminus
Encoding: 177 177 108
Width: 246
Flags: W
LayerCount: 2
Fore
SplineSet
110 322 m 1,0,-1
 137 322 l 1,1,-1
 137 311 l 1,2,-1
 110 311 l 1,3,-1
 110 322 l 1,0,-1
110 285 m 1,4,-1
 137 285 l 1,5,-1
 137 274 l 1,6,-1
 110 274 l 1,7,-1
 110 285 l 1,4,-1
110 248 m 1,8,-1
 137 248 l 1,9,-1
 137 237 l 1,10,-1
 110 237 l 1,11,-1
 110 248 l 1,8,-1
82 212 m 1,12,-1
 110 212 l 1,13,-1
 110 201 l 1,14,-1
 82 201 l 1,15,-1
 82 212 l 1,12,-1
55 212 m 1,16,-1
 82 212 l 1,17,-1
 82 201 l 1,18,-1
 55 201 l 1,19,-1
 55 212 l 1,16,-1
137 212 m 1,20,-1
 164 212 l 1,21,-1
 164 201 l 1,22,-1
 137 201 l 1,23,-1
 137 212 l 1,20,-1
110 212 m 1,24,-1
 137 212 l 1,25,-1
 137 201 l 1,26,-1
 110 201 l 1,27,-1
 110 212 l 1,24,-1
164 212 m 1,28,-1
 192 212 l 1,29,-1
 192 201 l 1,30,-1
 164 201 l 1,31,-1
 164 212 l 1,28,-1
110 175 m 1,32,-1
 137 175 l 1,33,-1
 137 164 l 1,34,-1
 110 164 l 1,35,-1
 110 175 l 1,32,-1
110 138 m 1,36,-1
 137 138 l 1,37,-1
 137 127 l 1,38,-1
 110 127 l 1,39,-1
 110 138 l 1,36,-1
110 101 m 1,40,-1
 137 101 l 1,41,-1
 137 90 l 1,42,-1
 110 90 l 1,43,-1
 110 101 l 1,40,-1
82 28 m 1,44,-1
 110 28 l 1,45,-1
 110 17 l 1,46,-1
 82 17 l 1,47,-1
 82 28 l 1,44,-1
55 28 m 1,48,-1
 82 28 l 1,49,-1
 82 17 l 1,50,-1
 55 17 l 1,51,-1
 55 28 l 1,48,-1
137 28 m 1,52,-1
 164 28 l 1,53,-1
 164 17 l 1,54,-1
 137 17 l 1,55,-1
 137 28 l 1,52,-1
110 28 m 1,56,-1
 137 28 l 1,57,-1
 137 17 l 1,58,-1
 110 17 l 1,59,-1
 110 28 l 1,56,-1
164 28 m 1,60,-1
 192 28 l 1,61,-1
 192 17 l 1,62,-1
 164 17 l 1,63,-1
 164 28 l 1,60,-1
EndSplineSet
EndChar

StartChar: uni00B2
Encoding: 178 178 109
Width: 246
Flags: W
LayerCount: 2
Fore
SplineSet
137 395 m 1,0,-1
 164 395 l 1,1,-1
 164 384 l 1,2,-1
 137 384 l 1,3,-1
 137 395 l 1,0,-1
110 358 m 1,4,-1
 137 358 l 1,5,-1
 137 347 l 1,6,-1
 110 347 l 1,7,-1
 110 358 l 1,4,-1
82 321 m 1,8,-1
 110 321 l 1,9,-1
 110 310 l 1,10,-1
 82 310 l 1,11,-1
 82 321 l 1,8,-1
55 285 m 1,12,-1
 82 285 l 1,13,-1
 82 274 l 1,14,-1
 55 274 l 1,15,-1
 55 285 l 1,12,-1
137 248 m 1,16,-1
 164 248 l 1,17,-1
 164 237 l 1,18,-1
 137 237 l 1,19,-1
 137 248 l 1,16,-1
164 248 m 1,20,-1
 192 248 l 1,21,-1
 192 237 l 1,22,-1
 164 237 l 1,23,-1
 164 248 l 1,20,-1
82 248 m 1,24,-1
 110 248 l 1,25,-1
 110 237 l 1,26,-1
 82 237 l 1,27,-1
 82 248 l 1,24,-1
110 248 m 1,28,-1
 137 248 l 1,29,-1
 137 237 l 1,30,-1
 110 237 l 1,31,-1
 110 248 l 1,28,-1
55 248 m 1,32,-1
 82 248 l 1,33,-1
 82 237 l 1,34,-1
 55 237 l 1,35,-1
 55 248 l 1,32,-1
137 468 m 1,36,-1
 164 468 l 1,37,-1
 164 457 l 1,38,-1
 137 457 l 1,39,-1
 137 468 l 1,36,-1
82 468 m 1,40,-1
 110 468 l 1,41,-1
 110 457 l 1,42,-1
 82 457 l 1,43,-1
 82 468 l 1,40,-1
110 468 m 1,44,-1
 137 468 l 1,45,-1
 137 457 l 1,46,-1
 110 457 l 1,47,-1
 110 468 l 1,44,-1
164 432 m 1,48,-1
 192 432 l 1,49,-1
 192 421 l 1,50,-1
 164 421 l 1,51,-1
 164 432 l 1,48,-1
55 432 m 1,52,-1
 82 432 l 1,53,-1
 82 421 l 1,54,-1
 55 421 l 1,55,-1
 55 432 l 1,52,-1
EndSplineSet
EndChar

StartChar: uni00B3
Encoding: 179 179 110
Width: 246
Flags: W
LayerCount: 2
Fore
SplineSet
164 395 m 1,0,-1
 192 395 l 1,1,-1
 192 384 l 1,2,-1
 164 384 l 1,3,-1
 164 395 l 1,0,-1
137 358 m 1,4,-1
 164 358 l 1,5,-1
 164 347 l 1,6,-1
 137 347 l 1,7,-1
 137 358 l 1,4,-1
82 358 m 1,8,-1
 110 358 l 1,9,-1
 110 347 l 1,10,-1
 82 347 l 1,11,-1
 82 358 l 1,8,-1
110 358 m 1,12,-1
 137 358 l 1,13,-1
 137 347 l 1,14,-1
 110 347 l 1,15,-1
 110 358 l 1,12,-1
164 321 m 1,16,-1
 192 321 l 1,17,-1
 192 310 l 1,18,-1
 164 310 l 1,19,-1
 164 321 l 1,16,-1
164 285 m 1,20,-1
 192 285 l 1,21,-1
 192 274 l 1,22,-1
 164 274 l 1,23,-1
 164 285 l 1,20,-1
137 248 m 1,24,-1
 164 248 l 1,25,-1
 164 237 l 1,26,-1
 137 237 l 1,27,-1
 137 248 l 1,24,-1
82 248 m 1,28,-1
 110 248 l 1,29,-1
 110 237 l 1,30,-1
 82 237 l 1,31,-1
 82 248 l 1,28,-1
110 248 m 1,32,-1
 137 248 l 1,33,-1
 137 237 l 1,34,-1
 110 237 l 1,35,-1
 110 248 l 1,32,-1
55 248 m 1,36,-1
 82 248 l 1,37,-1
 82 237 l 1,38,-1
 55 237 l 1,39,-1
 55 248 l 1,36,-1
137 468 m 1,40,-1
 164 468 l 1,41,-1
 164 457 l 1,42,-1
 137 457 l 1,43,-1
 137 468 l 1,40,-1
82 468 m 1,44,-1
 110 468 l 1,45,-1
 110 457 l 1,46,-1
 82 457 l 1,47,-1
 82 468 l 1,44,-1
110 468 m 1,48,-1
 137 468 l 1,49,-1
 137 457 l 1,50,-1
 110 457 l 1,51,-1
 110 468 l 1,48,-1
55 468 m 1,52,-1
 82 468 l 1,53,-1
 82 457 l 1,54,-1
 55 457 l 1,55,-1
 55 468 l 1,52,-1
164 432 m 1,56,-1
 192 432 l 1,57,-1
 192 421 l 1,58,-1
 164 421 l 1,59,-1
 164 432 l 1,56,-1
EndSplineSet
EndChar

StartChar: uni00B5
Encoding: 181 181 111
Width: 246
Flags: W
LayerCount: 2
Fore
SplineSet
192 248 m 1,0,-1
 219 248 l 1,1,-1
 219 237 l 1,2,-1
 192 237 l 1,3,-1
 192 248 l 1,0,-1
82 248 m 1,4,-1
 110 248 l 1,5,-1
 110 237 l 1,6,-1
 82 237 l 1,7,-1
 82 248 l 1,4,-1
192 211 m 1,8,-1
 219 211 l 1,9,-1
 219 200 l 1,10,-1
 192 200 l 1,11,-1
 192 211 l 1,8,-1
82 211 m 1,12,-1
 110 211 l 1,13,-1
 110 200 l 1,14,-1
 82 200 l 1,15,-1
 82 211 l 1,12,-1
192 174 m 1,16,-1
 219 174 l 1,17,-1
 219 163 l 1,18,-1
 192 163 l 1,19,-1
 192 174 l 1,16,-1
82 174 m 1,20,-1
 110 174 l 1,21,-1
 110 163 l 1,22,-1
 82 163 l 1,23,-1
 82 174 l 1,20,-1
192 138 m 1,24,-1
 219 138 l 1,25,-1
 219 127 l 1,26,-1
 192 127 l 1,27,-1
 192 138 l 1,24,-1
82 138 m 1,28,-1
 110 138 l 1,29,-1
 110 127 l 1,30,-1
 82 127 l 1,31,-1
 82 138 l 1,28,-1
137 101 m 1,32,-1
 164 101 l 1,33,-1
 164 90 l 1,34,-1
 137 90 l 1,35,-1
 137 101 l 1,32,-1
164 101 m 1,36,-1
 192 101 l 1,37,-1
 192 90 l 1,38,-1
 164 90 l 1,39,-1
 164 101 l 1,36,-1
82 101 m 1,40,-1
 110 101 l 1,41,-1
 110 90 l 1,42,-1
 82 90 l 1,43,-1
 82 101 l 1,40,-1
110 101 m 1,44,-1
 137 101 l 1,45,-1
 137 90 l 1,46,-1
 110 90 l 1,47,-1
 110 101 l 1,44,-1
82 64 m 1,48,-1
 110 64 l 1,49,-1
 110 53 l 1,50,-1
 82 53 l 1,51,-1
 82 64 l 1,48,-1
82 27 m 1,52,-1
 110 27 l 1,53,-1
 110 16 l 1,54,-1
 82 16 l 1,55,-1
 82 27 l 1,52,-1
27 -9 m 1,56,-1
 55 -9 l 1,57,-1
 55 -20 l 1,58,-1
 27 -20 l 1,59,-1
 27 -9 l 1,56,-1
55 -9 m 1,60,-1
 82 -9 l 1,61,-1
 82 -20 l 1,62,-1
 55 -20 l 1,63,-1
 55 -9 l 1,60,-1
EndSplineSet
EndChar

StartChar: paragraph
Encoding: 182 182 112
Width: 246
Flags: W
LayerCount: 2
Fore
SplineSet
137 321 m 1,0,-1
 164 321 l 1,1,-1
 164 310 l 1,2,-1
 137 310 l 1,3,-1
 137 321 l 1,0,-1
164 321 m 1,4,-1
 192 321 l 1,5,-1
 192 310 l 1,6,-1
 164 310 l 1,7,-1
 164 321 l 1,4,-1
82 321 m 1,8,-1
 110 321 l 1,9,-1
 110 310 l 1,10,-1
 82 310 l 1,11,-1
 82 321 l 1,8,-1
110 321 m 1,12,-1
 137 321 l 1,13,-1
 137 310 l 1,14,-1
 110 310 l 1,15,-1
 110 321 l 1,12,-1
164 285 m 1,16,-1
 192 285 l 1,17,-1
 192 274 l 1,18,-1
 164 274 l 1,19,-1
 164 285 l 1,16,-1
110 285 m 1,20,-1
 137 285 l 1,21,-1
 137 274 l 1,22,-1
 110 274 l 1,23,-1
 110 285 l 1,20,-1
55 285 m 1,24,-1
 82 285 l 1,25,-1
 82 274 l 1,26,-1
 55 274 l 1,27,-1
 55 285 l 1,24,-1
164 248 m 1,28,-1
 192 248 l 1,29,-1
 192 237 l 1,30,-1
 164 237 l 1,31,-1
 164 248 l 1,28,-1
110 248 m 1,32,-1
 137 248 l 1,33,-1
 137 237 l 1,34,-1
 110 237 l 1,35,-1
 110 248 l 1,32,-1
55 248 m 1,36,-1
 82 248 l 1,37,-1
 82 237 l 1,38,-1
 55 237 l 1,39,-1
 55 248 l 1,36,-1
164 211 m 1,40,-1
 192 211 l 1,41,-1
 192 200 l 1,42,-1
 164 200 l 1,43,-1
 164 211 l 1,40,-1
110 211 m 1,44,-1
 137 211 l 1,45,-1
 137 200 l 1,46,-1
 110 200 l 1,47,-1
 110 211 l 1,44,-1
55 211 m 1,48,-1
 82 211 l 1,49,-1
 82 200 l 1,50,-1
 55 200 l 1,51,-1
 55 211 l 1,48,-1
164 174 m 1,52,-1
 192 174 l 1,53,-1
 192 163 l 1,54,-1
 164 163 l 1,55,-1
 164 174 l 1,52,-1
82 174 m 1,56,-1
 110 174 l 1,57,-1
 110 163 l 1,58,-1
 82 163 l 1,59,-1
 82 174 l 1,56,-1
110 174 m 1,60,-1
 137 174 l 1,61,-1
 137 163 l 1,62,-1
 110 163 l 1,63,-1
 110 174 l 1,60,-1
164 138 m 1,64,-1
 192 138 l 1,65,-1
 192 127 l 1,66,-1
 164 127 l 1,67,-1
 164 138 l 1,64,-1
110 138 m 1,68,-1
 137 138 l 1,69,-1
 137 127 l 1,70,-1
 110 127 l 1,71,-1
 110 138 l 1,68,-1
164 101 m 1,72,-1
 192 101 l 1,73,-1
 192 90 l 1,74,-1
 164 90 l 1,75,-1
 164 101 l 1,72,-1
110 101 m 1,76,-1
 137 101 l 1,77,-1
 137 90 l 1,78,-1
 110 90 l 1,79,-1
 110 101 l 1,76,-1
164 64 m 1,80,-1
 192 64 l 1,81,-1
 192 53 l 1,82,-1
 164 53 l 1,83,-1
 164 64 l 1,80,-1
110 64 m 1,84,-1
 137 64 l 1,85,-1
 137 53 l 1,86,-1
 110 53 l 1,87,-1
 110 64 l 1,84,-1
164 27 m 1,88,-1
 192 27 l 1,89,-1
 192 16 l 1,90,-1
 164 16 l 1,91,-1
 164 27 l 1,88,-1
110 27 m 1,92,-1
 137 27 l 1,93,-1
 137 16 l 1,94,-1
 110 16 l 1,95,-1
 110 27 l 1,92,-1
164 -9 m 1,96,-1
 192 -9 l 1,97,-1
 192 -20 l 1,98,-1
 164 -20 l 1,99,-1
 164 -9 l 1,96,-1
110 -9 m 1,100,-1
 137 -9 l 1,101,-1
 137 -20 l 1,102,-1
 110 -20 l 1,103,-1
 110 -9 l 1,100,-1
EndSplineSet
EndChar

StartChar: uni00B9
Encoding: 185 185 113
Width: 246
Flags: W
LayerCount: 2
Fore
SplineSet
110 395 m 1,0,-1
 137 395 l 1,1,-1
 137 384 l 1,2,-1
 110 384 l 1,3,-1
 110 395 l 1,0,-1
110 358 m 1,4,-1
 137 358 l 1,5,-1
 137 347 l 1,6,-1
 110 347 l 1,7,-1
 110 358 l 1,4,-1
110 321 m 1,8,-1
 137 321 l 1,9,-1
 137 310 l 1,10,-1
 110 310 l 1,11,-1
 110 321 l 1,8,-1
110 285 m 1,12,-1
 137 285 l 1,13,-1
 137 274 l 1,14,-1
 110 274 l 1,15,-1
 110 285 l 1,12,-1
137 248 m 1,16,-1
 164 248 l 1,17,-1
 164 237 l 1,18,-1
 137 237 l 1,19,-1
 137 248 l 1,16,-1
82 248 m 1,20,-1
 110 248 l 1,21,-1
 110 237 l 1,22,-1
 82 237 l 1,23,-1
 82 248 l 1,20,-1
110 248 m 1,24,-1
 137 248 l 1,25,-1
 137 237 l 1,26,-1
 110 237 l 1,27,-1
 110 248 l 1,24,-1
110 468 m 1,28,-1
 137 468 l 1,29,-1
 137 457 l 1,30,-1
 110 457 l 1,31,-1
 110 468 l 1,28,-1
82 432 m 1,32,-1
 110 432 l 1,33,-1
 110 421 l 1,34,-1
 82 421 l 1,35,-1
 82 432 l 1,32,-1
110 432 m 1,36,-1
 137 432 l 1,37,-1
 137 421 l 1,38,-1
 110 421 l 1,39,-1
 110 432 l 1,36,-1
EndSplineSet
EndChar

StartChar: ordmasculine
Encoding: 186 186 114
Width: 246
Flags: W
LayerCount: 2
Fore
SplineSet
82 395 m 1,0,-1
 110 395 l 1,1,-1
 110 385 l 1,2,-1
 82 385 l 1,3,-1
 82 395 l 1,0,-1
137 395 m 1,4,-1
 164 395 l 1,5,-1
 164 385 l 1,6,-1
 137 385 l 1,7,-1
 137 395 l 1,4,-1
110 395 m 1,8,-1
 137 395 l 1,9,-1
 137 385 l 1,10,-1
 110 385 l 1,11,-1
 110 395 l 1,8,-1
55 359 m 1,12,-1
 82 359 l 1,13,-1
 82 348 l 1,14,-1
 55 348 l 1,15,-1
 55 359 l 1,12,-1
164 359 m 1,16,-1
 192 359 l 1,17,-1
 192 348 l 1,18,-1
 164 348 l 1,19,-1
 164 359 l 1,16,-1
55 322 m 1,20,-1
 82 322 l 1,21,-1
 82 311 l 1,22,-1
 55 311 l 1,23,-1
 55 322 l 1,20,-1
164 322 m 1,24,-1
 192 322 l 1,25,-1
 192 311 l 1,26,-1
 164 311 l 1,27,-1
 164 322 l 1,24,-1
82 285 m 1,28,-1
 110 285 l 1,29,-1
 110 274 l 1,30,-1
 82 274 l 1,31,-1
 82 285 l 1,28,-1
137 285 m 1,32,-1
 164 285 l 1,33,-1
 164 274 l 1,34,-1
 137 274 l 1,35,-1
 137 285 l 1,32,-1
110 285 m 1,36,-1
 137 285 l 1,37,-1
 137 274 l 1,38,-1
 110 274 l 1,39,-1
 110 285 l 1,36,-1
82 212 m 1,40,-1
 110 212 l 1,41,-1
 110 201 l 1,42,-1
 82 201 l 1,43,-1
 82 212 l 1,40,-1
55 212 m 1,44,-1
 82 212 l 1,45,-1
 82 201 l 1,46,-1
 55 201 l 1,47,-1
 55 212 l 1,44,-1
137 212 m 1,48,-1
 164 212 l 1,49,-1
 164 201 l 1,50,-1
 137 201 l 1,51,-1
 137 212 l 1,48,-1
110 212 m 1,52,-1
 137 212 l 1,53,-1
 137 201 l 1,54,-1
 110 201 l 1,55,-1
 110 212 l 1,52,-1
164 212 m 1,56,-1
 192 212 l 1,57,-1
 192 201 l 1,58,-1
 164 201 l 1,59,-1
 164 212 l 1,56,-1
EndSplineSet
EndChar

StartChar: guillemotright
Encoding: 187 187 115
Width: 246
Flags: W
LayerCount: 2
Fore
SplineSet
110 285 m 1,0,-1
 137 285 l 1,1,-1
 137 274 l 1,2,-1
 110 274 l 1,3,-1
 110 285 l 1,0,-1
55 285 m 1,4,-1
 82 285 l 1,5,-1
 82 274 l 1,6,-1
 55 274 l 1,7,-1
 55 285 l 1,4,-1
137 248 m 1,8,-1
 164 248 l 1,9,-1
 164 237 l 1,10,-1
 137 237 l 1,11,-1
 137 248 l 1,8,-1
82 248 m 1,12,-1
 110 248 l 1,13,-1
 110 237 l 1,14,-1
 82 237 l 1,15,-1
 82 248 l 1,12,-1
164 211 m 1,16,-1
 192 211 l 1,17,-1
 192 200 l 1,18,-1
 164 200 l 1,19,-1
 164 211 l 1,16,-1
110 211 m 1,20,-1
 137 211 l 1,21,-1
 137 200 l 1,22,-1
 110 200 l 1,23,-1
 110 211 l 1,20,-1
137 174 m 1,24,-1
 164 174 l 1,25,-1
 164 163 l 1,26,-1
 137 163 l 1,27,-1
 137 174 l 1,24,-1
82 174 m 1,28,-1
 110 174 l 1,29,-1
 110 163 l 1,30,-1
 82 163 l 1,31,-1
 82 174 l 1,28,-1
110 138 m 1,32,-1
 137 138 l 1,33,-1
 137 127 l 1,34,-1
 110 127 l 1,35,-1
 110 138 l 1,32,-1
55 138 m 1,36,-1
 82 138 l 1,37,-1
 82 127 l 1,38,-1
 55 127 l 1,39,-1
 55 138 l 1,36,-1
EndSplineSet
EndChar

StartChar: onequarter
Encoding: 188 188 116
Width: 246
Flags: W
LayerCount: 2
Fore
SplineSet
192 395 m 1,0,-1
 219 395 l 1,1,-1
 219 384 l 1,2,-1
 192 384 l 1,3,-1
 192 395 l 1,0,-1
82 395 m 1,4,-1
 110 395 l 1,5,-1
 110 384 l 1,6,-1
 82 384 l 1,7,-1
 82 395 l 1,4,-1
164 358 m 1,8,-1
 192 358 l 1,9,-1
 192 347 l 1,10,-1
 164 347 l 1,11,-1
 164 358 l 1,8,-1
82 358 m 1,12,-1
 110 358 l 1,13,-1
 110 347 l 1,14,-1
 82 347 l 1,15,-1
 82 358 l 1,12,-1
137 321 m 1,16,-1
 164 321 l 1,17,-1
 164 310 l 1,18,-1
 137 310 l 1,19,-1
 137 321 l 1,16,-1
82 321 m 1,20,-1
 110 321 l 1,21,-1
 110 310 l 1,22,-1
 82 310 l 1,23,-1
 82 321 l 1,20,-1
110 285 m 1,24,-1
 137 285 l 1,25,-1
 137 274 l 1,26,-1
 110 274 l 1,27,-1
 110 285 l 1,24,-1
137 248 m 1,28,-1
 164 248 l 1,29,-1
 164 237 l 1,30,-1
 137 237 l 1,31,-1
 137 248 l 1,28,-1
82 248 m 1,32,-1
 110 248 l 1,33,-1
 110 237 l 1,34,-1
 82 237 l 1,35,-1
 82 248 l 1,32,-1
110 211 m 1,36,-1
 137 211 l 1,37,-1
 137 200 l 1,38,-1
 110 200 l 1,39,-1
 110 211 l 1,36,-1
55 211 m 1,40,-1
 82 211 l 1,41,-1
 82 200 l 1,42,-1
 55 200 l 1,43,-1
 55 211 l 1,40,-1
192 174 m 1,44,-1
 219 174 l 1,45,-1
 219 163 l 1,46,-1
 192 163 l 1,47,-1
 192 174 l 1,44,-1
82 174 m 1,48,-1
 110 174 l 1,49,-1
 110 163 l 1,50,-1
 82 163 l 1,51,-1
 82 174 l 1,48,-1
27 174 m 1,52,-1
 55 174 l 1,53,-1
 55 163 l 1,54,-1
 27 163 l 1,55,-1
 27 174 l 1,52,-1
192 138 m 1,56,-1
 219 138 l 1,57,-1
 219 127 l 1,58,-1
 192 127 l 1,59,-1
 192 138 l 1,56,-1
137 138 m 1,60,-1
 164 138 l 1,61,-1
 164 127 l 1,62,-1
 137 127 l 1,63,-1
 137 138 l 1,60,-1
164 138 m 1,64,-1
 192 138 l 1,65,-1
 192 127 l 1,66,-1
 164 127 l 1,67,-1
 164 138 l 1,64,-1
82 138 m 1,68,-1
 110 138 l 1,69,-1
 110 127 l 1,70,-1
 82 127 l 1,71,-1
 82 138 l 1,68,-1
110 138 m 1,72,-1
 137 138 l 1,73,-1
 137 127 l 1,74,-1
 110 127 l 1,75,-1
 110 138 l 1,72,-1
55 138 m 1,76,-1
 82 138 l 1,77,-1
 82 127 l 1,78,-1
 55 127 l 1,79,-1
 55 138 l 1,76,-1
192 101 m 1,80,-1
 219 101 l 1,81,-1
 219 90 l 1,82,-1
 192 90 l 1,83,-1
 192 101 l 1,80,-1
192 64 m 1,84,-1
 219 64 l 1,85,-1
 219 53 l 1,86,-1
 192 53 l 1,87,-1
 192 64 l 1,84,-1
82 468 m 1,88,-1
 110 468 l 1,89,-1
 110 457 l 1,90,-1
 82 457 l 1,91,-1
 82 468 l 1,88,-1
82 432 m 1,92,-1
 110 432 l 1,93,-1
 110 421 l 1,94,-1
 82 421 l 1,95,-1
 82 432 l 1,92,-1
55 432 m 1,96,-1
 82 432 l 1,97,-1
 82 421 l 1,98,-1
 55 421 l 1,99,-1
 55 432 l 1,96,-1
EndSplineSet
EndChar

StartChar: onehalf
Encoding: 189 189 117
Width: 246
Flags: W
LayerCount: 2
Fore
SplineSet
192 395 m 1,0,-1
 219 395 l 1,1,-1
 219 384 l 1,2,-1
 192 384 l 1,3,-1
 192 395 l 1,0,-1
82 395 m 1,4,-1
 110 395 l 1,5,-1
 110 384 l 1,6,-1
 82 384 l 1,7,-1
 82 395 l 1,4,-1
164 358 m 1,8,-1
 192 358 l 1,9,-1
 192 347 l 1,10,-1
 164 347 l 1,11,-1
 164 358 l 1,8,-1
82 358 m 1,12,-1
 110 358 l 1,13,-1
 110 347 l 1,14,-1
 82 347 l 1,15,-1
 82 358 l 1,12,-1
137 321 m 1,16,-1
 164 321 l 1,17,-1
 164 310 l 1,18,-1
 137 310 l 1,19,-1
 137 321 l 1,16,-1
82 321 m 1,20,-1
 110 321 l 1,21,-1
 110 310 l 1,22,-1
 82 310 l 1,23,-1
 82 321 l 1,20,-1
110 285 m 1,24,-1
 137 285 l 1,25,-1
 137 274 l 1,26,-1
 110 274 l 1,27,-1
 110 285 l 1,24,-1
137 248 m 1,28,-1
 164 248 l 1,29,-1
 164 237 l 1,30,-1
 137 237 l 1,31,-1
 137 248 l 1,28,-1
164 248 m 1,32,-1
 192 248 l 1,33,-1
 192 237 l 1,34,-1
 164 237 l 1,35,-1
 164 248 l 1,32,-1
82 248 m 1,36,-1
 110 248 l 1,37,-1
 110 237 l 1,38,-1
 82 237 l 1,39,-1
 82 248 l 1,36,-1
192 211 m 1,40,-1
 219 211 l 1,41,-1
 219 200 l 1,42,-1
 192 200 l 1,43,-1
 192 211 l 1,40,-1
110 211 m 1,44,-1
 137 211 l 1,45,-1
 137 200 l 1,46,-1
 110 200 l 1,47,-1
 110 211 l 1,44,-1
55 211 m 1,48,-1
 82 211 l 1,49,-1
 82 200 l 1,50,-1
 55 200 l 1,51,-1
 55 211 l 1,48,-1
192 174 m 1,52,-1
 219 174 l 1,53,-1
 219 163 l 1,54,-1
 192 163 l 1,55,-1
 192 174 l 1,52,-1
27 174 m 1,56,-1
 55 174 l 1,57,-1
 55 163 l 1,58,-1
 27 163 l 1,59,-1
 27 174 l 1,56,-1
137 138 m 1,60,-1
 164 138 l 1,61,-1
 164 127 l 1,62,-1
 137 127 l 1,63,-1
 137 138 l 1,60,-1
164 138 m 1,64,-1
 192 138 l 1,65,-1
 192 127 l 1,66,-1
 164 127 l 1,67,-1
 164 138 l 1,64,-1
110 101 m 1,68,-1
 137 101 l 1,69,-1
 137 90 l 1,70,-1
 110 90 l 1,71,-1
 110 101 l 1,68,-1
192 64 m 1,72,-1
 219 64 l 1,73,-1
 219 53 l 1,74,-1
 192 53 l 1,75,-1
 192 64 l 1,72,-1
137 64 m 1,76,-1
 164 64 l 1,77,-1
 164 53 l 1,78,-1
 137 53 l 1,79,-1
 137 64 l 1,76,-1
164 64 m 1,80,-1
 192 64 l 1,81,-1
 192 53 l 1,82,-1
 164 53 l 1,83,-1
 164 64 l 1,80,-1
110 64 m 1,84,-1
 137 64 l 1,85,-1
 137 53 l 1,86,-1
 110 53 l 1,87,-1
 110 64 l 1,84,-1
82 468 m 1,88,-1
 110 468 l 1,89,-1
 110 457 l 1,90,-1
 82 457 l 1,91,-1
 82 468 l 1,88,-1
82 432 m 1,92,-1
 110 432 l 1,93,-1
 110 421 l 1,94,-1
 82 421 l 1,95,-1
 82 432 l 1,92,-1
55 432 m 1,96,-1
 82 432 l 1,97,-1
 82 421 l 1,98,-1
 55 421 l 1,99,-1
 55 432 l 1,96,-1
EndSplineSet
EndChar

StartChar: threequarters
Encoding: 190 190 118
Width: 246
Flags: W
LayerCount: 2
Fore
SplineSet
192 395 m 1,0,-1
 219 395 l 1,1,-1
 219 384 l 1,2,-1
 192 384 l 1,3,-1
 192 395 l 1,0,-1
82 395 m 1,4,-1
 110 395 l 1,5,-1
 110 384 l 1,6,-1
 82 384 l 1,7,-1
 82 395 l 1,4,-1
27 395 m 1,8,-1
 55 395 l 1,9,-1
 55 384 l 1,10,-1
 27 384 l 1,11,-1
 27 395 l 1,8,-1
55 395 m 1,12,-1
 82 395 l 1,13,-1
 82 384 l 1,14,-1
 55 384 l 1,15,-1
 55 395 l 1,12,-1
164 358 m 1,16,-1
 192 358 l 1,17,-1
 192 347 l 1,18,-1
 164 347 l 1,19,-1
 164 358 l 1,16,-1
110 358 m 1,20,-1
 137 358 l 1,21,-1
 137 347 l 1,22,-1
 110 347 l 1,23,-1
 110 358 l 1,20,-1
137 321 m 1,24,-1
 164 321 l 1,25,-1
 164 310 l 1,26,-1
 137 310 l 1,27,-1
 137 321 l 1,24,-1
82 321 m 1,28,-1
 110 321 l 1,29,-1
 110 310 l 1,30,-1
 82 310 l 1,31,-1
 82 321 l 1,28,-1
27 321 m 1,32,-1
 55 321 l 1,33,-1
 55 310 l 1,34,-1
 27 310 l 1,35,-1
 27 321 l 1,32,-1
55 321 m 1,36,-1
 82 321 l 1,37,-1
 82 310 l 1,38,-1
 55 310 l 1,39,-1
 55 321 l 1,36,-1
110 285 m 1,40,-1
 137 285 l 1,41,-1
 137 274 l 1,42,-1
 110 274 l 1,43,-1
 110 285 l 1,40,-1
137 248 m 1,44,-1
 164 248 l 1,45,-1
 164 237 l 1,46,-1
 137 237 l 1,47,-1
 137 248 l 1,44,-1
82 248 m 1,48,-1
 110 248 l 1,49,-1
 110 237 l 1,50,-1
 82 237 l 1,51,-1
 82 248 l 1,48,-1
110 211 m 1,52,-1
 137 211 l 1,53,-1
 137 200 l 1,54,-1
 110 200 l 1,55,-1
 110 211 l 1,52,-1
55 211 m 1,56,-1
 82 211 l 1,57,-1
 82 200 l 1,58,-1
 55 200 l 1,59,-1
 55 211 l 1,56,-1
192 174 m 1,60,-1
 219 174 l 1,61,-1
 219 163 l 1,62,-1
 192 163 l 1,63,-1
 192 174 l 1,60,-1
82 174 m 1,64,-1
 110 174 l 1,65,-1
 110 163 l 1,66,-1
 82 163 l 1,67,-1
 82 174 l 1,64,-1
27 174 m 1,68,-1
 55 174 l 1,69,-1
 55 163 l 1,70,-1
 27 163 l 1,71,-1
 27 174 l 1,68,-1
192 138 m 1,72,-1
 219 138 l 1,73,-1
 219 127 l 1,74,-1
 192 127 l 1,75,-1
 192 138 l 1,72,-1
137 138 m 1,76,-1
 164 138 l 1,77,-1
 164 127 l 1,78,-1
 137 127 l 1,79,-1
 137 138 l 1,76,-1
164 138 m 1,80,-1
 192 138 l 1,81,-1
 192 127 l 1,82,-1
 164 127 l 1,83,-1
 164 138 l 1,80,-1
82 138 m 1,84,-1
 110 138 l 1,85,-1
 110 127 l 1,86,-1
 82 127 l 1,87,-1
 82 138 l 1,84,-1
110 138 m 1,88,-1
 137 138 l 1,89,-1
 137 127 l 1,90,-1
 110 127 l 1,91,-1
 110 138 l 1,88,-1
55 138 m 1,92,-1
 82 138 l 1,93,-1
 82 127 l 1,94,-1
 55 127 l 1,95,-1
 55 138 l 1,92,-1
192 101 m 1,96,-1
 219 101 l 1,97,-1
 219 90 l 1,98,-1
 192 90 l 1,99,-1
 192 101 l 1,96,-1
192 64 m 1,100,-1
 219 64 l 1,101,-1
 219 53 l 1,102,-1
 192 53 l 1,103,-1
 192 64 l 1,100,-1
82 468 m 1,104,-1
 110 468 l 1,105,-1
 110 457 l 1,106,-1
 82 457 l 1,107,-1
 82 468 l 1,104,-1
27 468 m 1,108,-1
 55 468 l 1,109,-1
 55 457 l 1,110,-1
 27 457 l 1,111,-1
 27 468 l 1,108,-1
55 468 m 1,112,-1
 82 468 l 1,113,-1
 82 457 l 1,114,-1
 55 457 l 1,115,-1
 55 468 l 1,112,-1
110 432 m 1,116,-1
 137 432 l 1,117,-1
 137 421 l 1,118,-1
 110 421 l 1,119,-1
 110 432 l 1,116,-1
EndSplineSet
EndChar

StartChar: questiondown
Encoding: 191 191 119
Width: 246
Flags: W
LayerCount: 2
Fore
SplineSet
137 27 m 1,0,-1
 164 27 l 1,1,-1
 164 16 l 1,2,-1
 137 16 l 1,3,-1
 137 27 l 1,0,-1
164 27 m 1,4,-1
 192 27 l 1,5,-1
 192 16 l 1,6,-1
 164 16 l 1,7,-1
 164 27 l 1,4,-1
82 27 m 1,8,-1
 110 27 l 1,9,-1
 110 16 l 1,10,-1
 82 16 l 1,11,-1
 82 27 l 1,8,-1
110 27 m 1,12,-1
 137 27 l 1,13,-1
 137 16 l 1,14,-1
 110 16 l 1,15,-1
 110 27 l 1,12,-1
55 27 m 1,16,-1
 82 27 l 1,17,-1
 82 16 l 1,18,-1
 55 16 l 1,19,-1
 55 27 l 1,16,-1
192 64 m 1,20,-1
 219 64 l 1,21,-1
 219 53 l 1,22,-1
 192 53 l 1,23,-1
 192 64 l 1,20,-1
27 64 m 1,24,-1
 55 64 l 1,25,-1
 55 53 l 1,26,-1
 27 53 l 1,27,-1
 27 64 l 1,24,-1
192 101 m 1,28,-1
 219 101 l 1,29,-1
 219 90 l 1,30,-1
 192 90 l 1,31,-1
 192 101 l 1,28,-1
27 101 m 1,32,-1
 55 101 l 1,33,-1
 55 90 l 1,34,-1
 27 90 l 1,35,-1
 27 101 l 1,32,-1
55 138 m 1,36,-1
 82 138 l 1,37,-1
 82 127 l 1,38,-1
 55 127 l 1,39,-1
 55 138 l 1,36,-1
82 174 m 1,40,-1
 110 174 l 1,41,-1
 110 163 l 1,42,-1
 82 163 l 1,43,-1
 82 174 l 1,40,-1
110 211 m 1,44,-1
 137 211 l 1,45,-1
 137 200 l 1,46,-1
 110 200 l 1,47,-1
 110 211 l 1,44,-1
110 248 m 1,48,-1
 137 248 l 1,49,-1
 137 237 l 1,50,-1
 110 237 l 1,51,-1
 110 248 l 1,48,-1
110 321 m 1,52,-1
 137 321 l 1,53,-1
 137 310 l 1,54,-1
 110 310 l 1,55,-1
 110 321 l 1,52,-1
110 358 m 1,56,-1
 137 358 l 1,57,-1
 137 347 l 1,58,-1
 110 347 l 1,59,-1
 110 358 l 1,56,-1
EndSplineSet
EndChar

StartChar: Agrave
Encoding: 192 192 120
Width: 246
Flags: W
LayerCount: 2
Fore
SplineSet
82 358 m 1,0,-1
 109 358 l 1,1,-1
 109 347 l 1,2,-1
 82 347 l 1,3,-1
 82 358 l 1,0,-1
136 358 m 1,4,-1
 164 358 l 1,5,-1
 164 347 l 1,6,-1
 136 347 l 1,7,-1
 136 358 l 1,4,-1
109 358 m 1,8,-1
 136 358 l 1,9,-1
 136 347 l 1,10,-1
 109 347 l 1,11,-1
 109 358 l 1,8,-1
54 321 m 1,12,-1
 82 321 l 1,13,-1
 82 310 l 1,14,-1
 54 310 l 1,15,-1
 54 321 l 1,12,-1
164 321 m 1,16,-1
 191 321 l 1,17,-1
 191 310 l 1,18,-1
 164 310 l 1,19,-1
 164 321 l 1,16,-1
27 285 m 1,20,-1
 54 285 l 1,21,-1
 54 274 l 1,22,-1
 27 274 l 1,23,-1
 27 285 l 1,20,-1
191 285 m 1,24,-1
 219 285 l 1,25,-1
 219 274 l 1,26,-1
 191 274 l 1,27,-1
 191 285 l 1,24,-1
27 248 m 1,28,-1
 54 248 l 1,29,-1
 54 237 l 1,30,-1
 27 237 l 1,31,-1
 27 248 l 1,28,-1
191 248 m 1,32,-1
 219 248 l 1,33,-1
 219 237 l 1,34,-1
 191 237 l 1,35,-1
 191 248 l 1,32,-1
27 211 m 1,36,-1
 54 211 l 1,37,-1
 54 200 l 1,38,-1
 27 200 l 1,39,-1
 27 211 l 1,36,-1
82 211 m 1,40,-1
 109 211 l 1,41,-1
 109 200 l 1,42,-1
 82 200 l 1,43,-1
 82 211 l 1,40,-1
54 211 m 1,44,-1
 82 211 l 1,45,-1
 82 200 l 1,46,-1
 54 200 l 1,47,-1
 54 211 l 1,44,-1
136 211 m 1,48,-1
 164 211 l 1,49,-1
 164 200 l 1,50,-1
 136 200 l 1,51,-1
 136 211 l 1,48,-1
109 211 m 1,52,-1
 136 211 l 1,53,-1
 136 200 l 1,54,-1
 109 200 l 1,55,-1
 109 211 l 1,52,-1
191 211 m 1,56,-1
 219 211 l 1,57,-1
 219 200 l 1,58,-1
 191 200 l 1,59,-1
 191 211 l 1,56,-1
164 211 m 1,60,-1
 191 211 l 1,61,-1
 191 200 l 1,62,-1
 164 200 l 1,63,-1
 164 211 l 1,60,-1
27 174 m 1,64,-1
 54 174 l 1,65,-1
 54 163 l 1,66,-1
 27 163 l 1,67,-1
 27 174 l 1,64,-1
191 174 m 1,68,-1
 219 174 l 1,69,-1
 219 163 l 1,70,-1
 191 163 l 1,71,-1
 191 174 l 1,68,-1
27 138 m 1,72,-1
 54 138 l 1,73,-1
 54 127 l 1,74,-1
 27 127 l 1,75,-1
 27 138 l 1,72,-1
191 138 m 1,76,-1
 219 138 l 1,77,-1
 219 127 l 1,78,-1
 191 127 l 1,79,-1
 191 138 l 1,76,-1
27 101 m 1,80,-1
 54 101 l 1,81,-1
 54 90 l 1,82,-1
 27 90 l 1,83,-1
 27 101 l 1,80,-1
191 101 m 1,84,-1
 219 101 l 1,85,-1
 219 90 l 1,86,-1
 191 90 l 1,87,-1
 191 101 l 1,84,-1
27 64 m 1,88,-1
 54 64 l 1,89,-1
 54 53 l 1,90,-1
 27 53 l 1,91,-1
 27 64 l 1,88,-1
191 64 m 1,92,-1
 219 64 l 1,93,-1
 219 53 l 1,94,-1
 191 53 l 1,95,-1
 191 64 l 1,92,-1
82 468 m 1,96,-1
 110 468 l 1,97,-1
 110 457 l 1,98,-1
 82 457 l 1,99,-1
 82 468 l 1,96,-1
55 468 m 1,100,-1
 82 468 l 1,101,-1
 82 457 l 1,102,-1
 55 457 l 1,103,-1
 55 468 l 1,100,-1
109 432 m 1,104,-1
 137 432 l 1,105,-1
 137 421 l 1,106,-1
 109 421 l 1,107,-1
 109 432 l 1,104,-1
EndSplineSet
EndChar

